<svg width="250" height="634" viewBox="0 0 250 634" fill="none" xmlns="http://www.w3.org/2000/svg">
<g clip-path="url(#clip0_1888_330)">
<path d="M113.155 141.493L114.566 131.334L110.858 116.895L107.248 101.754C106.281 97.5735 104.247 88.9123 103.842 87.7136C103.437 86.5148 99.1841 73.2609 97.1082 66.7838C96.2485 60.1186 94.3872 46.2685 93.8189 44.1902C93.2506 42.1118 89.4431 25.1351 87.6104 16.9065L105.174 44.6203L124.126 71.0699L133.053 92.3477L142.715 116.32L143.658 86.4474L144.961 51.2923C145.882 39.5186 147.802 15.4108 148.113 13.1689C148.425 10.927 163.603 32.1237 164.748 39.3046L176.031 55.861L191.567 81.7688L225.981 141.044L237.363 181.942L244.487 249.893L244.472 279.33L236.881 327.18L231.755 348.211L225.47 369.773L218.491 384.421L209.588 406.682L199.029 423.587L179.293 449.102L146.624 476.409L165.841 453.727L176.553 430.579L189.33 403.468L197.394 370.69L201.716 343.446L195.045 349.805L185.178 357.407L174.233 367.016L165.898 378.755L157.909 395.141L151.264 409.571L159.126 386.384L164.72 371.808L172.358 355.373L179.033 335.592L181.514 317.727L183.819 306.59L165.702 315.888L157.149 328.625L148.451 342.413L158.122 321.619L166.626 309.232L181.455 289.869L189.19 272.734L192.984 258.265L194.055 250.558L190.046 248.573L176.686 259.929C174.958 265.521 171.082 277.146 169.408 278.913C168.09 280.304 166.593 284.58 165.64 287.793L165.001 290.083C165.165 289.449 165.382 288.659 165.64 287.793L173.534 259.491L180.909 239.807L186.172 217.329L188.264 202.267L186.075 192.323L183.165 190.133L177.794 197.957L170.409 215.14L166.235 234.912L171.1 199.883L173.192 184.821L169.854 175.431L165.534 170.547L156.562 178.584L154.325 194.697L155.58 208.797L150.588 185.609L148.486 172.464L145.392 161.323L136.975 157.655L128.51 154.337L117.345 150.142L113.155 141.493Z" fill="#FDABCA"/>
<path d="M113.155 141.493L114.566 131.334L110.858 116.895L107.248 101.754C106.281 97.5735 104.247 88.9123 103.842 87.7136C103.437 86.5148 99.1841 73.2609 97.1082 66.7838C96.2485 60.1186 94.3872 46.2685 93.8189 44.1902C93.2506 42.1118 89.4431 25.1351 87.6104 16.9065L105.174 44.6203L124.126 71.0699L133.053 92.3477L142.715 116.32L143.658 86.4474L144.961 51.2923C145.882 39.5186 147.802 15.4108 148.113 13.1689C148.425 10.927 163.603 32.1237 164.748 39.3046L176.031 55.861L191.567 81.7688L225.981 141.044L237.363 181.942L244.487 249.893L244.472 279.33L236.881 327.18L231.755 348.211L225.47 369.773L218.491 384.421L209.588 406.682L199.029 423.587L179.293 449.102L146.624 476.409L165.841 453.727L176.553 430.579L189.33 403.468L197.394 370.69L201.716 343.446L195.045 349.805L185.178 357.407L174.233 367.016L165.898 378.755L157.909 395.141L151.264 409.571L159.126 386.384L164.72 371.808L172.358 355.373L179.033 335.592L181.514 317.727L183.819 306.59L165.702 315.888L157.149 328.625L148.451 342.413L158.122 321.619L166.626 309.232L181.455 289.869L189.19 272.734L192.984 258.265L194.055 250.558L190.046 248.573L176.686 259.929C174.958 265.521 171.082 277.146 169.408 278.913C167.735 280.68 165.773 287.096 165.001 290.083L173.534 259.491L180.909 239.807L186.172 217.329L188.264 202.267L186.075 192.323L183.165 190.133L177.794 197.957L170.409 215.14L166.235 234.912L171.1 199.883L173.192 184.821L169.854 175.431L165.534 170.547L156.562 178.584L154.325 194.697L155.58 208.797L150.588 185.609L148.486 172.464L145.392 161.323L136.975 157.655L128.51 154.337L117.345 150.142L113.155 141.493Z" stroke="black" stroke-width="2"/>
<path d="M63.4951 572.5L56.6558 319.816L48.7042 319.872L53.4964 316.908L57.6652 314.577L61.2004 311.413L62.229 308.895L62.1908 303.455L61.1078 298.231L57.5372 296.372L53.7913 299.328L53.3817 300.587L52.11 298.294L53.759 294.725L57.5255 294.698L56.9326 210.37L45.4165 209.405L40.1852 209.442L37.241 207.37L43.7278 207.324L53.1132 202.864L60.163 193.607L67.4014 181.419L77.0817 159.378L88.5968 130.419L93.0091 103.184L96.8377 82.2312L97.2033 19.4503L97.2715 7.73122L99.662 7.71441L101.127 7.70412L105.521 7.67322L108.873 8.27744L114.329 10.3317C115.52 11.1604 117.988 12.9427 118.327 13.4425C118.749 14.0673 120.857 16.1451 121.28 16.7699C121.703 17.3947 124.019 19.4711 124.651 20.0944C125.157 20.5931 127.526 22.2366 128.648 22.996L131.801 25.0664L134.954 27.1369L138.098 27.7425L142.073 27.7146L146.886 27.6808L150.224 26.1925L152.726 24.9193L156.896 22.7974C157.523 22.5837 158.943 22.1552 159.612 22.1505L162.332 22.1314C163.659 22.3313 166.355 22.8564 166.526 23.3575C166.74 23.9837 168.833 23.969 169.463 24.3831C170.094 24.7972 171.977 24.784 172.605 24.7796C173.107 24.776 174.068 24.4903 174.485 24.3478L177.203 23.9102L179.081 23.2692L181.165 21.999L183.457 20.518L186.794 19.0297L189.722 18.7999L192.448 19.6178L194.341 20.86L196.654 22.5179L198.123 23.1353C198.629 23.634 199.453 23.7538 199.802 23.7513L202.099 23.1074L204.601 21.8342L203.354 23.0985L200.435 24.5839L198.131 24.1816L195.821 23.1515L193.926 21.4907L192.457 20.8733L189.737 20.8924C188.901 21.1075 187.105 21.5387 186.603 21.5422C186.1 21.5458 184.727 22.6715 184.103 23.2339C183.131 23.8685 181.062 25.1805 180.561 25.3514C180.06 25.5223 178.545 26.4119 177.851 26.8353L175.135 27.4822L171.996 27.5042L169.485 27.5219L166.97 26.9118L164.034 26.0954L161.105 26.116C160.2 26.3316 158.306 26.8053 157.972 26.975C157.638 27.1448 156.026 28.035 155.262 28.4589C154.568 28.9521 153.096 29.939 152.761 29.9413C152.427 29.9437 150.954 30.7911 150.259 31.2145L146.921 32.7028L143.996 33.3511L140.858 33.3732L137.51 33.3967C136.673 33.4724 134.832 33.583 134.162 33.4203C133.323 33.2169 129.76 32.4049 129.129 31.9908C128.499 31.5767 125.563 30.7603 124.722 30.1384C124.049 29.641 122.9 28.9654 122.41 28.6899C121.429 28.069 119.383 26.7441 119.046 26.4117C118.624 25.9961 116.526 25.1738 116.104 24.7582C115.683 24.3427 114.003 23.5174 113.581 23.1019C113.244 22.7694 111.759 21.8591 111.059 21.4455L108.957 20.2047L107.277 19.3795L102.879 18.7826L99.74 18.8047L97.2033 19.4503L96.8377 82.2312L97.7858 102.314L105.35 132.185L118.782 167.456L128.133 187.897L139.75 203.301L143.959 206.62L151.701 206.565L153.166 206.555L150.036 207.832L145.432 207.865L132.04 207.959L133.467 232.223L132.747 308.399L135.507 403.385L140.495 572.5L63.4951 572.5Z" fill="#F92535"/>
<path d="M96.8377 82.2312L93.0091 103.184L88.5968 130.419L77.0817 159.378L67.4014 181.419L60.163 193.607L53.1132 202.864L43.7278 207.324L37.241 207.37L40.1852 209.442L45.4165 209.405L56.9326 210.37L57.5255 294.698L53.759 294.725L52.11 298.294L53.3817 300.587L53.7913 299.328L57.5372 296.372L61.1078 298.231L62.1908 303.455L62.229 308.895L61.2004 311.413L57.6652 314.577L53.4964 316.908L48.7042 319.872L56.6558 319.816L63.4951 572.5L140.495 572.5L135.507 403.385L132.747 308.399L133.467 232.223L132.04 207.959L145.432 207.865L150.036 207.832L153.166 206.555L151.701 206.565L143.959 206.62L139.75 203.301L128.133 187.897L118.782 167.456L105.35 132.185L97.7858 102.314L96.8377 82.2312ZM96.8377 82.2312L97.2033 19.4503M97.3117 0.825319L97.2715 7.73122M97.2033 19.4503L99.74 18.8047L102.879 18.7826L107.277 19.3795L108.957 20.2047L111.059 21.4455C111.759 21.8591 113.244 22.7694 113.581 23.1019C114.003 23.5174 115.683 24.3427 116.104 24.7582C116.526 25.1738 118.624 25.9961 119.046 26.4117C119.383 26.7441 121.429 28.069 122.41 28.6899C122.9 28.9654 124.049 29.641 124.722 30.1384C125.563 30.7603 128.499 31.5767 129.129 31.9908C129.76 32.4049 133.323 33.2169 134.162 33.4203C134.832 33.583 136.673 33.4724 137.51 33.3967L140.858 33.3732L143.996 33.3511L146.921 32.7028L150.259 31.2145C150.954 30.7911 152.427 29.9437 152.761 29.9413C153.096 29.939 154.568 28.9521 155.262 28.4589C156.026 28.035 157.638 27.1448 157.972 26.975C158.306 26.8053 160.2 26.3316 161.105 26.116L164.034 26.0954L166.97 26.9118L169.485 27.5219L171.996 27.5042L175.135 27.4822L177.851 26.8353C178.545 26.4119 180.06 25.5223 180.561 25.3514C181.062 25.1805 183.131 23.8685 184.103 23.2339C184.727 22.6715 186.1 21.5458 186.603 21.5422C187.105 21.5387 188.901 21.1075 189.737 20.8924L192.457 20.8733L193.926 21.4907L195.821 23.1515L198.131 24.1816L200.435 24.5839L203.354 23.0985L204.601 21.8342M97.2033 19.4503L97.2715 7.73122M204.601 21.8342L206.268 20.7762L208.776 20.34L213.173 20.7276L214.854 21.7621M204.601 21.8342L202.099 23.1074L199.802 23.7513C199.453 23.7538 198.629 23.634 198.123 23.1353L196.654 22.5179L194.341 20.86L192.448 19.6178L189.722 18.7999L186.794 19.0297L183.457 20.518L181.165 21.999L179.081 23.2692L177.203 23.9102L174.485 24.3478C174.068 24.4903 173.107 24.776 172.605 24.7796C171.977 24.784 170.094 24.7972 169.463 24.3831C168.833 23.969 166.74 23.9837 166.526 23.3575C166.355 22.8564 163.659 22.3313 162.332 22.1314C161.705 22.1358 160.282 22.1458 159.612 22.1505C158.943 22.1552 157.523 22.5837 156.896 22.7974L152.726 24.9193L150.224 26.1925L146.886 27.6808L142.073 27.7146L138.098 27.7425L134.954 27.1369L131.801 25.0664L128.648 22.996C127.526 22.2366 125.157 20.5931 124.651 20.0944C124.019 19.4711 121.703 17.3947 121.28 16.7699C120.857 16.1451 118.749 14.0673 118.327 13.4425C117.988 12.9427 115.52 11.1604 114.329 10.3317L108.873 8.27744L105.521 7.67322L101.127 7.70412L99.662 7.71441L97.2715 7.73122" stroke="black" stroke-width="2"/>
<path d="M113.028 154.036L108.865 141.262L116.536 141.126L118.287 148.313L120.261 137.473L125.374 151.868L127.575 141.262L132.478 154.036L144.046 148.63L140.724 156.911L152.743 152.205L148.711 162.095L152.62 162.143L154.843 168.411L159.08 160.604L158.935 172.391L163.858 164.824L173.518 164.943L166.343 168.553L162.302 179.136L163.668 180.309L169.744 172.524L167.265 187.056L167.168 194.914L172.803 194.984L169.414 199.334L169.275 210.659L171.407 214.961L166.844 221.262L172.801 223.184L166.784 226.115L172.576 241.442L163.09 227.225L165.389 245.977L158.169 234.562L157.981 249.815L151.59 245.807L156.283 256.96L147.632 249.688L145.278 254.051L141.368 254.003L151.431 258.75L136.044 256.711L142.66 261.184L142.518 272.74L139.397 264.611L127.941 261.003L139.284 273.856L116.825 267.107L127.713 279.492L111.952 270.515L108.817 282.265L103.13 277.109L105.069 287.766L97.5593 281.201L96.0314 293.203L91.2984 285.285L89.5576 295.897L87.8202 287.554L86.2838 300.248L82.2578 290.953L82.1098 302.971L80.1789 310.344L76.9084 295.741L71.4109 312.547L71.5646 300.067L64.7413 312.465L66.6723 305.092L59.4516 312.4L57.9892 319.085L57.918 324.863L56.0981 323.223L49.7097 318.984L43.3526 312.202L39.5623 302.447L37.4104 290.4L39.8213 281.415L43.8392 272.681L50.3926 263.515L60.183 253.003L77.6198 237.962L95.2439 226.39L107.553 216.833L119.342 212.124L128.618 205.997L133.746 200.513L131.926 198.872L128.658 202.762L122.267 198.753L122.178 205.918L117.647 200.314L109.682 212.005L112.817 200.255L104.01 205.694L95.4232 211.83L92.3485 200.003L95.6964 189.642L104.269 184.663L113.028 183.152L124.987 183.3L117.706 165.353L113.028 154.036Z" fill="#FDABCA"/>
<path d="M175.97 208.661L171.407 214.961M171.407 214.961L166.844 221.262L172.801 223.184L166.784 226.115L172.576 241.442L163.09 227.225L165.389 245.977L158.169 234.562L157.981 249.815L151.59 245.807L156.283 256.96L147.632 249.688L145.278 254.051L141.368 254.003L151.431 258.75L136.044 256.711L142.66 261.184L142.518 272.74L139.397 264.611L127.941 261.003L139.284 273.856L116.825 267.107L127.713 279.492L111.952 270.515L108.817 282.265L103.13 277.109L105.069 287.766L97.5593 281.201L96.0314 293.203L91.2984 285.285L89.5576 295.897L87.8202 287.554L86.2838 300.248L82.2578 290.953L82.1098 302.971L80.1789 310.344L76.9084 295.741L71.4109 312.547L71.5646 300.067L64.7413 312.465L66.6723 305.092L59.4516 312.4L57.9892 319.085L57.918 324.863L56.0981 323.223L49.7097 318.984L43.3526 312.202L39.5623 302.447L37.4104 290.4L39.8213 281.415L43.8392 272.681L50.3926 263.515L60.183 253.003L77.6198 237.962L95.2439 226.39L107.553 216.833L119.342 212.124L128.618 205.997L133.746 200.513L131.926 198.872L128.658 202.762L122.267 198.753L122.178 205.918L117.647 200.314L109.682 212.005L112.817 200.255L104.01 205.694L95.4232 211.83L92.3485 200.003L95.6964 189.642L104.269 184.663L113.028 183.152L124.987 183.3L117.706 165.353L113.028 154.036L108.865 141.262L116.536 141.126L118.287 148.313L120.261 137.473L125.374 151.868L127.575 141.262L132.478 154.036L144.046 148.63L140.724 156.911L152.743 152.205L148.711 162.095L152.62 162.143L154.843 168.411L159.08 160.604L158.935 172.391L163.858 164.824L173.518 164.943L166.343 168.553L162.302 179.136L163.668 180.309L169.744 172.524L167.265 187.056L167.168 194.914L172.803 194.984M171.407 214.961L169.275 210.659L169.414 199.334L172.803 194.984M176.192 190.633L172.803 194.984" stroke="black" stroke-width="2"/>
<path d="M130.382 375.098L132.078 346.804L134.505 346.834L144.734 348.308L139.032 351.474L147.64 353.198L144.591 359.902L160.156 366.026L147.464 367.488L161.927 375.486L151.445 372.66L161.814 384.653L151.316 383.175L159.801 394.875L151.213 391.534L161.499 410.267L151.107 400.161L156.107 410.2L148.557 410.107L150.898 417.147L153.454 428.505L145.236 417.078L148.315 429.79L142.48 421.898L142.36 431.604L136.495 426.139L139.524 442.895L131.036 431.465L133.283 446.054L127.285 451.373L129.489 447.625L124.752 438.129L125.195 445.954L119.303 442.646L119.174 453.161L115.798 442.603L113.512 453.091L110.109 444.69L110.006 453.048L102.527 447.293L104.568 456.756L92.5045 450.945L99.4117 459.389L85.4711 452.746L90.8005 457.935L92.3518 463.347L85.3749 460.565L76.241 457.756L80.5217 460.505L89.0732 466.813L74.0343 461.774L85.2653 469.462L72.3236 469.303L83.5613 476.453L73.855 476.333L85.1226 481.056L75.929 483.1L92.0762 485.726L82.0804 487.221L94.1801 490.066L87.1301 493.215L91.9268 497.859L96.2972 493.328L96.1843 502.495L105.641 500.994L96.1212 507.618L107.119 512.338L98.7046 516.818L105.385 521.754L98.6016 525.177L105.249 532.809L95.8125 532.693L103.465 546.27L93.5626 540.215L101.252 550.827L98.1535 561.575L98.2863 550.79L91.3326 546.12L93.3999 553.427L86.423 550.644L87.9777 555.787L84.203 555.74L81.2372 555.704L82.4392 567.584L76.0082 564.269L79.144 572.397L74.8899 567.491L74.8135 573.692L75.799 581.255L83.7283 594.296L83.5988 604.811L80.5467 611.785L75.3276 619.541L74.1695 625.998L75.1583 633.291L72.0026 626.78L72.069 621.388L75.3774 615.496L78.7158 607.178L78.8751 594.236L75.7094 588.534L68.2696 579.544L66.7415 572.244L68.4588 564.176L72.9089 553.174L79.5026 543.278L86.6454 532.58L89.9738 525.07L88.459 516.692L81.8082 509.329L71.902 503.545L61.7594 495.06L52.9615 486.862L48.5307 474.403L50.3244 460.133L53.4263 449.115L60.2564 441.919L72.7552 434.253L84.1223 430.887L91.1988 425.581L99.903 419.486L108.357 411.77L116.266 404.586L121.745 397.643L123.173 391.188L125.462 380.43L130.382 375.098Z" fill="#FDABCA" stroke="black" stroke-width="2"/>
<path d="M74.342 163.334L68.9619 167.413L65.0949 168.846L61.4656 175.019L68.7942 181.032L71.8832 194.691L80.7431 196.576L86.7882 186.583L87.0215 167.635L81.1805 161.049L74.342 163.334Z" fill="#FDABCA" stroke="black" stroke-width="2"/>
<path d="M7 97.4543V103.82L10.5365 117.259L9.47557 121.856L14.0731 118.673L13.3658 123.271H20.7925L19.7315 128.576L26.8046 125.747L25.7436 131.759L33.1703 127.161V134.941L38.1215 130.698V135.649L40.9507 130.698L43.0726 138.478L44.1336 132.82L48.731 139.893V135.649L52.9749 139.893L57.5724 158.99L63.2308 151.563L66.7673 167.478L69.2429 158.99L73.8404 167.478L77.0233 171.721L84.0963 158.99L90.8157 134.234V125.747L95.7669 121.149L90.8157 123.271L91.8767 117.259L86.9256 121.149L85.5109 111.6L87.6329 109.125L81.9744 105.942L87.6329 103.82L80.5598 100.991L85.5109 97.4543H78.4379L81.9744 93.2105L75.255 91.0885L81.9744 83.6618V70.223L76.6696 73.4059L69.2429 78.0034L62.1699 82.2472V73.4059L57.5724 80.8326L55.0968 73.4059L52.9749 80.8326L50.4993 73.4059L47.3164 78.0034L39.5361 67.3938L36.7068 61.7354L32.8167 73.4059V80.8326L26.8046 76.2351L29.2801 83.6618L22.5607 80.8326V86.1374L15.134 83.6618V93.2105L8.76826 86.1374L11.5975 97.4543H7Z" fill="#FDABCA" stroke="black" stroke-width="2"/>
</g>
<defs>
<clipPath id="clip0_1888_330">
<rect width="250" height="634" fill="white"/>
</clipPath>
</defs>
</svg>
