<svg width="49" height="52" viewBox="0 0 49 52" fill="none" xmlns="http://www.w3.org/2000/svg">
<path d="M19.2231 41.1474V38.5718L17.2756 40.5821L15.391 41.8385L12.7526 42.8436L10.6167 43.3462H8.29231L6.15641 43.1577L3.89487 42.5923L2.26154 41.8385L0.753846 39.7026L0 37.2526L0.251282 33.2321L0.753846 31.3474L1.94744 29.4L3.51795 27.8923L5.08846 26.7615L6.91026 25.6936L8.48077 24.9397L6.53333 23.9974L4.39744 22.6154L2.51282 20.4795L1.13077 18.0295L0.565385 15.2026L0.753846 12.0615L1.94744 9.4859L3.51795 7.91539L5.46538 7.09872L7.22436 6.65897H10.3654L12.6269 7.09872L14.5744 7.91539L16.0821 8.73205L18.1551 10.2397L18.8462 7.35L19.9769 4.77436L21.2333 2.7641L22.6154 1.69615L24.1859 0.942308L26.1333 0.314103L28.1436 0L29.9026 0.314103L31.159 0.942308L32.2269 1.82179L33.2321 3.26667L34.2372 4.77436L34.9282 6.47051L35.368 7.91539L35.6821 10.1141L35.5564 12.0615L35.1795 14.2603L34.6141 16.0192L33.9859 17.4013L33.2321 18.7833H33.5462L37.0641 18.0295H39.891L42.9064 19.2231L45.6705 21.359L47.4923 23.5577L49 26.5103V28.5833V30.4051L48.1833 31.9756L46.4872 33.8603L43.9115 35.6821L41.9641 36.6872H39.4513H37.3782L35.9962 36.1218L37.0641 38.1321L37.3782 40.5821L37.0641 42.8436L36.5615 44.8538L35.6192 46.9269L34.6141 48.8744L32.9808 50.4449L30.2795 51.45L27.7038 51.0103L25.0026 50.068L22.4269 48.5603L20.7308 45.9218L19.7885 43.3462L19.2231 41.1474Z" fill="#FDABCA"/>
</svg>
