<svg width="440" height="181" viewBox="0 0 440 181" fill="none" xmlns="http://www.w3.org/2000/svg">
<path d="M24.052 145.601L9.32628 161.682L5.45397 153.313L0 134.716L2.29067 117.979L16.6891 102.227V79.0905L6.43568 51.469L31.4148 37.9591H25.6882L9.32628 33.4193L2.29067 16.4088L9.32628 4.53977L31.4148 8.69667L54.4851 0L76.9554 33.4193L63.4842 43.7568L76.9554 62.08L96.8079 43.7568L124.678 63.6662L144.912 37.9591L171.8 53.0552L184.617 40.858L195.197 47.2574L204.196 40.858L220.504 53.0552L233.375 40.858L250.991 53.0552L260.59 45.343L275.971 56.2822L283.333 53.0552L300.023 40.858L319.875 53.0552L330.783 40.858L350.035 49.1718L362.525 36.0447L384.286 53.0552L405.121 36.0447L430.154 56.2822V106.11L439.753 122.793L424.046 145.601H400.321L382.378 129.848L375.342 148.828L356.744 138.217L347.472 145.601L324.075 134.716L303.513 154.626L286.879 145.601L257.045 180.333L246.792 175.191L215.104 154.626H204.196L184.617 177.762L164.764 154.626V134.716L148.075 154.626L124.678 136.303L116.388 154.626L99.3712 142.757L85.8999 151.727L63.4842 142.757L42.65 157.525L24.052 145.601Z" fill="white"/>
</svg>
