<svg width="1205" height="171" viewBox="0 0 1205 171" fill="none" xmlns="http://www.w3.org/2000/svg">
<path d="M0 120.588V25.7436L5.33502 16.5978L35.2281 0L56.1447 11.1781V24.2193L42.0027 40.055L56.1447 47.4224L70.0327 35.4821L83.3279 48.6926L88.8323 57.3303L106.446 35.4821H111.951L126.093 47.4224L132.867 32.6876L152.344 19.0536L166.825 6.52058L183.677 32.6876L174.193 50.6403L191.044 36.6677L212.385 47.4224L233.386 32.6876L254.98 35.4821L267.936 47.4224L279.284 35.4821L294.442 47.4224L307.06 32.6876L326.198 48.6926L335.598 63.7662L356.684 35.4821L374.552 29.5543L414.014 0L432.221 19.0536L417.148 40.055L432.221 47.4224L452.884 35.4821L470.159 48.6926L485.233 38.5307L497.85 48.6926L499.29 57.3303L522.154 32.6876L551.624 54.9592L571.016 32.6876L587.36 44.6279L602.518 35.4821L623.858 57.3303L644.436 35.4821L665.861 50.6403L687.625 35.4821L711.166 47.4224L719.381 35.4821L737.926 42.6801L749.104 35.4821L767.481 49.3701L774.848 42.6801L803.725 40.055L823.795 42.6801L830.061 38.5307L850.978 42.6801L866.559 35.4821L886.121 49.3701L898.231 35.4821L914.998 45.9828L930.41 35.4821L947.262 49.3701L960.219 32.6876L978.087 42.6801L989.942 32.6876L1011.54 49.3701L1028.05 32.6876L1055.4 49.3701L1070.14 35.4821L1094.95 42.6801L1120.61 38.5307H1148.05L1159.99 30.3165L1174.21 38.5307L1181.49 60.5482L1204.44 76.5533V114.576L1177.35 145.909L1142.54 121.012L1125.18 145.909L1089.44 125.161L1070.14 141.759L1048.2 125.161L1028.05 141.759L1008.32 127.956L994.515 141.759L976.647 132.529L967.078 141.759L945.06 127.956L930.41 141.759L909.748 125.161L904.751 117.794H891.88L873.588 141.759L854.789 132.529L840.138 145.909L816.766 125.161L797.035 141.759L776.457 132.529L761.807 145.909C754.778 142.352 740.162 135.238 737.926 135.238C735.691 135.238 730.615 142.352 728.357 145.909L702.698 132.529L676.108 151.413L658.409 138.541H630.294L621.995 151.413L589.477 135.238L575.25 145.909L549.592 125.161L520.291 141.759L503.101 132.529L493.955 141.759L462.622 127.956L447.888 145.909L421.721 125.161L405.123 145.909L380.734 125.161L365.491 145.909L335.598 125.161L318.577 145.909L301.556 132.529L283.603 141.759L264.719 125.161L254.98 151.413L233.386 170.721L214.078 163.353V138.541L191.976 145.909L169.366 132.529L152.344 145.909L128.379 132.529L115.507 141.759L101.704 132.529L77.3154 145.909L52.4187 125.161L26.167 145.909L0 120.588Z" fill="white"/>
</svg>
