<svg width="662" height="280" viewBox="0 0 662 280" fill="none" xmlns="http://www.w3.org/2000/svg">
<path d="M0 89.6152L48.4354 45.0162L75.1118 49.8118L116.841 83.8748L157.295 47.8936L192.303 39.2615L211.485 102.563L256.084 49.8118L295.888 57.4848L318.427 107.359L329.936 73.3102L377.413 45.0162L398.927 0L454.142 6.17199V49.8118L492.027 73.3102L520.321 47.8936L558.206 66.5964L577.868 49.8118L606.642 57.4848L633.017 45.0162L661.311 73.3102L659.315 183.607L622.467 220.055V236.36L606.642 274.245L558.206 266.572L562.504 206.14L525.117 236.36L492.027 226.769L454.142 253.624L414.367 266.572L398.927 236.36L377.413 246.91L353.435 226.769L329.936 236.36L295.888 274.245L259.553 266.572L250.373 238.689L222.515 236.36L192.303 280L149.389 266.572L132.838 220.055H77.6885L41.7216 236.36L0 186.006V89.6152Z" fill="#70D6D8"/>
</svg>
