<svg width="370" height="200" viewBox="0 0 370 200" fill="none" xmlns="http://www.w3.org/2000/svg">
<g clip-path="url(#clip0_1530_88)">
<rect width="370" height="200" fill="white"/>
<rect x="1" y="0.769531" width="368.22" height="198.073" fill="white" stroke="black" stroke-width="2"/>
<rect x="1" y="0.769531" width="368.22" height="35.6608" fill="#F92535" stroke="black" stroke-width="2"/>
<rect x="331.875" y="5.80859" width="26.0576" height="22.4866" fill="black" stroke="black" stroke-width="2"/>
<path d="M353.741 22.8125L351.226 25.28L345.699 19.6465L339.529 25.7L337.062 23.1851L343.232 17.1315L337.704 11.498L340.219 9.03047L345.747 14.664L351.38 9.13682L353.848 11.6518L348.214 17.179L353.741 22.8125Z" fill="white"/>
<rect x="26.2188" y="67.0117" width="87.3131" height="97.2368" rx="16.3664" fill="black" stroke="black" stroke-width="2"/>
<path d="M84.0523 101.749L80.6291 107.226L82.3407 101.065L79.9445 101.749L76.8636 100.38L74.8097 102.434L73.0981 97.9837L70.7019 100.38L65.9095 97.9837L63.8556 100.038L61.8017 97.9837L60.7747 104.488L58.7208 101.749L53.586 96.9568L50.5052 93.5336L45.7127 89.4258L45.0281 96.9568L47.4243 105.857L49.1359 109.28V110.307L45.0281 109.28V111.334H40.9203L43.3165 114.757H36.8125L41.6049 118.18L37.8395 122.631L45.0281 124.342L37.8395 128.108H45.7127L46.3974 135.981L50.5052 131.188L52.2168 137.693L54.9553 140.431V139.062L56.6669 136.666L60.0901 139.062L69.675 142.827L75.4943 141.116L80.9714 137.35L84.7369 139.062L86.1062 131.873L92.2679 136.666L88.1601 127.423L95.6911 131.188L90.8986 124.342L98.7719 120.234L89.8717 117.153L96.3757 113.046L90.5563 111.334L94.6641 104.488L95.6911 96.9568H92.2679L84.0523 101.749Z" fill="white" stroke="black" stroke-width="2"/>
<path d="M58.5102 78.2855L58.9556 79.6687L59.0899 79.7676L59.245 79.7699L59.3065 79.538L59.2621 78.5872L59.1357 76.6075L59.0143 75.6168L58.8753 74.5095L58.7615 74.3333L58.5134 74.0582L58.4403 73.7469L58.446 73.3592L58.5867 73.0122L58.9003 72.784L59.2122 72.6722L59.5805 72.6776L59.9278 72.7989L60.1765 73.0352L60.2877 73.3859L60.2239 73.7728C60.1837 73.8756 60.0638 74.1195 59.9064 74.2724C59.7491 74.4252 59.7487 74.4511 59.7682 74.4449L60.0885 75.0894L60.9339 76.9632L61.8395 78.7022L62.4076 79.6412L62.883 80.288L63.3803 80.7606L63.7248 81.0759L64.3418 81.3175L64.9998 81.4046L65.5061 81.2568L66.0363 80.7991L66.489 80.3403L66.8652 79.8028L67.4822 78.7065L68.5814 76.4536L69.1423 75.2207L68.852 75.1778L68.6028 74.9802L68.3968 74.4731L68.4828 73.8926L68.6239 73.5262L68.8793 73.2972L69.2302 73.1666L69.6761 73.173L70.1395 73.3155L70.4657 73.5529L70.5766 73.923L70.5702 74.3689L70.4485 74.7355L70.2507 75.0041L70.249 75.1205L70.5449 76.1137L70.841 77.0875L71.3082 78.2966L71.7196 79.3497L72.1334 80.2283L72.5116 80.8931C72.6313 81.1081 72.9356 81.6089 73.1952 81.8919C73.4548 82.1749 73.6861 82.3644 73.7692 82.4238L74.2109 82.7211L74.8085 82.9624L75.3497 83.0866L75.8554 82.9776L76.7756 82.3705L77.5593 81.8195L78.4025 81.1724L79.3454 80.3329L80.2693 79.4737L80.9189 78.8044L81.5691 78.0964L81.9245 77.6555L82.0428 77.5215L81.9293 77.3259C81.905 77.2157 81.857 76.9603 81.859 76.8208C81.8611 76.6812 81.9151 76.5178 81.9419 76.4535L82.1403 76.1461L82.3367 75.9745L82.6295 75.843L82.9984 75.8096L83.2875 75.9301L83.5943 76.1672L83.7469 76.344L83.839 76.675L83.834 77.0239C83.7999 77.1462 83.7119 77.4216 83.6325 77.5446C83.5532 77.6675 83.4292 77.7485 83.3771 77.7736L83.1234 77.8862L82.8506 77.9792L82.7517 78.1135L82.6901 78.3453L82.5957 79.5074L82.5819 80.4574L82.6449 81.4666L82.6968 81.894L82.8587 82.769L83.0598 83.6057L83.322 84.2494L83.5108 84.6012L83.8909 85.1303L84.236 85.4067L84.6779 85.6846L85.0452 85.7675L85.4534 85.6959L86.4073 85.4382L87.1898 84.9648L88.0912 84.3186L89.0535 83.4793L89.8023 82.6564L90.5888 81.9115L91.1771 81.4547L91.7096 80.8419L91.7141 80.5317L91.8155 80.2229L91.9734 80.0313L92.1701 79.8402L92.4626 79.7281L92.7728 79.7326L93.1201 79.854L93.407 80.1296L93.4615 80.3825L93.4564 80.7315L93.3156 81.0785L93.0403 81.3459L92.7475 81.4774L92.4946 81.5319L92.3007 81.5291L91.8248 82.2591C91.6788 82.522 91.2981 83.2753 90.9436 84.1854C90.5891 85.0956 90.5271 85.2718 90.5404 85.2461C90.454 85.4129 90.2046 85.9393 89.8987 86.7105C89.5927 87.4817 89.797 87.0322 89.9374 86.7111L90.5269 86.1767L91.4904 85.2599L92.0801 84.7061L92.5339 84.1697L92.7919 83.7662L92.7961 83.4754C92.7787 83.3394 92.7752 83.0408 92.9009 82.934C93.0265 82.8272 93.0973 82.7623 93.117 82.7432L93.4294 82.5926L93.759 82.5974L94.0863 82.7573L94.2588 82.8955L94.3723 83.0911L94.4271 83.3246L94.3631 83.7309L94.1852 83.961L94.0082 84.1329L93.6966 84.2254L93.2681 84.3549L93.0905 84.5656L92.2453 85.3484L91.476 86.2486C91.1471 86.6446 90.3546 87.6285 89.816 88.3963C89.2775 89.1642 89.2464 89.3447 89.2982 89.339L88.2614 91.3019L88.412 91.6143L88.7151 92.1035L88.7101 92.4524L88.5853 93.0324L88.3855 93.4367L88.0534 93.6064L87.7407 93.7764L87.5994 94.1621L87.3482 95.4383L87.7106 95.8508L87.8188 96.4147L87.6932 97.0528L87.3223 97.2219L86.7382 97.388L85.7674 97.4709L84.5232 97.6855L82.4294 97.6551L80.3958 97.4899L77.8808 97.085L75.4422 96.7587L72.6749 96.3696L70.1063 95.6536L67.9229 95.1178L66.4149 94.805L65.0429 94.4749L62.456 93.6811L60.8157 93.1337L59.1585 92.4116L57.9838 91.8516L57.3505 91.3965L57.1224 91.0829C57.0855 90.9531 57.0125 90.6353 57.0159 90.4027C57.0193 90.17 57.0997 89.9708 57.1395 89.9003L57.2778 89.7278L57.8049 89.4833L58.2339 89.315L58.4789 87.1274L58.2691 86.8916L58.0614 86.5008L58.0687 85.9967L58.2862 85.709L58.5028 85.4795L58.8729 85.3685L58.8929 83.992L58.9035 83.2553L58.7161 82.8066L58.5459 82.5133L58.3413 81.9092C58.3243 81.7473 58.2619 81.2371 58.1486 80.4908C58.0353 79.7445 57.9673 79.622 57.9474 79.6541L57.7614 79.1084C57.7257 78.9011 57.6361 78.3891 57.5642 78.0003C57.55 77.907 57.3968 77.5066 57.322 77.3181L57.156 76.7339L56.673 76.6106L56.3662 76.3734L56.1793 75.8859L56.1847 75.5176L56.3836 75.1714L56.6983 74.8657L57.0487 74.7739L57.4738 74.877L57.8182 75.1922L58.007 75.544L58.0017 75.9124L57.9 76.2405L57.8977 76.3956L58.5102 78.2855Z" fill="white" stroke="black" stroke-width="2"/>
<path d="M49.9201 150.715L49.0808 150.952C49.0281 150.812 48.9502 150.676 48.8473 150.544C48.747 150.41 48.6097 150.299 48.4355 150.212C48.2614 150.125 48.0383 150.081 47.7665 150.081C47.3944 150.081 47.0843 150.167 46.8362 150.339C46.5907 150.508 46.468 150.723 46.468 150.984C46.468 151.216 46.5525 151.4 46.7214 151.534C46.8903 151.669 47.1542 151.781 47.5131 151.871L48.4158 152.092C48.9594 152.224 49.3646 152.426 49.6311 152.698C49.8977 152.967 50.031 153.314 50.031 153.739C50.031 154.088 49.9307 154.399 49.7301 154.674C49.5321 154.948 49.255 155.164 48.8987 155.323C48.5424 155.481 48.1281 155.56 47.6557 155.56C47.0354 155.56 46.5221 155.426 46.1157 155.156C45.7092 154.887 45.4519 154.494 45.3437 153.977L46.2305 153.755C46.3149 154.082 46.4746 154.328 46.7095 154.491C46.947 154.655 47.2571 154.737 47.6398 154.737C48.0753 154.737 48.421 154.644 48.677 154.46C48.9357 154.272 49.065 154.048 49.065 153.787C49.065 153.576 48.9911 153.399 48.8433 153.256C48.6955 153.111 48.4685 153.003 48.1624 152.932L47.1489 152.694C46.5921 152.562 46.183 152.358 45.9217 152.08C45.6631 151.801 45.5337 151.451 45.5337 151.031C45.5337 150.688 45.6301 150.385 45.8227 150.121C46.018 149.857 46.2833 149.65 46.6185 149.499C46.9563 149.349 47.339 149.274 47.7665 149.274C48.3682 149.274 48.8407 149.406 49.1838 149.67C49.5295 149.933 49.7749 150.282 49.9201 150.715ZM52.3716 151.776V155.434H51.4373V147.326H52.3716V150.303H52.4508C52.5933 149.989 52.8071 149.74 53.0921 149.555C53.3798 149.367 53.7625 149.274 54.2402 149.274C54.6545 149.274 55.0174 149.357 55.3288 149.523C55.6403 149.687 55.8817 149.939 56.0533 150.279C56.2275 150.617 56.3146 151.047 56.3146 151.57V155.434H55.3803V151.633C55.3803 151.15 55.2549 150.777 55.0042 150.513C54.7561 150.246 54.4117 150.113 53.971 150.113C53.6648 150.113 53.3903 150.178 53.1475 150.307C52.9074 150.436 52.7173 150.625 52.5775 150.873C52.4402 151.121 52.3716 151.422 52.3716 151.776ZM60.4941 155.56C59.9451 155.56 59.4635 155.43 59.0491 155.168C58.6374 154.907 58.3154 154.542 58.0832 154.072C57.8536 153.602 57.7388 153.053 57.7388 152.425C57.7388 151.791 57.8536 151.239 58.0832 150.766C58.3154 150.294 58.6374 149.927 59.0491 149.666C59.4635 149.404 59.9451 149.274 60.4941 149.274C61.043 149.274 61.5234 149.404 61.9351 149.666C62.3495 149.927 62.6714 150.294 62.901 150.766C63.1333 151.239 63.2494 151.791 63.2494 152.425C63.2494 153.053 63.1333 153.602 62.901 154.072C62.6714 154.542 62.3495 154.907 61.9351 155.168C61.5234 155.43 61.043 155.56 60.4941 155.56ZM60.4941 154.721C60.9111 154.721 61.2542 154.614 61.5234 154.4C61.7926 154.187 61.9918 153.905 62.1212 153.557C62.2505 153.209 62.3151 152.831 62.3151 152.425C62.3151 152.018 62.2505 151.64 62.1212 151.289C61.9918 150.938 61.7926 150.654 61.5234 150.438C61.2542 150.221 60.9111 150.113 60.4941 150.113C60.0771 150.113 59.734 150.221 59.4648 150.438C59.1956 150.654 58.9963 150.938 58.867 151.289C58.7377 151.64 58.673 152.018 58.673 152.425C58.673 152.831 58.7377 153.209 58.867 153.557C58.9963 153.905 59.1956 154.187 59.4648 154.4C59.734 154.614 60.0771 154.721 60.4941 154.721ZM64.6756 157.714V149.353H65.5782V150.319H65.689C65.7577 150.213 65.8527 150.079 65.9741 149.915C66.0981 149.749 66.2749 149.601 66.5046 149.472C66.7368 149.34 67.0509 149.274 67.4468 149.274C67.9588 149.274 68.4101 149.402 68.8007 149.658C69.1913 149.914 69.4961 150.277 69.7152 150.746C69.9342 151.216 70.0437 151.77 70.0437 152.409C70.0437 153.053 69.9342 153.611 69.7152 154.084C69.4961 154.553 69.1926 154.918 68.8046 155.176C68.4167 155.432 67.9693 155.56 67.4626 155.56C67.072 155.56 66.7592 155.496 66.5244 155.366C66.2895 155.234 66.1087 155.085 65.982 154.919C65.8553 154.75 65.7577 154.61 65.689 154.499H65.6099V157.714H64.6756ZM65.594 152.393C65.594 152.852 65.6613 153.258 65.7959 153.609C65.9305 153.957 66.1272 154.23 66.3858 154.428C66.6444 154.623 66.9611 154.721 67.3359 154.721C67.7265 154.721 68.0525 154.618 68.3137 154.412C68.5777 154.204 68.7756 153.924 68.9076 153.573C69.0422 153.219 69.1095 152.826 69.1095 152.393C69.1095 151.966 69.0435 151.58 68.9115 151.237C68.7822 150.892 68.5856 150.618 68.3217 150.418C68.0604 150.215 67.7318 150.113 67.3359 150.113C66.9559 150.113 66.6365 150.209 66.3779 150.402C66.1192 150.592 65.9239 150.859 65.792 151.202C65.66 151.542 65.594 151.939 65.594 152.393ZM77.2329 155.544C76.6365 155.544 76.1284 155.382 75.7088 155.058C75.2892 154.73 74.9685 154.257 74.7468 153.636C74.5251 153.013 74.4143 152.261 74.4143 151.38C74.4143 150.504 74.5251 149.755 74.7468 149.135C74.9711 148.512 75.2931 148.037 75.7128 147.71C76.135 147.38 76.6418 147.215 77.2329 147.215C77.8241 147.215 78.3295 147.38 78.7492 147.71C79.1714 148.037 79.4934 148.512 79.7151 149.135C79.9394 149.755 80.0516 150.504 80.0516 151.38C80.0516 152.261 79.9408 153.013 79.7191 153.636C79.4974 154.257 79.1767 154.73 78.7571 155.058C78.3374 155.382 77.8294 155.544 77.2329 155.544ZM77.2329 154.674C77.8241 154.674 78.2833 154.388 78.6106 153.818C78.9379 153.248 79.1015 152.435 79.1015 151.38C79.1015 150.678 79.0263 150.08 78.8758 149.586C78.728 149.093 78.5143 148.717 78.2345 148.458C77.9574 148.2 77.6235 148.07 77.2329 148.07C76.647 148.07 76.1891 148.359 75.8592 148.937C75.5293 149.513 75.3644 150.327 75.3644 151.38C75.3644 152.082 75.4383 152.678 75.5861 153.169C75.7339 153.66 75.9463 154.033 76.2234 154.289C76.5032 154.546 76.8397 154.674 77.2329 154.674ZM81.3659 153.771V152.963L84.9289 147.326H85.5148V148.577H85.1189L82.4269 152.837V152.9H87.225V153.771H81.3659ZM85.1822 155.434V153.525V153.149V147.326H86.1165V155.434H85.1822ZM88.5185 153.771V152.963L92.0815 147.326H92.6674V148.577H92.2715L89.5795 152.837V152.9H94.3776V153.771H88.5185ZM92.3348 155.434V153.525V153.149V147.326H93.2691V155.434H92.3348Z" fill="#FAFAFA"/>
<path d="M53.2651 113.555H56.5655L59.4445 114.397L62.0427 116.012L63.096 118.049L63.8685 121.349L62.0427 121.981H58.7423L55.4419 121.349L53.6864 119.664L52.8438 116.785L53.2651 113.555Z" fill="black"/>
<path d="M75.2443 121.349L76.0869 118.681L77.4211 116.364L80.1597 114.819L83.2495 115.17L84.8646 115.591L84.5135 118.4L83.9517 119.664L82.6175 121.349L80.1597 121.981H77.4211C77.1402 121.981 75.8529 122.168 75.2443 122.262V121.349Z" fill="black"/>
<path d="M80.1597 121.981L82.6175 121.349L83.9517 119.664L84.5135 118.4L84.8646 115.591L83.2495 115.17L80.1597 114.819L77.4211 116.364L76.0869 118.681L75.2443 121.349V122.262C75.8529 122.168 77.1402 121.981 77.4211 121.981M80.1597 121.981C79.3639 121.981 77.702 121.981 77.4211 121.981M80.1597 121.981H77.4211M53.2651 113.555H56.5655L59.4445 114.397L62.0427 116.012L63.096 118.049L63.8685 121.349L62.0427 121.981H58.7423L55.4419 121.349L53.6864 119.664L52.8438 116.785L53.2651 113.555Z" stroke="black" stroke-width="2"/>
</g>
<defs>
<clipPath id="clip0_1530_88">
<rect width="370" height="200" fill="white"/>
</clipPath>
</defs>
</svg>
