<svg width="1265" height="183" viewBox="0 0 1265 183" fill="none" xmlns="http://www.w3.org/2000/svg">
<path d="M19.1663 47.3167V23.9578L29.3484 11.38L67.0819 8.98419L105.414 14.3747L100.024 40.7283V64.0872L120.987 44.322L138.357 59.2956L146.742 49.1136L162.913 57.4988L175.491 50.9104L188.069 60.4935L202.444 50.9104L213.225 64.0872L228.198 47.3167L245.568 59.2956L256.349 47.3167L277.312 64.0872L286.895 50.9104L305.462 60.4935L325.827 50.9104L333.014 64.0872L346.79 53.3062L361.763 62.8893L371.945 53.3062L391.112 64.0872L401.294 53.3062H436.033L452.803 68.8788L471.37 50.9104L499.521 73.0714H515.693V38.3325L555.223 7.18735L582.175 25.7547L583.373 68.8788L599.545 50.9104L626.497 68.8788L639.075 54.5041L664.83 53.3062L682.199 64.6862L692.98 54.5041L705.558 62.8893L718.735 50.9104L736.704 62.8893L751.677 54.5041L767.849 62.8893L778.031 54.5041L797.796 66.483L816.962 50.9104L842.118 66.483L861.284 49.1136L864.279 34.1399L898.419 7.18735L916.387 16.1715L936.153 34.1399L924.174 47.3167L957.715 44.322L984.667 57.4988L1023 50.9104L1032.58 59.2956L1039.17 50.9104V34.1399L1052.95 23.3589L1079.3 4.79157L1093.08 16.1715L1103.86 7.18735L1121.23 16.1715L1142.79 0L1171.54 40.7283L1205.68 66.483L1233.83 44.322L1264.38 68.8788V126.378L1228.44 155.726L1196.1 157.523L1167.94 137.159L1136.8 151.533L1120.03 142.549L1095.47 164.111L1086.49 144.945L1066.12 142.549L1048.16 147.94L1039.17 164.111L1024.2 153.33L1002.64 169.502L984.667 159.919L974.485 156.325L957.116 147.94L937.35 146.742L921.179 149.138L911.596 137.159L897.221 156.924L890.034 150.335L876.857 146.742L864.279 156.325L846.91 138.955L831.936 151.533L812.171 152.132L795.4 140.153L787.015 151.533L770.245 141.351L758.865 151.533L739.099 137.758L725.324 151.533L709.751 141.351L697.173 151.533L676.809 135.961L662.434 149.138L660.038 173.694L649.856 177.887L631.888 174.293V135.961L614.519 153.929L598.347 150.335L586.368 142.549L585.17 159.919H568.4L559.416 142.549L534.859 143.747L524.078 159.919L510.302 161.715L495.328 150.335L471.37 152.731L451.605 140.153L440.225 155.726L424.054 144.945L413.872 155.726L390.513 139.554L376.737 154.528L363.56 141.95L352.18 153.33L334.212 138.955L318.639 151.533L304.265 143.747L282.104 153.33L257.547 182.678L228.198 179.684L215.621 167.705L221.61 142.549L221.011 132.966L209.631 141.95L198.251 150.335L190.465 144.945L183.277 153.33L169.502 144.945L162.913 153.33L137.159 134.763L119.19 155.726L94.6335 138.955L79.0609 155.726L63.4883 144.945L53.3062 146.143L44.9209 157.523L19.1663 159.919L0 138.955L22.7599 100.024L11.9789 70.0767L19.1663 47.3167Z" fill="white"/>
</svg>
