<svg width="264" height="346" viewBox="0 0 264 346" fill="none" xmlns="http://www.w3.org/2000/svg">
<g clip-path="url(#clip0_1920_292)">
<path d="M211.372 255.52L206.743 244.248L206.944 260.775L200.638 270.524L188.254 277.328L185.392 287.094L195.508 301.268L186.131 313.996L166.501 319.194C163.624 323.812 157.577 333.168 156.401 333.651L133.857 342.909L116.477 330.573L120.372 310.073L136.06 298.762L141.517 287.644L144.839 263.656L138.065 265.292L128.508 269.217L112.611 273.741L100.451 272.721L93.4587 261.274L84.8866 259.926L71.8299 246.96L68.7808 225.588L75.4983 207.079L81.7081 192.215C85.6537 189.735 93.3926 184.266 92.7836 182.226C92.1745 180.185 95.3218 174.692 96.9716 172.201L102.258 158.575L108.091 161.621L113.122 173.873L120.99 173.506L127.221 166.365L138.852 163.307L136.932 152.354L129.695 141.007L117.281 133.791L102.675 128.907L91.6661 113.955L84.8231 97.2918L82.9424 74.5815L87.2925 60.7674L83.3678 51.2106L68.499 49.871L58.3208 55.7691C57.832 59.6927 57.0557 68.03 57.8608 69.9903C58.6658 71.9507 66.9499 88.4039 70.9913 96.3854L74.5128 120.999L64.8593 135.846L47.216 143.091L30.5881 143.047L17.8901 131.652L3.98912 112.446L18.3639 102.82L27.6449 101.013L30.8089 91.9818L25.9786 80.2196L19.6387 64.7817L18.716 49.9828L21.8892 31.2109L43.3879 15.2228L73.0385 3.04624L95.2234 8.25428L111.344 11.9437L118.818 0.855809L156.668 3.06707L182.121 10.6556L195.419 28.3911L198.945 48.1347C199.422 51.8526 200.476 59.5336 200.878 60.5138L205.306 71.2958C206.031 73.0601 213.977 79.858 217.86 83.0365L220.178 99.8395L215.784 114.244L211.99 118.952L217.022 131.205L224.29 140.534L236.984 140.762C239.916 143.949 245.911 150.785 246.439 152.63C246.968 154.474 246.274 165.012 245.861 170.049L241.682 186.371L248.022 201.809L253.057 225.228L252.588 249.19L234.945 256.435L221.283 258.036L211.372 255.52Z" fill="white"/>
<path d="M132.398 173.011L125.507 182.768L119.289 178.395L120.839 186.399L114.996 184.094L113.976 191.707L110.742 181.137L103.166 168.753L98.3491 198.125L89.3179 194.639L93.6389 202.826L84.168 206.715L88.6579 214.279L82.5018 216.808L85.0299 222.964L76.8167 220.482L83.3637 233.056L70.8065 232.125L84.0273 238.041L77.5625 243.186L83.8707 241.702L83.8995 245.287L89.5473 255.525L87.7519 245.089L94.6309 243.647L100.985 252.383L98.9477 242.705L103.459 242.236L113.809 235.771L119.254 232.152L120.518 235.23L118.477 247.136L112.841 251.919L106.668 250.049L108.952 255.61L103.269 257.944L100.216 254.636L99.9543 259.305L102.996 264.016L107.927 264.569L113.086 269.054L111.046 260.71L121.612 265.553L119.292 259.902L126.626 260.917L123.719 253.838L133.264 258.191L128.326 250.232L137.95 258.844L132.629 245.887L144.576 256.123L141.349 248.266L146.445 248.751L150.35 258.261L151.509 250.698L153.762 262.337L151.052 278.431L147.528 292.926L146.578 303.303L136.389 309.259L129.955 310.13L125.763 316.845L124.084 329.293L132.556 333.385L149.666 328.13L154.879 318.902L170.275 306.78L177.844 303.672L180.844 310.977L179.871 302.84L173.565 299.791L182.304 301.841L184.871 300.786L181.058 298.808L176.984 295.81L180.23 289.483L174.957 296.642L170.905 293.313L172.739 285.472L180.101 274.556L185.17 266.514L188.623 263.002L193.819 262.962L198.076 267.174L195.246 260.282L191.159 256.484L199.454 256.299L204.826 260.536L198.321 253.542L189.064 251.384L193.906 242.791L204.847 241.358L195.43 237.655L189.317 241.615L198.135 231.55L205.099 224.663L196.72 228.104L194.625 223.004L202.099 217.358L206.363 213.513L212.648 204.972L215.081 203.973L218.817 213.07L222.326 221.616L220.53 231.857L215.93 236.807L211.566 248.103L216.929 253.471L224.828 252.322L232.403 253.077L243.215 248.637L245.269 237.484L245.527 224.652L243.004 213.124L235.637 184.416L235.676 174.896L240.788 166.192L234.6 172.277L237.618 158.473L232.393 166.902L234.645 159.694L231.392 143.311L232.483 160.582L229.368 164.922L228.147 156.564L220.651 143.695L223.919 155.884L223.022 164.468L217.564 156.561L217.012 162.909L212.834 158.503L214.362 143.378L208.758 148.579L212.527 132.373L207.502 139.752L207.116 125.735L204.276 131.895L198.852 124.458L195.173 115.498L202.45 119.758L209.977 112.318L211.607 103.595L212.657 92.6928L205.749 80.8711C204.706 79.0984 201.959 75.1791 199.323 73.6841C196.688 72.1891 192.255 62.6262 190.368 58.0317L190.508 47.9872L187.394 40.4062L181.791 26.7603L184.85 17.2886L176.5 24.2616L173.172 10.0033L172.165 20.2429L163.182 7.98459L168.092 24.1707L164.086 34.0309L158.256 19.8337L152.425 5.63649L154.927 17.496L153.496 30.1648L138.621 6.63429L142.966 28.368L133.585 20.1393L129.566 10.3528L130.795 29.5L127.908 22.4703L122.316 2.69863L123.969 19.4166L125.795 31.5535L117.416 34.9946L106.05 20.01L112.956 36.8261L98.1824 19.6971L101.054 30.9211L85.3187 11.4489L91.3188 26.0596L76.8794 12.8205L81.1248 23.1583L69.096 9.25141L69.9627 20.9767L60.7169 12.6925L62.2593 24.1403L42.4719 20.1851L51.1772 28.6913L33.6922 32.6502L43.1482 38.7541L25.1467 37.6093L36.4488 48.593L24.5558 53.477L35.3923 62.5578L31.2054 78.1304L39.6377 72.8956L36.2433 90.3979L43.9397 83.3712L39.1302 97.4276L50.6757 99.7738L38.6475 104.713L47.1115 116.863L29.812 105.12L38.5441 122.153L21.1625 108.672L26.4268 121.491L11.0264 112.835L27.2773 130.485L39.7447 137.768L50.9309 134.624L59.7396 125.691L65.1187 114.944L63.538 101.096L58.7266 89.3799L52.8397 75.0449L47.3674 59.4119L48.0163 50.6081L57.3436 41.784L69.4758 38.2515L83.9854 40.5081L95.3936 47.9043L101.223 55.1756L100.431 60.1718L96.3841 65.7L92.3784 75.5602L92.3012 82.6796L92.1894 89.3299L97.2839 101.735L103.452 109.833L108.038 120.998L117.55 127.24L129.979 132.123L137.735 139.086L143.577 147.157L146.735 161.002L144.697 167.96L132.398 173.011Z" fill="#FDABCA" stroke="black" stroke-width="1.5"/>
</g>
<defs>
<clipPath id="clip0_1920_292">
<rect width="264" height="346" fill="white"/>
</clipPath>
</defs>
</svg>
