<svg width="224" height="228" viewBox="0 0 224 228" fill="none" xmlns="http://www.w3.org/2000/svg">
<g clip-path="url(#clip0_1920_293)">
<path d="M8.62009 99.3299L15.5294 90.1865L12.5252 68.3694L24.9322 67.6052L43.9503 73.0762L43.3899 63.9777L8.68182 59.8882L12.1928 36.0093L57.1248 24.109L76.3078 18.7763L105.422 6.18968L156.418 5.12467L186.158 16.1623L199.527 37.7563L191.86 54.8339L183.851 79.8201C185.168 80.9844 188.304 83.3652 190.309 83.5738C192.315 83.7824 196.719 93.2806 198.671 98.0037L195.732 117.696L190.884 133.355L208.821 134.741L215.114 149.298L203.357 174.1L194.73 195.803L177.125 199.793L168.135 195.365L167.447 184.199L175.19 168.362L162.783 169.126L155.74 182.845L131.925 193.859L116.884 192.295C115.647 187.943 113.728 178.79 115.942 176.993C118.156 175.196 119.82 165.822 120.376 161.36L114.617 155.487L103.833 162.379L100.226 177.961L83.8945 202.629L65.0111 219.567L48.7741 225.549L34.4072 221.452L36.3792 213.028L39.7507 200.366L28.8901 206.017L11.9908 201.246L6.15597 194.133L19.4531 180.86L33.8321 171.671L44.7243 159.792L38.3995 151.464L29.3895 139.979L28.6509 127.986L15.8109 121.72L9.25685 109.669L8.62009 99.3299Z" fill="#FFFEFE"/>
<path d="M29.8346 79.8595L36.5299 85.431L37.9975 88.3326L38.1791 80.8185L40.6301 83.2453L42.5813 80.5474L47.8753 82.7991L50.652 80.0504L52.8547 84.4256L55.304 82.3415L58.7651 83.2331L61.6717 82.5938L59.1831 90.0198L62.9839 82.9733L72.0222 77.2613L76.241 77.0015L75.4823 85.6098L70.3836 95.498L73.005 93.2192L76.8284 86.5395L78.7175 82.8328L80.343 85.3104L81.744 82.6464L83.5906 75.26L84.5386 72.716L89.3558 76.1938L91.6922 72.2754L95.2786 67.7277L96.7405 64.0473L98.112 71.88L97.9934 69.9541L103.598 65.2821L106.432 61.9775L107.898 69.3441L108.618 66.0777L115.289 60.7876L119.768 57.2897L118.73 64.3502L123.726 60.268L129.871 59.8896L133.432 57.9211L133.669 61.773L139.225 59.3135L143.888 55.8042L143.391 61.1743L145.263 57.1925L152.875 56.7237L153.214 62.2264L158.302 58.1386L158.652 63.8248L162.385 61.6616L166.265 55.899L168.655 49.86L165.485 43.2428L157.076 38.2371L148.137 35.1052L140.04 33.6706L127.035 33.2748L118.396 35.0036L108.625 39.2878L103.515 43.0087L96.5305 46.2006L87.763 50.3309L77.0343 55.5026L68.1751 59.6386L62.3972 59.9944L52.4019 59.137L46.3107 57.3948L37.2678 55.5582L30.7181 53.8442L25.5948 52.8708L19.9087 53.221L13.122 53.639C14.0532 52.8145 16.3007 51.1417 17.8415 51.0468C19.3823 50.9519 21.7936 49.9442 22.8066 49.4522L30.3283 47.516L38.399 47.019L31.1126 42.3124L27.6428 38.2913L38.9234 37.5966C39.8039 37.5423 45.5165 40.0137 48.2627 41.2561L54.6307 47.4923L51.2892 41.0697L50.7696 32.6322L55.8902 36.5516L62.7533 40.3637L66.0044 45.3188L65.7954 41.9255L65.3096 34.0383L72.5396 37.8277L77.5189 39.4543L76.9993 31.0168L78.2025 25.1429L80.8512 30.7796L84.5692 32.8521L92.2577 36.6134L90.4656 34.4222L86.43 28.6869L84.0721 24.7815L89.85 24.4256L98.876 25.9871L105.323 27.5233L105.142 24.5885L104.447 13.308L107.303 17.8271L112.871 21.5349L117.639 22.7142L115.544 12.6245L117.181 15.2855L122.161 16.9121L127.312 18.344L131.28 22.9788L131.122 20.4109L134.987 11.4271L139.192 19.9138L142.953 19.6822L146.501 24.9873L147.171 19.4224L150.198 13.2521L155.974 20.3532L158.256 26.0125L161.477 20.0143L161.138 14.5116L165.788 19.7489L167.231 26.7486L178.326 23.0273L176.385 33.3655L184.719 26.6842L181.23 43.2857L189.16 40.4959L181.806 52.6404L189.877 52.1433C186.325 54.2647 178.971 58.6148 177.966 59.0449C176.962 59.475 183.503 61.2509 186.899 62.0851L173.656 65.2943L179.967 70.6133L171.529 72.606L174.255 75.0158L169.212 79.8373L176.587 81.5004L172.325 85.5374C173.893 86.5762 177.361 88.6887 178.696 88.8274C180.03 88.9662 179.477 92.5537 179.034 94.3302L188.848 93.7258L184.93 103.357L189.644 106.657L185.291 109.227L190.755 114.23L183.968 114.648L191.263 122.484L183.113 121.697L186.494 128.761L182.366 130.489L184.006 136.187L185.459 138.86L190.133 142.991L194.115 137.406L195.638 145.69L201.968 137.843L200.656 143.447L198.384 151.412L201.232 152.802L207.416 147.082L205.721 150.961L201.48 156.837L196.536 160.272L194.938 165.71L191.951 172.522L189.759 181.771L187.333 190.206L180.073 193.415L174.222 192.578L176.079 186.848L179.164 178.649L182.032 169.911L181.304 158.08L179.57 161.317L176.561 154.321L172.245 160.479L167.898 151.173L166.559 160.829L162.066 153.649L158.495 147.977L156.934 153.275L159.436 152.798L158.192 159.503L164.52 159.114C162.624 160.703 158.282 163.954 156.09 164.236C153.898 164.518 151.116 167.181 149.999 168.478L144.968 173.482L137.343 181.225C135.399 183.032 131.308 186.66 130.5 186.709L126.282 186.969C124.814 187.06 123.072 187.167 121.709 185.962C120.618 184.998 118.451 183.892 117.504 183.459L121.342 180.001L128.564 173.204L136.282 163.983L138.841 160.695L138.434 154.092L134.649 156.903L126.038 159.09C128.065 156.633 132.198 151.493 132.511 150.59C132.823 149.687 131.141 148.772 130.26 148.427L125.608 152.12L128.004 146.173C127.1 146.443 124.829 147.234 122.975 148.232C121.122 149.229 122.668 146.225 123.672 144.598L121.376 135.718L116.795 137.565C117.795 136.368 120.076 133.736 121.195 132.783C122.315 131.83 126.075 128.309 127.815 126.668L125.706 126.798L119.468 128.655L125.429 122.304L128.3 116.603L125.09 116.801L120.32 118.568L123.349 115.435L127.973 111.284L132.61 104.37L136.126 101.668L127.334 100.92L121.085 102.594L117.009 109.658L117.676 120.48L118.094 127.266L114.409 133.201L112.118 137.853L112.575 145.282L108.421 143.604L106.965 149.862L102.823 148.368L100.571 153.662L92.0418 154.187L97.1484 160.869L92.4711 161.157L93.1376 171.979L89.4309 170.09L89.8489 176.877L85.9179 175.83L86.3076 182.158L81.3452 180.807L81.9721 190.987L76.1278 188.769L79.2068 193.919L70.6098 193.344L71.1238 201.69L66.0796 202L61.4505 206.06L55.845 212.205L50.0109 217.627L43.4754 219.135L38.6795 217.497L41.6296 213.08L46.5931 206.975L51.5114 200.136L57.5767 192.489L60.2135 185.975L66.136 171.525L62.7021 178.549L58.8757 182.191L59.1129 186.043L52.089 182.609L49.3479 190.419L44.7763 187.938L37.1375 192.459L24.8454 196.162L18.2422 196.569L12.3753 193.984L13.5802 192.621L20.1353 188.443L27.9687 184.094L36.0138 180.193L44.4919 172.858L51.0723 166.101L55.5885 160.207L57.2829 156.328L48.9471 158.498L51.6653 144.338L44.9679 153.68L47.9191 141.807L39.2054 149.8L40.1335 143.943L39.6647 136.331L30.7686 136.879L38.2113 133.659L41.6961 127.46L35.0277 123.821C34.238 124.452 32.7446 125.913 33.0877 126.702C33.4309 127.491 31.2328 126.478 30.0908 125.874L28.1885 118.902L24.207 123.014L22.4542 115.481L13.283 116.046C16.0338 114.373 21.446 111.069 21.0882 111.238C20.6409 111.45 12.9272 110.268 12.865 109.259C12.8153 108.452 16.0762 105.594 17.7128 104.265L12.368 101.188L16.0365 100.962L18.9713 100.782L15.7766 96.7437L18.7114 96.563L21.2794 96.4048L20.451 93.4178C22.202 94.4454 25.6804 96.1153 25.5855 94.5746C25.5223 93.5474 23.2808 91.0341 22.168 89.9059L19.196 80.5147L19.7995 72.3762C21.0615 73.4339 23.7617 75.7226 24.4672 76.4156C25.1727 77.1086 28.3395 79.0003 29.8346 79.8595Z" fill="#F92535"/>
<path d="M39.465 91.2342L37.9975 88.3326M156.934 153.275L159.436 152.798L158.192 159.503L164.52 159.114C162.624 160.703 158.282 163.954 156.09 164.236C153.898 164.518 151.116 167.181 149.999 168.478L144.968 173.482L137.343 181.225C135.399 183.032 131.308 186.66 130.5 186.709C129.492 186.772 127.749 186.879 126.282 186.969C124.814 187.06 123.072 187.167 121.709 185.962C120.618 184.998 118.451 183.892 117.504 183.459L121.342 180.001L128.564 173.204L136.282 163.983L138.841 160.695L138.434 154.092L134.649 156.903L126.038 159.09C128.065 156.633 132.198 151.493 132.511 150.59C132.823 149.687 131.141 148.772 130.26 148.427L125.608 152.12L128.004 146.173C127.1 146.443 124.829 147.234 122.975 148.232C121.122 149.229 122.668 146.225 123.672 144.598L121.376 135.718L116.795 137.565C117.795 136.368 120.076 133.736 121.195 132.783C122.315 131.83 126.075 128.309 127.815 126.668L125.706 126.798L119.468 128.655L125.429 122.304L128.3 116.603L125.09 116.801L120.32 118.568L123.349 115.435L127.973 111.284L132.61 104.37L136.126 101.668L127.334 100.92L121.085 102.594L117.009 109.658C117.196 112.684 117.59 119.086 117.676 120.48C117.762 121.874 117.99 125.585 118.094 127.266L114.409 133.201L112.118 137.853L112.575 145.282L108.421 143.604L106.965 149.862L102.823 148.368L100.571 153.662L92.0418 154.187L97.1484 160.869L92.4711 161.157L93.1376 171.979L89.4309 170.09L89.8489 176.877L85.9179 175.83L86.3076 182.158L81.3452 180.807L81.9721 190.987L76.1278 188.769L79.2068 193.919L70.6098 193.344L71.1238 201.69L66.0796 202L61.4505 206.06L55.845 212.205L50.0109 217.627L43.4754 219.135L38.6795 217.497L41.6296 213.08L46.5931 206.975L51.5114 200.136L57.5767 192.489L60.2135 185.975L66.136 171.525L62.7021 178.549L58.8757 182.191L59.1129 186.043L52.089 182.609L49.3479 190.419L44.7763 187.938L37.1375 192.459L24.8454 196.162L18.2422 196.569L12.3753 193.984L13.5802 192.621L20.1353 188.443L27.9687 184.094L36.0138 180.193L44.4919 172.858L51.0723 166.101L55.5885 160.207L57.2829 156.328L48.9471 158.498L51.6653 144.338L44.9679 153.68L47.9191 141.807L39.2054 149.8L40.1335 143.943L39.6647 136.331L30.7686 136.879L38.2113 133.659L41.6961 127.46L35.0277 123.821C34.238 124.452 32.7446 125.913 33.0877 126.702C33.4309 127.491 31.2328 126.478 30.0908 125.874L28.1885 118.902L24.207 123.014L22.4542 115.481L13.283 116.046C16.0338 114.373 21.446 111.069 21.0882 111.238C20.6409 111.45 12.9272 110.268 12.865 109.259C12.8153 108.452 16.0762 105.594 17.7128 104.265L12.368 101.188L16.0365 100.962L18.9713 100.782L15.7766 96.7437L18.7114 96.563L21.2794 96.4048L20.451 93.4178C22.202 94.4454 25.6804 96.1153 25.5855 94.5746C25.5223 93.5474 23.2808 91.0341 22.168 89.9059L19.196 80.5147L19.7995 72.3762C21.0615 73.4339 23.7617 75.7226 24.4672 76.4156C25.1727 77.1086 28.3395 79.0003 29.8346 79.8595L36.5299 85.431L37.9975 88.3326M156.934 153.275L154.432 153.751L153.867 144.58L156.934 153.275ZM156.934 153.275L158.495 147.977L162.066 153.649L166.559 160.829L167.898 151.173L172.245 160.479L176.561 154.321L179.57 161.317L181.304 158.08L182.032 169.911L179.164 178.649L176.079 186.848L174.222 192.578L180.073 193.415L187.333 190.206L189.759 181.771L191.951 172.522L194.938 165.71L196.536 160.272L201.48 156.837L205.721 150.961L207.416 147.082L201.232 152.802L198.384 151.412L200.656 143.447L201.968 137.843L195.638 145.69L194.115 137.406L190.133 142.991L185.459 138.86L184.006 136.187L182.366 130.489L186.494 128.761L183.113 121.697L191.263 122.484L183.968 114.648L190.755 114.23L185.291 109.227L189.644 106.657L184.93 103.357L188.848 93.7258L179.034 94.3302C179.477 92.5537 180.03 88.9662 178.696 88.8274C177.361 88.6887 173.893 86.5762 172.325 85.5374L176.587 81.5004L169.212 79.8372L174.255 75.0158L171.529 72.606L179.967 70.6133L173.656 65.2943L186.899 62.0851C183.503 61.2509 176.962 59.475 177.966 59.0449C178.971 58.6148 186.325 54.2647 189.877 52.1433L181.806 52.6404L189.16 40.4959L181.23 43.2858L184.719 26.6842L176.385 33.3655L178.326 23.0273L167.231 26.7486L165.788 19.7489L161.138 14.5116L161.477 20.0143L158.256 26.0125L155.974 20.3532L150.198 13.2521L147.171 19.4224L146.501 24.9873L142.953 19.6822L139.192 19.9138L134.987 11.4271L131.122 20.4109L131.28 22.9788L127.312 18.344L122.161 16.9121L117.181 15.2855L115.544 12.6245L117.639 22.7142L112.871 21.5349L107.303 17.8271L104.447 13.308L105.142 24.5885L105.323 27.5233L98.876 25.9871L89.85 24.4256L84.0721 24.7815L86.43 28.6869L90.4656 34.4222L92.2577 36.6134L84.5692 32.8521L80.8512 30.7796L78.2025 25.1429L76.9993 31.0168L77.5189 39.4543L72.5396 37.8277L65.3096 34.0383L65.7954 41.9255L66.0043 45.3188L62.7533 40.3637L55.8902 36.5516L50.7696 32.6322L51.2892 41.0697L54.6307 47.4923L48.2627 41.2561C45.5165 40.0137 39.8039 37.5423 38.9234 37.5966C38.043 37.6508 31.0362 38.0823 27.6428 38.2913L31.1126 42.3124L38.399 47.019L30.3283 47.516L22.8066 49.4522C21.7936 49.9442 19.3823 50.9519 17.8415 51.0468C16.3007 51.1417 14.0532 52.8145 13.122 53.639L19.9087 53.221L25.5948 52.8708L30.7181 53.8442L37.2678 55.5582L46.3107 57.3948L52.4019 59.137L62.3972 59.9944L68.1751 59.6386L77.0343 55.5026L87.763 50.3309L96.5305 46.2006L103.515 43.0087L108.625 39.2878L118.396 35.0036L127.035 33.2748L140.04 33.6706L148.137 35.1052L157.076 38.2371L165.485 43.2428L168.655 49.86L166.265 55.899L162.385 61.6616L158.652 63.8248L158.302 58.1386L153.214 62.2264L152.875 56.7237L145.263 57.1925L143.391 61.1743L143.888 55.8042L139.225 59.3135L133.669 61.773L133.432 57.9211L129.871 59.8896L123.726 60.268L118.73 64.3502L119.768 57.2897L115.289 60.7876L108.618 66.0777L107.898 69.3441L106.432 61.9775L103.598 65.2821L97.9934 69.9541L98.112 71.88L96.7405 64.0473L95.2786 67.7277L91.6922 72.2754L89.3558 76.1938L84.5386 72.716L83.5906 75.26L81.744 82.6464L80.343 85.3104L78.7175 82.8328L76.8284 86.5395L73.005 93.2192L70.3836 95.498L75.4823 85.6098L76.241 77.0015L72.0222 77.2613L62.9839 82.9733L59.1831 90.0198L61.6717 82.5938L58.7651 83.2331L55.304 82.3415L52.8547 84.4256L50.652 80.0504L47.8753 82.7991L42.5813 80.5474L40.6301 83.2453L38.1791 80.8185L37.9975 88.3326" stroke="black" stroke-width="1.5"/>
</g>
<defs>
<clipPath id="clip0_1920_293">
<rect width="224" height="228" fill="white"/>
</clipPath>
</defs>
</svg>
