<svg width="91" height="58" viewBox="0 0 91 58" fill="none" xmlns="http://www.w3.org/2000/svg">
<g clip-path="url(#clip0_1904_267)">
<path d="M6.62857 17.598L7.99044 20.6556L8.32247 20.8489L8.67821 20.8157L8.76182 20.2697L8.42507 18.1032L7.64605 13.6006L7.12313 11.3618L6.53084 8.8603L6.22668 8.48498L5.5905 7.91638L5.34623 7.22149L5.26323 6.33212L5.49981 5.50265L6.16151 4.90263L6.8481 4.56942L7.69299 4.49058L8.51832 4.68269L9.14621 5.16236L9.48771 5.93789L9.4373 6.8397C9.3705 7.08516 9.15625 7.67333 8.83371 8.06227C8.51116 8.45122 8.51669 8.51051 8.55978 8.49153L9.45268 9.88844L11.8521 13.9706L14.3559 17.7291L15.8892 19.7391L17.1378 21.1028L18.3936 22.0621L19.2604 22.6989L20.7332 23.0998L22.2617 23.1365L23.3847 22.6729L24.4857 21.4936L25.4089 20.3309L26.1376 19.007L27.2796 16.3436L29.2398 10.9126L30.2193 7.95047L29.544 7.92378L28.9244 7.53305L28.3274 6.42252L28.3807 5.07188L28.6132 4.19793L29.1415 3.61037L29.9128 3.22439L30.9356 3.12895L32.0319 3.34063L32.8377 3.8037L33.1833 4.6237L33.2788 5.64647L33.0908 6.51626L32.7042 7.18031L32.7291 7.44712L33.6522 9.6486L34.5712 11.8056L35.9402 14.4589L37.1426 16.7689L38.3076 18.6787L39.3381 20.1076C39.6654 20.5704 40.4861 21.6422 41.1506 22.2261C41.8151 22.81 42.3915 23.1868 42.5967 23.3022L43.6817 23.8738L45.11 24.2788L46.38 24.4294L47.5113 24.0547L49.4685 22.4366L51.1269 20.9811L52.8979 19.2907L54.8498 17.1349L56.7531 14.9388L58.0753 13.2455L59.3892 11.4632L60.0942 10.3657L60.3319 10.0296L60.0236 9.60979C59.9408 9.36334 59.7677 8.79039 59.7379 8.47021C59.708 8.15004 59.7914 7.76248 59.8369 7.60872L60.2152 6.85573L60.6225 6.41402L61.2605 6.04049L62.0971 5.87271L62.789 6.07727L63.5503 6.5445L63.9434 6.91151L64.2363 7.64672L64.311 8.44715C64.2631 8.7357 64.1296 9.38809 63.9783 9.68929C63.827 9.99048 63.5631 10.2065 63.45 10.2769L62.8968 10.5976L62.295 10.878L62.1017 11.2101L62.0181 11.7561L62.0893 14.4408L62.2926 16.6198L62.6863 18.9155L62.911 19.8814L63.4979 21.8451L64.1655 23.7116L64.925 25.1209L65.4444 25.8799L66.4458 26.9975L67.3043 27.5454L68.3852 28.0725L69.2467 28.1715L70.1639 27.9065L72.2848 27.0806L73.9597 25.8029L75.8642 24.1001L77.8605 21.9401L79.3719 19.8703L80.9888 17.9701L82.2232 16.7783L83.2911 15.2433L83.2247 14.5318L83.3806 13.7996L83.6948 13.3217L84.098 12.8355L84.7402 12.5064L85.4517 12.44L86.277 12.6322L87.0021 13.1925L87.1894 13.7581L87.2641 14.5585L87.0276 15.388L86.4631 16.0687L85.8251 16.4422L85.2595 16.6295L84.8148 16.671L83.9053 18.4604C83.6359 19.0986 82.9504 20.9179 82.3636 23.0898C81.7769 25.2618 81.6784 25.6806 81.7025 25.6186C81.5458 26.022 81.1049 27.2892 80.5949 29.131C80.085 30.9728 80.4418 29.8928 80.6839 29.1227L81.9017 27.7531L83.8815 25.4152L85.0952 24.0012L86.0017 22.6606L86.4927 21.6728L86.4304 21.0058C86.3569 20.6987 86.2752 20.0155 86.5366 19.74C86.7979 19.4644 86.9439 19.2982 86.9842 19.2496L87.6625 18.8275L88.4185 18.7569L89.2076 19.0421L89.6369 19.3161L89.9452 19.7358L90.1284 20.257L90.0822 21.2033L89.7317 21.7743L89.3689 22.2118L88.6781 22.5006L87.7289 22.9031L87.3743 23.4296L85.6323 25.4313L84.0931 27.6831C83.4377 28.6713 81.8661 31.1205 80.8226 33.0121C79.779 34.9037 79.7525 35.3249 79.8697 35.299L77.9807 40.0505L78.4028 40.7288L79.218 41.7741L79.2927 42.5745L79.1504 43.9335L78.7929 44.9088L78.0743 45.3796L77.4001 45.8462L77.1719 46.7646L76.9121 49.7493L77.8442 50.6043L78.2313 51.869L78.1015 53.3613L77.2939 53.8404L75.9972 54.3651L73.7946 54.7949L70.9984 55.5941L66.1958 56.0423L61.4976 56.1668L55.6379 55.8613L49.9727 55.7172L43.539 55.5102L37.4795 54.5057L32.3467 53.8185L28.816 53.4752L25.5923 53.0583L19.4717 51.8801L15.5799 51.0322L11.6062 49.7882L8.77748 48.7963L7.21459 47.9104L6.61457 47.2487C6.49797 46.9606 6.25232 46.2509 6.20252 45.7173C6.15272 45.1836 6.28771 44.7075 6.36143 44.5362L6.63536 44.1069L7.78205 43.4168L8.72301 42.9253L8.74323 37.8547L8.20428 37.3668L7.63213 36.523L7.52424 35.3669L7.95114 34.6542L8.39049 34.0749L9.21049 33.7293L8.91585 30.572L8.75816 28.8823L8.21803 27.901L7.75557 27.2713L7.13777 25.9384C7.05872 25.572 6.78964 24.4189 6.34569 22.7379C5.90174 21.0569 5.71565 20.7932 5.67809 20.8714L5.11722 19.6678C4.98402 19.2018 4.6524 18.0515 4.39153 17.1788C4.33603 16.9687 3.88619 16.0896 3.6682 15.6763L3.14349 14.3796L2.00689 14.2166L1.2456 13.7494L0.69717 12.6792L0.618323 11.8343L0.988308 10.9923L1.6334 10.2144L2.41308 9.9174L3.41213 10.0484L4.27895 10.6852L4.79833 11.4442L4.87718 12.2891L4.72538 13.0658L4.75858 13.4215L6.62857 17.598Z" fill="#FFF21D"/>
</g>
<defs>
<clipPath id="clip0_1904_267">
<rect width="91" height="58" fill="white"/>
</clipPath>
</defs>
</svg>
