<svg width="550" height="830" viewBox="0 0 550 830" fill="none" xmlns="http://www.w3.org/2000/svg">
<g clip-path="url(#clip0_1900_92)">
<path fill-rule="evenodd" clip-rule="evenodd" d="M-46.8475 -46.2592C-46.6944 -45.5491 -46.227 -44.1799 -45.8089 -43.2155C-44.8352 -40.9687 -44.3589 -41.4467 -44.096 -44.9353L-43.8956 -47.6L-45.511 -47.575L-47.1264 -47.5501L-46.8475 -46.2592ZM63.0763 -49.0635C63.0778 -48.9595 63.6282 -48.5894 64.2991 -48.2407C65.7773 -47.4733 68.678 -47.7054 69.9947 -48.6973C70.8564 -49.3458 70.7356 -49.3707 66.9832 -49.3127C64.8328 -49.2795 63.0749 -49.1675 63.0763 -49.0635ZM424.231 -49.5161C423.365 -46.5868 422.284 -41.7179 421.829 -38.6966C421.374 -35.6756 420.73 -32.7562 420.397 -32.2091C419.695 -31.0561 418.396 -30.4319 416.642 -30.4048C415.33 -30.3845 414.519 -31.0925 411.626 -34.7858C409.808 -37.1053 408.891 -37.4347 407.672 -36.2052C406.503 -35.0263 405.871 -32.6526 404.808 -25.4399C403.139 -14.118 403.094 -9.91984 404.626 -8.37019C405.212 -7.77789 405.399 -7.78357 407.112 -8.44764C410.123 -9.61437 410.669 -9.46738 413.677 -6.67646C415.489 -4.99446 417.099 -3.89315 418.519 -3.36474C419.689 -2.92891 421.096 -2.27557 421.646 -1.91225C422.586 -1.29076 422.673 -1.29211 423.111 -1.93609C423.717 -2.82575 424.076 -10.1411 423.708 -14.0803C423.381 -17.5829 423.721 -20.8934 424.906 -25.7559C425.657 -28.836 425.93 -29.3567 428.081 -31.8145C430.835 -34.9618 431.943 -37.1811 433.039 -41.7422C433.479 -43.5713 434.385 -46.7236 435.052 -48.7472C435.72 -50.7707 436.379 -53.011 436.517 -53.7256L436.767 -55.0246L431.286 -54.9336L425.807 -54.8426L424.231 -49.5161ZM452.189 -53.5692C452.514 -51.6355 452.912 -51.0845 453.736 -51.4284C454.229 -51.6349 455.839 -54.4601 455.83 -55.1039C455.829 -55.2222 454.944 -55.3054 453.866 -55.2888L451.905 -55.2585L452.189 -53.5692ZM52.917 -37.0641C52.9418 -35.2433 52.8708 -32.2482 52.7596 -30.4086C52.5925 -27.6387 52.6492 -27.0968 53.0902 -27.2575C54.279 -27.6907 55.1013 -30.092 55.0495 -32.978C55.0007 -35.6796 53.9848 -39.6816 53.2288 -40.1525C53.0215 -40.2817 52.8908 -38.9865 52.917 -37.0641ZM89.0605 -40.5614C88.9571 -40.3812 88.5183 -39.2013 88.0853 -37.9393C87.4599 -36.1156 87.3952 -35.5276 87.7696 -35.0715C88.315 -34.4073 90.5375 -34.3439 91.6082 -34.9622C93.1792 -35.87 91.8067 -40.929 89.9967 -40.901C89.5852 -40.8947 89.1639 -40.7419 89.0605 -40.5614ZM-45.0881 -34.1722C-45.9755 -30.7325 -45.3079 -20.7478 -43.7528 -14.2092C-43.1971 -11.8714 -42.5397 -8.95172 -42.2919 -7.72137C-41.7955 -5.25749 -40.3716 -2.14921 -39.6374 -1.92742C-39.3493 -1.84022 -39.6847 -3.2872 -40.5082 -5.67987C-42.2615 -10.7744 -42.6504 -13.2623 -43.4731 -24.6529C-44.1024 -33.3713 -44.5755 -36.1591 -45.0881 -34.1722ZM176.831 -25.1667C175.183 -24.0776 171.422 -19.6666 166.449 -12.9889C161.668 -6.56999 155.1 2.87728 153.781 5.23091C152.774 7.02939 152.858 8.6038 153.949 8.38889C155.509 8.08144 159.466 4.73942 163.828 0.0429722C167.431 -3.83637 169.165 -6.12867 172.188 -11.0117C176.597 -18.1322 178.588 -22.1831 178.675 -24.2128C178.75 -25.9435 178.333 -26.159 176.831 -25.1667ZM66.3978 -12.7418C65.52 -10.4583 65.9946 -6.80334 67.7533 -2.30067C70.0613 3.60783 71.7701 6.54554 74.8962 9.97901C76.4914 11.7309 78.5622 14.3582 79.4979 15.8174C80.4341 17.277 81.4993 18.7223 81.8655 19.0295C82.3111 19.4036 84.0609 19.6587 87.1613 19.8021C89.7078 19.9197 92.9949 20.1168 94.4651 20.24C96.9433 20.4472 97.0989 20.4149 96.5948 19.8006C96.2954 19.4362 94.9076 18.4622 93.5108 17.6361C90.7665 16.0136 88.8718 14.181 86.9433 11.2829C85.7022 9.41797 85.2665 9.17444 81.4873 8.23335C78.2509 7.42775 77.3587 6.74135 74.2931 2.70001C70.8732 -1.80768 70.2079 -3.31971 69.0459 -9.22518C68.5853 -11.5661 68.1019 -13.656 67.9715 -13.8687C67.5126 -14.6172 66.9696 -14.2287 66.3978 -12.7418ZM3.95412 -10.4418C-0.686753 -8.44254 -1.36704 -8.05225 -1.3577 -7.39605C-1.34669 -6.62192 0.886461 -5.65138 2.59591 -5.67779C4.4874 -5.70701 7.64844 -7.56386 8.58456 -9.19587C10.1985 -12.0092 8.59423 -12.4407 3.95412 -10.4418ZM260.457 -15.1754C259.66 -14.8583 259.414 -14.4962 259.426 -13.6587C259.457 -11.481 261.945 -10.4693 263.059 -12.181C263.868 -13.4213 263.773 -14.3404 262.764 -15.0537C261.792 -15.7404 261.867 -15.7368 260.457 -15.1754ZM-10.6953 -9.36551C-11.2029 -8.95876 -11.4688 -7.96914 -11.6805 -5.69677C-12.0114 -2.15171 -12.8906 -0.228481 -15.4335 2.51109C-17.5033 4.74123 -18.736 5.42419 -21.2508 5.73402C-23.6515 6.02973 -25.6923 5.59102 -31.2504 3.5859C-33.542 2.75893 -35.5391 2.08441 -35.6882 2.08672C-35.8378 2.08903 -35.8531 2.49136 -35.7226 2.9807C-35.3786 4.27333 -30.2263 9.26834 -27.8191 10.6435C-20.6229 14.7537 -13.4955 13.2807 -10.068 6.97439C-9.24944 5.46893 -9.03226 4.44181 -8.86816 1.29704C-8.63448 -3.16747 -8.22129 -4.20957 -5.99786 -5.93797C-5.09971 -6.63608 -4.43611 -7.41904 -4.52318 -7.67792C-5.0081 -9.1218 -9.47524 -10.3432 -10.6953 -9.36551ZM270.12 -4.99897C268.886 -3.95653 268.858 -3.41453 270.039 -3.43278C270.977 -3.44725 272.94 -4.85004 272.93 -5.49906C272.921 -6.17199 271.132 -5.85425 270.12 -4.99897ZM19.6844 -0.160592C17.0231 0.58189 15.3692 1.45187 13.9927 2.83404C11.8888 4.94675 12.969 5.37759 17.5512 4.25315C20.792 3.45789 23.6255 3.42049 27.4858 4.12161C31.3995 4.83267 33.3746 4.6858 33.5441 3.67177C33.7014 2.73364 32.2822 1.19342 30.307 0.157915C28.3169 -0.885721 22.8684 -1.04903 19.6844 -0.160592ZM38.6386 5.6701C38.1854 5.9987 38.2677 6.43698 39.1558 8.41939C40.4066 11.2111 40.4214 11.4213 39.6345 15.1767C38.753 19.3834 38.9921 19.8125 43.2356 21.6382C48.0261 23.6994 48.218 23.665 49.5811 20.5093C50.234 18.9976 50.6016 17.6035 50.4619 17.1677C50.3302 16.7565 49.4189 15.3746 48.4372 14.097C47.4551 12.819 45.9731 10.6035 45.1437 9.17373C44.3143 7.74354 43.3649 6.34629 43.0343 6.06885C42.2651 5.4236 39.3439 5.15868 38.6386 5.6701ZM235.392 5.41649C232.635 7.22725 229.686 12.84 230.175 15.3478C231.228 20.7544 237.471 18.1402 240.346 11.0884C241.428 8.4336 241.387 6.29822 240.237 5.35639C239.077 4.40713 236.888 4.43417 235.392 5.41649ZM251.203 13.2616C249.22 14.4391 247.436 16.79 246.511 19.4436C245.937 21.0875 246.918 20.6659 249.499 18.1593C251.866 15.8604 253.155 13.8635 252.725 13.1619C252.429 12.6795 252.152 12.6978 251.203 13.2616ZM498.506 12.1163C497.962 13.2155 498.037 15.1291 498.687 16.684C499.703 19.1136 504.126 22.1289 505.706 21.4693C506.636 21.0807 506.329 20.5088 504.511 19.2473C502.678 17.9741 501.924 16.8149 500.806 13.5461C500.069 11.3896 499.15 10.8184 498.506 12.1163ZM216.053 19.8172C213.465 21.6772 211.773 24.516 211.808 26.9396C211.839 29.142 212.568 30.0254 214.75 30.503C216.818 30.9553 217.893 30.3493 218.749 28.249C219.534 26.3225 220.229 20.7143 219.856 19.3133C219.53 18.0882 218.216 18.2619 216.053 19.8172ZM111.227 21.6006C110.252 22.0281 110.815 22.9201 112.309 23.3142C114.022 23.7668 116.111 23.4615 117.15 22.6074C117.744 22.1188 117.757 21.9967 117.252 21.6558C116.665 21.2596 112.1 21.2177 111.227 21.6006ZM74.4761 26.2602C72.6532 26.6693 71.5288 27.3813 71.2648 28.2931C71.1434 28.7134 70.9205 30.3835 70.7695 32.0037C70.6181 33.6244 70.2038 35.5576 69.8487 36.2999C68.8094 38.4723 62.6061 45.1044 61.1074 45.6453C58.2514 46.6765 56.1628 45.3295 53.5211 40.754C50.9401 36.2824 50.1837 36.1585 48.6112 39.9503C47.8194 41.8595 47.748 42.6213 47.8004 48.618C47.8697 56.5182 47.471 57.9885 44.006 62.6244C42.7632 64.2875 40.8356 67.5623 39.7233 69.902C37.5807 74.4075 36.9701 75.2335 35.9261 75.0364C32.8478 74.4551 31.707 63.8828 33.162 49.4184C34.0577 40.5123 33.5907 36.7787 32.0908 40.8579C30.8741 44.1675 29.9385 51.13 28.5437 67.2469C28.1212 72.1251 27.3257 74.5269 23.1315 83.5852C20.8102 88.5988 17.9475 94.2401 16.7697 96.1213C14.5518 99.6644 10.053 109.277 8.97363 112.78C8.12317 115.539 7.87155 118.392 8.44697 118.75C9.19722 119.218 11.5102 116.204 13.8706 111.684C15.3392 108.871 16.9551 106.492 18.7776 104.459C21.0963 101.873 21.6177 101.017 22.3311 98.6257C23.9423 93.2261 25.1672 91.5654 28.904 89.7144C31.0007 88.6757 37.2846 87.0372 39.29 87.0063C41.2733 86.9756 42.8182 87.9919 43.6498 89.8743C44.7553 92.3778 45.7357 110.682 44.9819 114.75C43.5841 122.292 37.9108 132.171 34.2943 133.361C32.1687 134.06 31.1399 133.241 29.4345 129.491C27.4834 125.2 26.914 125.02 25.3296 128.192C23.6158 131.623 22.0488 137.111 22.049 139.68C22.0493 141.825 22.2486 142.442 23.9684 145.616L25.8873 149.158L26.2004 154.544C26.5464 160.502 26.7828 161.223 29.3913 164.27C31.5233 166.761 32.1737 168.148 32.4394 170.77C32.6975 173.314 32.1072 176.294 30.3782 181.181C28.4145 186.729 25.7584 189.632 22.6007 189.681C19.9371 189.722 17.8183 188.373 12.3757 183.17C10.7365 181.603 9.23067 180.323 9.0299 180.326C8.34726 180.337 8.20749 182.342 8.65567 185.693C9.13681 189.29 9.85137 191.657 11.0977 193.785C12.3875 195.988 15.6725 199.59 17.0028 200.261C18.0593 200.793 21.3717 201.404 27.6627 202.225C29.2669 202.434 30.8609 201.229 32.2165 198.781C36.2989 191.407 41.2478 192.588 45.9943 202.071C48.7822 207.64 51.4077 217.393 51.1335 221.162C50.8094 225.618 47.0932 231.198 42.9977 233.378C41.8493 233.989 40.5329 234.866 40.072 235.328C38.9776 236.423 38.3473 238.582 38.6587 240.169C39.0002 241.91 40.329 244.002 41.0858 243.991C41.4304 243.985 43.1429 242.48 44.892 240.644C46.7131 238.733 49.3175 236.519 50.9874 235.462C55.3481 232.702 55.4202 232.47 55.1426 222.076C55.0199 217.487 54.6424 211.766 54.3034 209.363C53.4219 203.117 53.4454 200.709 54.4 199.405C55.3087 198.164 55.5343 198.127 57.255 198.946C58.9703 199.761 60.5282 202.334 62.2921 207.262C65.8565 217.222 69.5741 225.602 72.1798 229.552C75.1963 234.124 75.6937 235.207 77.0004 240.049C77.5612 242.126 79.2011 246.185 80.9207 249.751C84.2938 256.748 86.2908 263.563 87.0808 270.777C88.0133 279.294 85.6483 288.996 82.133 291.071C79.5585 292.59 78.4626 292.589 73.5765 291.062C67.4601 289.151 67.0433 289.592 68.7541 296.165C69.1992 297.874 69.732 301.04 69.9383 303.199C70.1787 305.717 70.5478 307.488 70.9674 308.134C71.8235 309.451 73.4402 310.327 74.0702 309.814C74.3319 309.601 75.9912 308.395 77.7577 307.133C85.2359 301.794 86.7517 301.731 91.6745 306.558C95.7683 310.573 98.0257 311.236 101.923 309.57C104.581 308.434 105.077 307.894 105.932 305.214C106.329 303.971 107.029 302.016 107.489 300.871C108.229 299.024 108.269 298.607 107.842 297.197C107.182 295.02 105.924 293.62 102.164 290.879C96.5699 286.802 95.53 285.121 94.8539 279.061C94.6198 276.963 93.9581 273.281 93.3838 270.879C92.7066 268.047 92.2463 264.817 92.0757 261.692L91.812 256.873L93.1838 255.697C94.1168 254.898 94.5506 254.197 94.5407 253.505C94.5163 251.787 92.3135 248.84 86.9896 243.401C81.8135 238.113 79.7441 235.158 79.7136 233.012C79.7048 232.393 79.9382 230.729 80.2317 229.314C81.0171 225.533 80.5789 224.522 75.6118 218.648C74.3757 217.187 72.9935 215.26 72.5401 214.367C71.6798 212.673 69.7628 205.075 69.7304 203.232C69.7202 202.648 70.2974 200.978 71.013 199.521C71.7286 198.063 72.3081 196.56 72.3004 196.18C72.276 194.926 70.4425 191.554 69.1117 190.316C68.393 189.647 66.819 188.544 65.6143 187.866C63.3454 186.588 59.9133 183.132 58.8382 181.042C58.4015 180.193 58.2527 179.064 58.3283 177.173C58.4214 174.841 58.6224 174.21 59.9148 172.192C61.2066 170.174 61.3918 169.594 61.3707 167.626C61.3486 165.561 61.2712 165.361 60.448 165.252C59.7429 165.16 58.8848 165.88 56.4605 168.602L53.3718 172.069L51.4122 172.1C48.4721 172.145 47.648 171.222 43.9408 163.73C41.5939 158.987 40.6643 156.665 40.3662 154.802C39.9333 152.097 40.2529 149.018 41.1564 147.191C41.4397 146.617 42.2647 144.973 42.9894 143.537C43.9232 141.687 44.5318 139.646 45.0788 136.531C46.2376 129.931 46.9977 128.673 51.1557 126.475C53.969 124.987 54.2303 124.265 53.616 119.672C52.818 113.701 52.9732 111.567 54.5522 106.813C55.3423 104.435 56.7402 100.708 57.6586 98.5315C59.6209 93.8817 60.3779 89.8244 59.6769 87.7167C59.1822 86.2292 58.9313 86.0963 55.9646 85.7516C52.6623 85.3679 50.3279 83.3285 49.0423 79.7048C46.9526 73.8148 50.9778 69.2444 57.128 70.5226C58.3564 70.7778 58.7044 70.6118 61.2153 68.569C65.3082 65.2392 67.0826 65.1018 71.0358 67.8087C73.6497 69.5987 74.8822 70.0037 75.6448 69.3244C75.9417 69.06 76.6298 67.5498 77.1745 65.9685C78.3768 62.4781 79.305 61.2822 80.8301 61.2586C81.7716 61.2441 82.7207 62.0256 86.4713 65.9049C90.5415 70.1141 91.2271 71.038 93.5083 75.3847C96.8656 81.7815 97.2901 82.1241 101.789 82.0598C104.673 82.0184 105.639 82.1709 107.222 82.9191C109.523 84.0066 110.412 84.9341 112.157 88.0641C112.881 89.3637 113.945 90.6922 114.522 91.0164C115.485 91.5578 115.689 91.5388 116.993 90.7874C118.137 90.1285 118.435 89.7086 118.519 88.6385C118.627 87.2433 118.608 87.2213 112.558 81.5627C111.705 80.7649 110.495 79.1357 109.869 77.9419C109.242 76.7485 107.091 73.1071 105.088 69.8503C101.801 64.5045 101.325 63.4857 100.191 59.3655C99.5006 56.8556 98.7782 54.6415 98.5861 54.4452C98.3769 54.2313 97.0977 54.3865 95.3942 54.8321C90.0589 56.2283 87.2774 54.6805 84.6385 48.846C83.9986 47.4313 82.8439 44.9385 82.0725 43.3066C80.3889 39.7448 80.2027 37.2538 81.4266 34.6601C81.864 33.7332 82.2142 32.4279 82.2046 31.7593C82.1825 30.2039 80.7511 27.1372 79.7005 26.3947C78.8578 25.7988 76.7711 25.7449 74.4761 26.2602ZM425.657 21.1791C424.584 21.9261 424.031 25.0371 424.115 29.8537C424.199 34.666 423.703 44.5563 422.763 56.8173C422.3 62.8575 422.319 64.1627 422.978 71.5588C423.95 82.4741 424.53 84.3496 426.226 82.0651C427.307 80.6082 428.462 76.8225 429.152 72.4665C429.461 70.5166 430.132 67.4576 430.643 65.6688C431.789 61.6549 434.845 55.11 436.242 53.6777C437.672 52.2106 440.536 51.3889 442.061 52.0077C445.341 53.3383 445.279 53.3293 446.692 52.6738L448.06 52.0386L448.258 47.4535C448.367 44.9321 448.686 41.3764 448.967 39.5525C449.864 33.7387 449.34 26.4673 447.986 25.9502C447.707 25.8434 446.685 26.3214 445.715 27.0123C444.185 28.1031 439.097 29.875 433.233 31.3595C431.632 31.7648 430.535 30.4424 429.032 26.2952C427.651 22.4821 426.434 20.6375 425.657 21.1791ZM-32.1246 29.1378C-33.6126 29.8593 -34.9024 31.6379 -34.3462 32.2004C-34.0361 32.514 -31.8291 31.0345 -30.7251 29.7733C-29.5692 28.4527 -30.1598 28.1845 -32.1246 29.1378ZM-52.9354 37.2373C-53.6806 37.6071 -55.2444 37.7922 -57.4559 37.773C-60.5956 37.7454 -60.8881 37.8109 -61.5548 38.6951C-63.2472 40.9393 -62.0668 42.7435 -58.9377 42.6951C-55.4687 42.6416 -51.1779 39.777 -51.2098 37.5362C-51.225 36.4733 -51.3515 36.4513 -52.9354 37.2373ZM519.327 38.9435C519.46 39.1606 519.645 39.3371 519.737 39.3356C519.83 39.3342 519.904 39.1537 519.9 38.9346C519.897 38.7155 519.712 38.539 519.49 38.5425C519.267 38.5459 519.194 38.7264 519.327 38.9435ZM193.661 45.1667C192.78 45.729 192.086 47.798 192.386 48.9674C192.754 50.4027 193.998 50.2405 194.918 48.637C196.24 46.3307 195.413 44.0481 193.661 45.1667ZM447.9 58.2785C447.172 66.2958 447.157 68.8174 447.815 72.1559C448.813 77.2171 449.932 79.7 452.451 82.4383C453.686 83.7805 454.955 85.3888 455.273 86.0128C456.716 88.845 459.115 96.949 459.709 100.996C460.39 105.632 461.152 107.282 462.716 107.498C464.469 107.74 465.34 107.144 466.641 104.813C469.893 98.9839 470.286 94.5158 467.86 90.9563C466.016 88.2502 465.567 86.7205 464.832 80.6315C464.478 77.7067 464.022 74.8756 463.817 74.3404C463.613 73.8048 462.647 72.4572 461.671 71.3457C459.661 69.057 458.5 66.9114 456.955 62.6286C455.427 58.391 454.589 57.1805 452.827 56.6598C452.009 56.4182 450.771 55.6271 450.076 54.9014C449.381 54.1757 448.702 53.5837 448.569 53.5857C448.435 53.5878 448.134 55.6997 447.9 58.2785ZM-3.72481 76.4276C-5.0568 78.0071 -5.98758 82.2178 -5.18461 83.0299C-4.68163 83.5386 -3.43411 82.3669 -2.75675 80.7492C-2.04166 79.0417 -1.88042 77.4428 -2.31098 76.3241C-2.62318 75.5127 -2.97511 75.5385 -3.72481 76.4276ZM210.449 81.7745C210.321 82.3436 210.312 82.9068 210.43 83.0265C210.81 83.4104 211.454 82.7298 211.443 81.956C211.426 80.7663 210.707 80.6348 210.449 81.7745ZM407.376 80.8224C407.637 84.1232 408.512 87.3978 409.47 88.6674C410.419 89.9252 410.905 88.701 410.588 85.8538C410.062 81.1348 408.864 77.711 407.744 77.7283C407.217 77.7364 407.165 78.1708 407.376 80.8224ZM244.338 81.8616C244.341 82.0887 244.941 83.828 245.672 85.7264C246.403 87.6244 247.415 90.8303 247.92 92.8497C248.426 94.8691 249.001 96.5192 249.199 96.5161C250.096 96.5023 251.904 89.5116 251.487 87.6658C251.168 86.256 249.381 84.0874 247.254 82.5298C245.736 81.4183 244.327 81.0954 244.338 81.8616ZM72.9317 85.7215C71.0326 86.9133 73.331 90.8254 79.6707 97.1932C84.2475 101.79 85.9609 103.089 86.5769 102.429C86.7114 102.284 85.9035 100.352 84.7815 98.1357C83.6594 95.9194 82.29 92.9677 81.7386 91.5766C80.4741 88.3862 79.0318 86.4633 77.3887 85.7778C75.8922 85.1533 73.8776 85.1278 72.9317 85.7215ZM492.145 88.2156C492.022 88.5626 491.936 89.7774 491.952 90.9149C491.976 92.6357 491.787 93.2352 490.827 94.4862C490.193 95.3129 489.336 95.9949 488.924 96.0012C487.757 96.0192 485.419 94.9212 484.285 93.8233C482.768 92.3531 482.013 92.7541 480.656 95.7507C478.359 100.824 478.371 106.974 480.688 111.662C481.6 113.507 482.247 114.161 485.042 116.06C488.819 118.625 493.111 123.02 494.353 125.595C495.547 128.071 496.403 133.217 496.38 137.772C496.355 142.31 496.866 143.506 498.989 143.887C501.772 144.386 504.549 142.325 505.971 138.705C507.316 135.279 508.579 130.35 508.554 128.616C508.527 126.721 508.219 126.342 505.392 124.72C503.044 123.371 502.451 122.01 501.673 116.174C500.394 106.579 499.934 104.997 497.684 102.441C494.932 99.3157 493.154 94.773 493.097 90.7171C493.059 88.1075 492.604 86.9106 492.145 88.2156ZM329.206 91.2816C328.87 91.8683 330.352 94.5018 331.812 95.9115C333.434 97.4769 337.463 99.9348 338.383 99.9206C338.764 99.9147 339.07 99.686 339.065 99.412C339.044 98.4535 336.756 94.8911 335.371 93.6619C332.87 91.4414 329.796 90.2544 329.206 91.2816ZM422.507 92.4232C419.743 95.5675 417.092 96.3221 413.644 94.9464C412.233 94.3831 411.924 94.368 411.62 94.8449C411.188 95.5243 411.579 100.625 412.185 102.216C413.064 104.52 413.497 104.716 417.007 104.404C419.704 104.164 420.601 104.253 422.76 104.975L425.317 105.832L426.119 104.971C428.023 102.928 426.763 90.5391 424.66 90.6365C424.326 90.652 423.357 91.456 422.507 92.4232ZM517.9 96.4503C517.243 99.1623 518.06 101.75 519.477 101.447C521.015 101.118 520.365 95.5156 518.792 95.5399C518.416 95.5457 518.021 95.9487 517.9 96.4503ZM202.062 103.081C201.208 103.996 202.728 109.787 203.817 109.77C204.255 109.763 204.343 109.322 204.215 107.772C203.937 104.423 202.905 102.175 202.062 103.081ZM-45.5446 128.048C-46.0774 128.62 -46.1449 129.275 -45.946 131.94C-45.4814 138.16 -39.8488 151.715 -38.1872 150.609C-36.7534 149.656 -38.9656 133.898 -41.132 129.631C-42.2914 127.347 -44.2403 126.648 -45.5446 128.048ZM279.743 132.167C279.6 132.32 279.491 132.938 279.499 133.541C279.513 134.535 279.695 134.674 281.452 135.039C283.812 135.528 285.385 135.535 285.09 135.053C284.97 134.857 283.873 134.112 282.653 133.398C279.855 131.759 280.047 131.841 279.743 132.167ZM463.197 131.624C461.269 131.905 459.572 132.263 459.428 132.418C458.906 132.978 460.232 135.218 461.737 136.319C463.893 137.895 465.062 137.773 466.727 135.795C467.606 134.75 468.081 133.785 468.071 133.065C468.056 132.042 467.418 130.935 466.914 131.06C466.798 131.089 465.126 131.342 463.197 131.624ZM268.434 135.502C267.011 135.953 265.598 136.102 264.023 135.967C262.364 135.826 261.505 135.928 260.995 136.329C260.307 136.869 260.313 136.904 261.157 137.358C261.722 137.662 262.693 137.723 263.9 137.531C266.257 137.156 267.871 138.064 270.019 140.973C272.201 143.93 272.833 145.321 273.976 149.689C275.137 154.124 275.735 154.857 277.38 153.862C278.849 152.973 280.089 150.077 280.321 146.99C280.542 144.061 279.409 136.437 278.632 135.621C277.855 134.806 270.891 134.725 268.434 135.502ZM195.184 137.352C193.284 137.909 190.861 138.771 189.798 139.267C187.642 140.273 185.976 141.879 186.652 142.3C186.884 142.445 191.166 142.604 196.168 142.654C205.781 142.75 208.576 142.408 209.771 140.991C210.324 140.335 210.309 140.196 209.578 139.258C208.469 137.832 204.935 136.608 201.508 136.461C199.305 136.367 197.835 136.574 195.184 137.352ZM157.193 140.378C156.487 141.291 157.433 142.239 158.876 142.066C160.434 141.88 160.559 141.104 159.148 140.372C157.73 139.635 157.767 139.635 157.193 140.378ZM514.517 137.977C514.046 138.26 513.413 138.87 513.111 139.334C512.312 140.561 509.936 150.583 510.228 151.495C510.364 151.921 511.394 152.861 512.517 153.585C514.826 155.074 515.746 156.229 517.143 159.393C518.696 162.909 518.931 162.825 519.65 158.491C520.756 151.836 520.962 142.583 520.052 140.407C518.982 137.846 516.532 136.771 514.517 137.977ZM291.395 149.255C290.725 150.423 290.512 152.318 290.895 153.715C291.351 155.383 293.113 157.73 293.644 157.377C294.574 156.758 293.342 149.125 292.281 148.933C291.932 148.87 291.533 149.015 291.395 149.255ZM171.43 152.811C169.819 154.677 169.064 155.936 169.558 155.928C169.942 155.923 173.803 151.767 173.797 151.367C173.787 150.633 172.778 151.248 171.43 152.811ZM165.463 160.304C163.903 162.113 162.483 164.339 161.408 166.658C159.283 171.24 159.27 171.292 160.666 169.615C163.855 165.785 168.532 158.195 168.022 157.679C167.934 157.591 166.783 158.772 165.463 160.304ZM530.526 158.143C530.318 158.733 530.491 161.421 531.139 167.708C531.386 170.107 531.28 171.081 530.422 174.295C529.22 178.788 529.16 181.421 530.13 187.022C531.184 193.105 531.477 193.871 533.954 197.021C537.119 201.047 537.454 201.628 538.308 204.575C539.202 207.656 539.397 211.056 539.088 218.184C538.822 224.339 539.168 225.463 541.94 227.473C544.26 229.156 545.378 230.978 546.429 234.79C548.022 240.573 548.501 241.054 553.828 242.227C556.016 242.708 558.559 243.404 559.479 243.773C560.894 244.34 561.204 244.357 561.483 243.882C562.001 243.002 561.751 234.81 561.127 232.222C560.347 228.985 559.448 227.893 557.242 227.504C554.391 227 553.415 225.71 552.317 220.989C551.809 218.808 550.844 215.901 550.171 214.529C549.081 212.307 548.719 211.926 546.83 211.017C543.409 209.37 543.048 208.769 542.109 203.131C541.657 200.423 540.992 195.79 540.629 192.837C539.608 184.515 537.849 178.116 535.619 174.61C533.663 171.537 533.169 169.878 532.773 165.068C532.383 160.311 531.769 157.507 531.121 157.517C530.914 157.52 530.646 157.802 530.526 158.143ZM140.786 165.936C135.856 167.597 134.952 168.109 135.672 168.837C136.402 169.575 139.161 169.973 140.766 169.571C143.616 168.857 146.851 166.29 146.829 164.759C146.819 164.019 146.012 164.176 140.786 165.936ZM3.02506 167.896C1.85357 169.412 3.23769 174.103 5.24873 175.432C6.72495 176.407 7.11959 175.807 6.80559 173.068C6.51042 170.497 5.6518 168.651 4.34615 167.781C3.63906 167.31 3.46676 167.325 3.02506 167.896ZM280.141 170.004C279.881 170.74 280.955 174.389 281.756 175.495C282.635 176.709 283.546 175.981 283.519 174.086C283.492 172.217 282.642 170.331 281.566 169.752C280.574 169.219 280.407 169.248 280.141 170.004ZM446.884 169.669C445.971 170.142 445.757 171.353 446.504 171.819C446.754 171.974 448.005 172.19 449.284 172.297L451.61 172.493L452.719 176.823C453.944 181.605 454.659 182.831 455.833 182.153C457.071 181.438 458.016 179.316 457.989 177.312C457.958 175.043 456.914 173.986 453.604 172.87C452.268 172.42 451.325 171.851 451.184 171.411C450.72 169.963 448.251 168.963 446.884 169.669ZM-64.0186 193.725C-65.4675 195.318 -65.7789 196.226 -64.871 196.212C-64.2943 196.203 -61.2364 193.092 -61.2445 192.523C-61.2566 191.676 -62.7381 192.318 -64.0186 193.725ZM-39.1219 203.707C-43.3979 205.597 -44.1515 206.078 -43.64 206.591C-43.103 207.129 -35.3324 210.098 -34.4872 210.087C-33.4367 210.074 -29.7687 207.392 -29.492 206.434C-29.204 205.438 -29.7008 204.741 -31.7921 203.206C-33.7619 201.762 -34.8942 201.839 -39.1219 203.707ZM-75.7061 209.619C-76.426 210.724 -76.4374 211.692 -75.7387 212.279C-74.5467 213.278 -73.2929 211.602 -73.7875 209.671C-74.0953 208.468 -74.9417 208.445 -75.7061 209.619ZM474.957 203.85C475.334 205.673 476.952 208.716 478.918 211.297C480.809 213.78 480.646 213.101 482.843 227.592C483.091 229.226 483.481 230.916 483.711 231.347C484.107 232.092 484.182 232.062 485.197 230.756C486.49 229.093 486.802 227.459 486.458 224.15C486.169 221.376 484.851 217.812 482.98 214.747C482.161 213.405 481.621 211.876 481.365 210.168C481.153 208.758 480.685 206.983 480.326 206.224C479.547 204.578 476.973 202.587 475.649 202.608C474.795 202.621 474.728 202.742 474.957 203.85ZM272.339 209.362C271.901 210.124 272.557 210.301 273.214 209.596C273.801 208.966 273.801 208.914 273.218 208.923C272.87 208.928 272.474 209.126 272.339 209.362ZM-38.8523 229.126C-39.4656 229.925 -40.8642 232.305 -41.9607 234.416C-43.0572 236.527 -44.7166 239.152 -45.6481 240.251L-47.3417 242.247L-50.9684 242.697C-52.9632 242.944 -54.7845 243.358 -55.0165 243.617C-57.0128 245.845 -56.3093 253.056 -54.0675 253.341C-53.6161 253.398 -52.1648 252.516 -50.5346 251.194C-47.4315 248.677 -46.5668 248.483 -43.2129 249.555C-41.2217 250.191 -41.1881 250.188 -40.5318 249.318C-38.5977 246.752 -36.2316 238.247 -35.9373 232.802C-35.6584 227.645 -36.7038 226.327 -38.8523 229.126ZM338.571 225.774C338.583 226.611 338.882 228.265 339.236 229.45C339.95 231.843 345.212 241.865 346.933 244.107C348.413 246.036 351.138 247.718 354.347 248.684C356.56 249.35 357.421 249.888 359.601 251.968C361.035 253.336 363.3 255.003 364.634 255.672C366.971 256.844 369.238 257.248 369.227 256.49C369.214 255.613 365.226 252.692 361.643 250.935C359.499 249.884 357.39 248.635 356.956 248.159C356.523 247.683 355.235 245.694 354.096 243.739C352.643 241.246 351.019 239.188 348.658 236.849C346.268 234.481 344.695 232.481 343.237 229.958C341.249 226.518 339.502 224.238 338.86 224.248C338.69 224.25 338.559 224.937 338.571 225.774ZM528.137 227.282C527.406 228.811 527.455 231.719 528.243 233.589L528.864 235.061L529.58 234.122C530.305 233.171 531.041 230.837 531.026 229.536C531.012 228.297 529.894 226.079 529.287 226.088C528.967 226.093 528.449 226.631 528.137 227.282ZM410.749 238.949C410.364 239.117 410.326 240.11 410.577 243.451C410.879 247.477 410.843 247.869 409.979 249.914C409.473 251.112 408.527 252.742 407.876 253.538C406.922 254.704 406.793 255.068 407.208 255.416C408.435 256.446 410.618 256.063 412.241 254.535C414.243 252.648 415.092 250.529 415.276 246.964C415.519 242.241 415.097 240.32 413.615 239.411C412.39 238.658 411.68 238.544 410.749 238.949ZM385.759 243.757C384.548 244.052 384.341 245.6 385.038 249.141C385.792 252.967 385.615 254.922 384.295 257.351C383.775 258.307 383.439 259.181 383.548 259.292C384.059 259.808 385.479 258.749 386.817 256.852C387.626 255.705 388.597 254.563 388.976 254.314C389.616 253.892 392.472 252.924 394.891 252.31C396.431 251.918 396.182 251.08 393.76 248.512C390.391 244.94 387.633 243.301 385.759 243.757ZM-98.745 251.996C-99.3654 252.183 -99.3962 253.274 -99.1908 267.706L-98.9701 283.215L-97.6235 283.194C-95.4884 283.161 -95.3246 282.313 -96.0187 274.899C-96.5244 269.496 -96.5366 267.672 -96.1051 261.652C-95.5323 253.655 -95.7151 251.913 -97.1352 251.842C-97.6539 251.816 -98.3782 251.885 -98.745 251.996ZM561.661 250.954C560.526 254.888 560.364 256.353 560.862 258.172C561.358 259.984 563.417 262.09 565.97 263.398L567.58 264.223L568.378 263.365C569.106 262.582 569.168 262.073 569.098 257.441C569.035 253.305 568.886 252.099 568.285 250.877C567.41 249.097 566.851 248.751 564.347 248.445L562.452 248.212L561.661 250.954ZM-43.7225 265.383C-45.5384 269.459 -46.2132 270.341 -48.5961 271.754C-50.2666 272.744 -51.1792 274.625 -51.663 278.073C-52.4173 283.45 -56.5467 290.399 -59.7574 291.696C-63.7832 293.32 -65.1722 294.007 -65.7015 294.635C-67.477 296.741 -66.7231 305.208 -64.6912 305.984C-64.3747 306.105 -63.3283 305.662 -62.3665 304.999C-57.5361 301.673 -56.6746 302.187 -54.9713 309.415C-54.1356 312.96 -54.0822 313.647 -54.4515 316.108C-55.2103 321.168 -56.438 322.872 -63.3197 328.416C-70.2229 333.977 -72.8839 336.483 -75.1385 339.547C-77.7202 343.054 -77.933 343.613 -78.1915 347.568C-78.3838 350.505 -78.5804 351.283 -79.4035 352.369C-81.9274 355.695 -84.1687 359.393 -84.9075 361.451C-86.0469 364.624 -86.0266 370.275 -84.868 372.262C-83.3938 374.79 -82.9605 374.38 -81.359 368.946C-79.9724 364.24 -76.9002 354.148 -76.0796 351.604C-75.6063 350.136 -60.8805 334.001 -58.5102 332.353C-55.2566 330.091 -53.7279 330.879 -52.7001 335.345C-52.1835 337.59 -51.5067 338.457 -49.446 339.513C-47.3221 340.601 -46.2027 341.958 -44.6823 345.285C-43.9503 346.886 -41.8222 350.53 -39.9528 353.381C-37.2975 357.432 -35.5552 359.555 -31.9866 363.089C-27.2742 367.756 -26.8358 368.427 -25.3174 373.306C-24.2351 376.785 -23.7671 377.633 -21.4628 380.296C-18.9373 383.214 -18.1403 385.727 -18.3936 389.971C-18.7924 396.647 -21.5589 406.82 -23.477 408.664C-23.9324 409.101 -25.3802 409.887 -26.6947 410.409C-29.5862 411.559 -30.5695 412.749 -30.5366 415.061C-30.5097 416.95 -29.3423 418.828 -28.205 418.81C-27.3617 418.797 -25.0918 416.173 -24.0926 414.056C-23.0867 411.924 -22.4359 411.425 -21.0474 411.72C-18.7637 412.206 -16.7753 415.117 -16.726 418.046C-16.6899 420.178 -14.3779 421.369 -13.1812 419.873C-12.2127 418.663 -12.0874 417.767 -11.8535 410.388C-11.7284 406.441 -11.3025 400.696 -10.9072 397.622C-10.3892 393.593 -10.2307 390.379 -10.3399 386.117L-10.4918 380.202L-8.94999 376.997C-8.10219 375.234 -7.4132 373.439 -7.41934 373.007C-7.43841 371.667 -8.61215 369.773 -10.6904 367.728C-11.7882 366.648 -13.1532 365.129 -13.7243 364.354C-14.5114 363.284 -15.3572 362.744 -17.2255 362.118C-18.5807 361.665 -20.2432 361.302 -20.9201 361.313C-23.2931 361.349 -26.6487 358.862 -28.0303 356.043C-28.3502 355.39 -29.0111 353.65 -29.4991 352.177C-30.2361 349.951 -30.8838 348.951 -33.3315 346.259C-36.6385 342.622 -38.0497 340.541 -40.4108 335.82C-43.8456 328.952 -44.5916 325.159 -43.7109 319.038C-43.1853 315.388 -43.4506 314.535 -45.3833 313.663C-50.3911 311.403 -50.0885 306.625 -44.1959 294.904C-43.6353 293.79 -42.8753 292.041 -42.5062 291.018C-41.0548 286.993 -38.8899 286.18 -34.4633 287.996L-32.169 288.938L-31.3175 288.079C-30.1975 286.95 -29.5958 284.856 -29.5983 282.1C-29.6013 279.384 -30.0156 278.816 -32.6127 277.966C-33.7061 277.609 -34.9768 277.07 -35.4367 276.769C-36.366 276.161 -37.3225 274.053 -37.7464 271.679C-38.3416 268.349 -40.7847 261.196 -41.3247 261.204C-41.631 261.209 -42.6661 263.012 -43.7225 265.383ZM437.06 256.588C434.58 257.244 431.352 259.84 432.318 260.401C432.838 260.702 444.457 260.928 445.119 260.649C446.849 259.921 445.051 257.582 442.083 256.701C440.104 256.113 438.951 256.087 437.06 256.588ZM394.043 266.595C392.404 267.378 391.459 268.685 391.479 270.137C391.516 272.737 395.973 274.916 399.259 273.94C401.014 273.418 401.587 272.582 401.558 270.583C401.51 267.213 397.357 265.009 394.043 266.595ZM412.397 274.201C411.752 274.892 411.849 275.593 412.631 275.905C413.775 276.362 417.136 277.178 417.272 277.032C417.658 276.618 416.695 275.093 415.637 274.443C414.242 273.587 413.052 273.497 412.397 274.201ZM383.356 282.366C383.159 282.932 383.002 283.696 383.006 284.065C383.031 285.957 381.225 292.672 380.324 294.038C379.774 294.871 378.907 296.169 378.398 296.922C377.337 298.489 377.25 299.719 378.083 301.339C378.797 302.726 380.769 304.203 381.651 304.012C382.385 303.853 382.794 302.578 382.818 300.368C382.841 298.351 383.677 296.286 384.788 295.502C385.288 295.15 386.487 294.737 387.454 294.583C388.947 294.347 389.708 294.518 392.522 295.727C395.03 296.803 396.355 297.141 397.978 297.115C401.096 297.067 401.268 296.578 398.958 294.339C396.631 292.082 395.904 290.235 396.212 287.365C396.67 283.099 396.725 283.321 395.239 283.431C389.522 283.856 389.387 283.842 386.918 282.565C385.599 281.884 384.339 281.329 384.117 281.332C383.896 281.336 383.553 281.801 383.356 282.366ZM122.147 293.508C121.686 294.04 120.928 295.779 120.461 297.372C119.877 299.359 119.156 300.796 118.161 301.955C115.692 304.83 115.396 306.734 116.911 309.996C118.039 312.424 120.044 314.178 122.645 315.009C124.911 315.732 125.958 315.765 127.429 315.159C130.078 314.066 130.905 311.816 129.378 309.855C128.008 308.095 127.316 305.557 126.976 301.045C126.627 296.393 125.722 293.753 124.196 292.932C123.177 292.384 123.098 292.406 122.147 293.508ZM-29.3032 296.515C-30.2281 297.296 -30.296 297.579 -30.2547 300.482C-30.2302 302.201 -30.0978 303.899 -29.9607 304.256C-29.6493 305.065 -24.2164 309.159 -23.4688 309.148C-22.5766 309.134 -21.4134 307.195 -20.635 304.424C-18.9177 298.312 -20.6186 295.554 -26.0521 295.638C-27.7547 295.665 -28.5514 295.879 -29.3032 296.515ZM143.166 315.64C141.651 317.382 141.363 318.309 141.427 321.219C141.491 324.079 142.137 326.552 142.884 326.793C143.48 326.986 146.302 322.699 146.811 320.829C147.339 318.889 146.879 316.633 145.715 315.456C144.542 314.27 144.344 314.285 143.166 315.64ZM100.03 342.209C97.5667 346.549 96.7113 347.19 92.116 348.147L89.5837 348.674L89.7221 351.308C89.8544 353.827 89.8089 353.989 88.6766 355.011C87.1607 356.381 85.3984 357.18 82.0663 358.009C78.0103 359.017 75.7425 360.394 72.8372 363.611C70.0015 366.751 68.4418 369.639 67.9296 372.7C67.5722 374.836 67.7737 375.883 68.5405 375.871C68.8055 375.867 70.0668 374.16 71.3431 372.076C74.0769 367.615 77.7073 363.718 80.279 362.486C83.2865 361.044 87.5839 360.906 91.8607 362.113C95.6614 363.185 96.695 363.299 97.0492 362.681C97.1754 362.461 96.3878 360.822 95.2986 359.039C94.2099 357.255 93.3132 355.34 93.3064 354.783C93.2944 353.805 96.4472 350.43 102.13 345.337C103.923 343.73 104.26 342.608 103.423 341.034C102.662 339.603 101.228 340.1 100.03 342.209ZM86.2692 342.062C85.7189 343.173 85.7831 344.349 86.4668 345.677C87.1127 346.933 88.2292 347.574 88.2165 346.682C88.2066 345.989 87.0732 341.658 86.8396 341.422C86.7468 341.328 86.4904 341.616 86.2692 342.062ZM377.082 339.992C375.506 341.12 373.687 343.622 372.593 346.167C371.666 348.325 371.415 350.47 372.09 350.46C372.298 350.457 373.425 349.524 374.595 348.388C378.792 344.308 381.029 344.165 383.511 347.815C384.625 349.452 385.694 349.35 386.852 347.497C389.717 342.913 387.495 339.673 381.247 339.327C378.652 339.183 378.087 339.273 377.082 339.992ZM21.1373 352.998C19.7325 354.007 19.4798 357.239 20.6845 358.787C21.1132 359.338 22.635 360.43 24.0661 361.215C25.4971 361.999 27.2307 363.186 27.9188 363.85C29.0051 364.901 29.2892 365 30.0812 364.61C30.5826 364.362 31.1635 363.624 31.3722 362.969C31.8449 361.486 31.4791 360.724 28.5088 357.008C25.7659 353.576 22.6738 351.895 21.1373 352.998ZM57.5502 359.802C56.2885 361.244 54.3098 364.335 53.9426 365.437C53.5574 366.592 55.2405 366.273 56.7968 364.895C58.924 363.012 60.6283 358.459 59.1972 358.481C58.923 358.485 58.1818 359.08 57.5502 359.802ZM-97.7581 367.302C-97.6764 372.021 -97.6439 372.206 -97.0927 371.107C-96.3889 369.704 -96.5846 363.615 -97.3588 362.832C-97.7469 362.44 -97.8268 363.334 -97.7581 367.302ZM534.165 363.724C532.119 365.265 531.209 369.81 532.461 372.242C532.793 372.887 533.959 373.84 535.287 374.551C539.383 376.745 539.93 378.137 539.132 384.323C538.85 386.509 538.683 389.93 538.76 391.928C538.888 395.24 538.812 395.721 537.899 397.402C536.591 399.808 533.317 403.635 531.882 404.437C531.259 404.785 529.27 405.21 527.461 405.383C524.286 405.684 524.153 405.737 523.632 406.899C522.913 408.501 522.761 414.576 523.348 418.276C523.678 420.354 524.348 422.317 525.587 424.834C527.687 429.096 527.886 430.992 526.504 433.536C525.591 435.215 515.116 446.17 513.589 447.042C511.489 448.242 504.521 447.037 502.852 445.185C501.93 444.163 501.315 442.38 500.902 439.529C500.743 438.436 500.276 436.65 499.864 435.56C499.452 434.471 498.914 431.879 498.67 429.8C497.586 420.587 496.347 417.212 493.237 414.999C491.003 413.41 490.372 411.641 490.035 406.023C489.746 401.203 489.351 399.433 488.668 399.887C487.924 400.383 486.856 403.674 486.099 407.807C485.138 413.055 485.395 418.466 486.891 424.51C488.132 429.52 488.872 431.147 489.903 431.131C490.822 431.117 491.478 433.261 491.62 436.743C491.712 439.01 491.641 439.237 490.486 440.345C489.435 441.353 489.148 442.065 488.545 445.158C487.498 450.543 486.39 452.306 484.031 452.343C483.461 452.352 481.742 452.894 480.212 453.549C477.579 454.675 477.334 454.892 475.622 457.605C473.462 461.027 472.985 461.141 470.078 458.935C468.946 458.075 467.784 457.376 467.498 457.38C466.594 457.394 466.116 458.963 466.414 460.929C466.882 464.018 468.994 471.547 470.527 475.597C472.281 480.228 472.563 482.572 471.772 485.945C471.36 487.703 471.22 489.85 471.318 492.931C471.415 495.967 471.252 498.537 470.807 501.024C470.189 504.468 470.19 504.726 470.82 505.696C471.709 507.065 473.19 508.003 474.432 507.983C475.167 507.972 475.886 507.427 477.047 506C478.405 504.333 478.757 504.097 479.353 504.457C481.06 505.488 481.158 506.382 480.866 518.305C480.693 525.357 480.386 530.544 480.036 532.305C478.495 540.066 478.105 542.719 477.806 547.492C477.627 550.348 477.245 554.21 476.958 556.073C476.301 560.328 476.342 564.073 477.063 565.799C477.426 566.667 478.436 567.691 479.96 568.736C481.473 569.772 482.681 570.994 483.376 572.187C484.736 574.526 486.181 579.784 486.733 584.407C487.434 590.275 487.782 591.113 490.933 594.52C495.195 599.129 496.211 601.659 497.039 609.719C497.844 617.553 498.88 621.254 500.527 622.182C500.881 622.381 502.561 622.434 504.261 622.301C506.75 622.106 507.742 622.207 509.352 622.822C510.451 623.242 511.445 623.485 511.559 623.363C511.977 622.914 511.685 619.396 510.938 615.889C509.824 610.661 508.015 607.383 503.905 603.149C502.679 601.884 500.847 599.622 499.836 598.12C498.239 595.749 497.781 594.583 496.352 589.239C494.216 581.252 493.985 580.05 493.473 574.26C492.774 566.341 491.874 563.851 488.15 559.524C485.532 556.482 484.591 554.028 484.56 550.168C484.527 546.061 485.92 543.579 489.559 541.263C491.62 539.952 491.668 538.914 489.848 535.021C488.203 531.499 487.089 527.414 487.039 524.712C487.003 522.77 487.571 521.343 489.929 517.46C492.338 513.496 492.726 511.932 492.424 507.407C492.137 503.086 491.462 501.266 488.63 497.167C486.02 493.388 485.011 490.388 484.965 486.266C484.938 483.888 485.14 482.682 485.879 480.808C486.401 479.485 487.37 476.864 488.032 474.984C488.694 473.104 489.585 470.825 490.012 469.92C491.171 467.464 493.942 464.718 496.699 463.295C498.046 462.6 500.293 460.949 501.694 459.627C504.258 457.208 507.399 455.193 511.265 453.487C512.889 452.77 514.171 452.543 517.016 452.469C521.903 452.343 523.067 451.565 525.296 446.933C527.047 443.295 528.111 442.338 530.934 441.858C531.909 441.692 535.014 440.397 537.834 438.979C540.654 437.561 543.903 436.07 545.055 435.666C549.827 433.989 555.682 429.824 555.658 428.122C555.639 426.8 550.785 428.505 546.333 431.397C544.9 432.328 543.312 433.096 542.805 433.104C541.012 433.131 539.337 431.97 538.394 430.046C537.583 428.392 537.489 427.677 537.466 423.024C537.444 418.808 537.65 416.766 538.574 412.048C539.298 408.346 539.789 404.368 539.932 401.036L540.157 395.82L542.439 390.836C544.436 386.473 544.923 384.899 546.338 378.224C547.947 370.629 548.287 366.772 547.482 365.259C547.121 364.58 546.635 364.5 543.168 364.546C540.106 364.586 538.899 364.433 537.584 363.835C535.559 362.916 535.252 362.906 534.165 363.724ZM40.2546 383.323C39.4056 383.738 39.7626 384.525 41.4042 385.858C42.2896 386.577 44.7354 388.811 46.8395 390.822C48.9437 392.833 50.9129 394.475 51.2157 394.47C52.2108 394.455 52.5918 393.033 52.1067 391.145C51.0773 387.138 46.7703 383.488 42.7598 383.225C41.6429 383.151 40.5159 383.195 40.2546 383.323ZM106.97 382.708C106.828 382.861 106.721 383.673 106.733 384.513C106.758 386.276 107.743 386.664 108.106 385.055C108.492 383.348 107.768 381.852 106.97 382.708ZM-97.3286 397.613C-97.2765 400.361 -97.2388 400.485 -96.7407 399.545C-96.0363 398.216 -96.071 395.777 -96.8031 395.163C-97.3106 394.737 -97.377 395.046 -97.3286 397.613ZM18.5295 395.53C18.537 396.054 18.8146 397.799 19.1466 399.406C19.4785 401.013 19.8072 402.954 19.8773 403.718C20.1853 407.081 22.859 404.391 22.8101 400.767C22.7799 398.512 22.0837 397 20.4272 395.591C18.9346 394.321 18.5121 394.308 18.5295 395.53ZM75.1586 413.409C74.8736 414.219 75.3232 414.82 76.2032 414.807C76.9814 414.795 77.0948 414.478 76.694 413.437C76.3917 412.652 75.4314 412.634 75.1586 413.409ZM67.1107 419.957C65.3694 421.53 64.6989 423.202 64.7104 425.943C64.7227 428.854 65.8321 431.438 67.1439 431.612C67.6183 431.675 68.0049 431.638 68.0034 431.531C68.0019 431.424 68.4062 429.036 68.9017 426.224C69.3972 423.412 69.7451 420.659 69.6753 420.106C69.5 418.725 68.5368 418.669 67.1107 419.957ZM-88.6867 424.206C-90.6438 426.398 -93.3469 431.922 -93.5932 434.234C-93.7343 435.555 -93.5887 436.266 -92.9761 437.251C-91.9724 438.864 -89.7107 440.036 -88.7892 439.421C-87.9211 438.841 -85.409 430.445 -85.2116 427.462C-85.0235 424.628 -85.4949 422.736 -86.4323 422.563C-86.8411 422.488 -87.7327 423.137 -88.6867 424.206ZM-25.5961 431.505C-27.2329 432.58 -27.8079 433.624 -29.5333 438.659C-32.6282 447.692 -32.8709 448.56 -32.5992 449.622C-31.9702 452.078 -30.1936 451.045 -28.3919 447.178C-27.7052 445.704 -26.2818 442.969 -25.2285 441.102C-23.4645 437.973 -22.2252 434.638 -22.2474 433.081C-22.2594 432.238 -23.3528 430.69 -23.9287 430.701C-24.1796 430.706 -24.9299 431.067 -25.5961 431.505ZM-77.7799 455.165C-77.7615 456.453 -71.8033 460.578 -68.0728 461.885C-65.1577 462.906 -59.8067 462.21 -57.0016 460.445C-55.4139 459.446 -53.2393 456.437 -53.54 455.656C-53.8474 454.856 -55.3135 454.944 -59.2816 455.999C-63.4188 457.099 -67.3379 456.979 -72.9884 455.578C-77.3798 454.49 -77.79 454.454 -77.7799 455.165ZM-89.9616 462.407C-90.8058 462.939 -92.0093 466.13 -92.4772 469.079C-93.3352 474.485 -90.7625 479.286 -84.9931 483.046C-81.1121 485.575 -79.4485 485.74 -71.0519 484.43C-69.1627 484.135 -67.1498 483.633 -66.5786 483.315C-65.283 482.592 -64.8641 480.958 -65.6229 479.591C-66.4328 478.132 -68.1189 478.11 -71.0208 479.522C-74.445 481.188 -76.8105 481.108 -80.6663 479.196C-85.5205 476.79 -88.6038 473.468 -89.8341 469.318C-90.26 467.882 -90.2235 467.355 -89.5442 465.152C-88.5047 461.781 -88.5452 461.515 -89.9616 462.407ZM42.3303 464.214C41.8714 464.706 42.1282 468.558 42.7602 470.66C43.6977 473.778 45.0728 475.121 47.5449 475.33C48.6766 475.425 50.1884 475.274 50.9884 474.985C52.2933 474.514 52.5843 474.56 54.4261 475.527C57.187 476.977 59.3615 477.161 60.6666 476.056C62.8501 474.205 63.8958 469.926 62.8065 467.298C62.0883 465.565 61.1573 465.704 59.6868 467.764C57.515 470.808 56.1866 472.154 54.3599 473.162C53.3754 473.706 52.4958 474.152 52.4052 474.153C52.3146 474.155 50.2855 471.855 47.8961 469.042C43.8486 464.278 42.9757 463.521 42.3303 464.214ZM522.867 468.223C519.692 469.202 513.286 473.696 510.369 476.989C506.959 480.84 505.78 483.507 506.099 486.649C506.532 490.917 510.15 496.116 511.297 494.117C511.438 493.87 511.664 491.57 511.798 489.004C512.081 483.613 512.835 480.993 515.174 477.276C517.501 473.579 518.245 473.126 521.999 473.119C525.91 473.111 530.204 474.002 531.956 475.185C534.734 477.06 541.472 483.419 542.993 485.602C545.034 488.531 546.483 489.908 546.972 489.383C547.217 489.12 546.985 488.247 546.293 486.828C545.528 485.26 543.647 483.065 539.388 478.773C536.169 475.528 532.885 472.061 532.091 471.068C529.707 468.088 526.505 467.1 522.867 468.223ZM65.6859 483.014C65.6936 483.178 66.9327 484.101 68.4393 485.064C70.3289 486.272 72.1429 487.947 74.2883 490.467C77.2094 493.897 79.2178 495.55 79.7592 494.969C80.2422 494.451 79.936 492.258 79.1544 490.638C77.0292 486.232 71.8387 482.62 67.7238 482.684C66.5953 482.701 65.6782 482.85 65.6859 483.014ZM398.345 479.431C397.913 480.492 397.486 482.136 397.397 483.085C397.258 484.566 397.386 484.969 398.304 485.939C398.893 486.559 399.896 487.283 400.535 487.547C401.56 487.971 401.759 487.937 402.238 487.251C402.952 486.231 402.564 482.973 401.374 479.977C400.201 477.026 399.385 476.879 398.345 479.431ZM439.446 491.189C436.689 494.719 434.806 502.021 436.487 502.664C436.86 502.807 438.016 502.428 439.224 501.768C442.05 500.222 442.785 498.741 442.51 495.139C442.213 491.244 440.813 489.439 439.446 491.189ZM564.427 494.985C563.692 496.52 564 498.513 565.131 499.548C565.916 500.267 565.945 500.266 566.462 499.507C566.995 498.723 567.141 495.494 566.696 494.337C566.293 493.289 565.071 493.639 564.427 494.985ZM-2.42685 509.086C-3.84656 513.801 -3.01108 525.848 -1.2169 526.534C0.18344 527.069 1.37833 521.769 1.29522 515.391C1.21809 509.488 0.68788 507.63 -0.912963 507.655C-1.81932 507.669 -2.0722 507.908 -2.42685 509.086ZM404.979 504.274C403.747 505.69 401.538 511.029 401.559 512.539C401.57 513.286 401.779 514.559 402.024 515.367C402.388 516.569 402.359 517.067 401.862 518.106C401.179 519.534 395.068 525.13 391.692 527.419C387.602 530.194 386.374 531.341 385.831 532.897C385.361 534.241 385.371 534.481 385.912 535.029C386.72 535.846 388.082 535.33 392.098 532.683C396.665 529.672 401.267 527.412 404.243 526.716C408.449 525.732 411.305 526.278 416.289 529.017C420.635 531.405 426.559 536.308 427.525 538.317C427.88 539.054 428.243 541.828 428.513 545.853C429.314 557.834 428.596 560.057 422.279 565.141C417.806 568.741 410.986 574.961 410.33 576.037C408.883 578.415 410.258 578.862 413.8 577.164C418.022 575.141 421.127 576.076 420.763 579.263C420.384 582.576 415.456 588.586 412.031 589.911C410.985 590.316 409.417 590.919 408.546 591.251C406.728 591.944 405.93 593.41 404.944 597.869C403.748 603.276 401.528 606.932 398.854 607.897C397.256 608.474 396.153 608.248 393.257 606.749C392.047 606.123 390.788 605.615 390.459 605.62C390.131 605.625 389.134 606.349 388.244 607.229C384.652 610.783 382.001 610.613 376.784 606.496C375.558 605.528 373.756 604.348 372.78 603.874C371.31 603.16 370.849 602.656 370.084 600.925C368.868 598.17 364.752 592.354 363.141 591.113C362.437 590.571 361.331 590.026 360.682 589.901C359.477 589.669 356.95 590.36 356.568 591.026C356.452 591.229 356.879 592.061 357.519 592.875C358.158 593.689 359.053 595.464 359.508 596.82C361.491 602.731 359.895 611.658 356.472 613.807C355.406 614.476 354.999 614.51 352.591 614.133C349.332 613.625 348.019 613.924 347.544 615.285C347.349 615.844 347.105 618.05 347.001 620.187C346.771 624.918 347.105 625.816 349.084 625.786C350.67 625.761 351.539 626.168 353.748 627.973C355.607 629.491 356.337 631.362 355.831 633.31C355.653 633.993 354.563 635.615 353.409 636.914C352.254 638.213 350.877 640.301 350.348 641.554C348.955 644.851 349.276 645.466 353.546 647.691C355.443 648.679 357.189 649.407 357.427 649.308C358.452 648.879 359.171 645.999 359.579 640.694C360.027 634.855 359.969 635.04 363.178 629.405C363.918 628.107 365.047 625.32 365.688 623.213C367.077 618.642 367.952 617.524 370.164 617.49C372.003 617.462 372.962 617.894 374.658 619.517C375.754 620.565 376.063 620.665 377.348 620.389C378.147 620.217 379.572 619.915 380.516 619.717C383.416 619.108 384.738 619.711 387.74 623.005C389.213 624.622 390.692 625.94 391.027 625.935C391.361 625.93 392.011 625.247 392.471 624.418C394.441 620.865 396.529 619.627 398.749 620.697C400.237 621.414 401.377 623.265 402.629 626.997C403.831 630.579 405.081 632.371 406.086 631.951C407.806 631.233 410.955 618.75 411.359 611.053C411.605 606.354 411.808 605.645 413.353 604.094C414.183 603.26 414.841 603.063 417.543 602.833C420.45 602.587 420.882 602.439 422.198 601.246C422.997 600.522 424.417 599.424 425.355 598.806C427.756 597.223 430.741 597.254 435.876 598.914C443.208 601.286 445.668 603.404 448.235 609.556C452.097 618.813 453.49 621.383 454.637 621.366C455.957 621.345 457.931 613.146 457.439 609.723C457.025 606.838 456.041 605.607 452.887 604.026C448.668 601.911 447.853 601.129 445.214 596.665C443.498 593.763 441.508 591.179 438.407 587.825C432.995 581.972 431.974 580.102 431.915 575.935C431.88 573.498 432.138 572.104 433.325 568.321C434.123 565.774 435.171 562.249 435.652 560.488C436.133 558.727 437.126 555.753 437.858 553.879C439.437 549.834 439.488 548.835 438.207 547.058C437.341 545.857 433.784 540.662 432.072 538.1C431.711 537.559 430.933 535.584 430.343 533.711C429.753 531.839 428.758 529.287 428.132 528.041C426.757 525.305 426.684 523.747 427.706 518.953C428.494 515.252 428.398 513.634 427.367 513.24C427.033 513.113 425.194 513.39 423.278 513.857C419.167 514.858 417.33 514.944 415.583 514.215C413.587 513.382 413.031 512.263 412.984 508.992C412.958 507.192 412.765 505.996 412.46 505.747C411.791 505.201 407.043 503.346 406.342 503.356C406.027 503.361 405.414 503.774 404.979 504.274ZM355.775 524.394C354.792 525.336 354.577 525.853 354.567 527.301C354.556 528.844 354.662 529.077 355.425 529.178C356.611 529.335 360.015 528.056 360.879 527.13C361.764 526.18 361.253 524.824 359.648 523.87C358.104 522.951 357.143 523.081 355.775 524.394ZM-41.471 533.707C-41.4427 535.695 -34.9576 546.717 -32.501 548.952C-31.6918 549.688 -31.6808 549.687 -31.6923 548.873C-31.6988 548.42 -32.2571 546.605 -32.9328 544.84C-35.3384 538.558 -41.5166 530.502 -41.471 533.707ZM-80.2305 545.023C-81.0071 545.341 -80.7349 548.557 -79.7201 551.053C-78.4882 554.082 -72.9768 562.829 -71.8176 563.595C-70.5842 564.41 -70.0072 563.939 -70.3407 562.388C-70.4885 561.699 -71.6796 558.641 -72.9872 555.593C-76.2152 548.068 -78.7246 544.406 -80.2305 545.023ZM508.139 536.667C506.3 538.011 505.233 540.304 505.269 542.835C505.284 543.927 505.468 544.926 505.677 545.057C505.886 545.187 506.594 544.475 507.249 543.475C508.944 540.889 510.395 540.249 514.1 540.457C517.784 540.662 517.934 540.256 515.192 537.484C513.449 535.721 513.166 535.58 511.429 535.606C510.05 535.628 509.177 535.909 508.139 536.667ZM-57.9729 556.07C-58.5506 556.386 -59.1871 557.352 -59.6275 558.581C-62.3033 566.046 -62.5494 566.517 -64.6461 568.198L-66.6756 569.824L-66.4584 572.42C-66.1889 575.638 -64.1979 579.965 -62.9956 579.947C-61.8009 579.928 -60.2657 577.224 -58.1654 571.437C-56.0394 565.58 -55.2375 562.042 -55.2749 558.686C-55.3088 555.691 -56.0189 555.002 -57.9729 556.07ZM152.182 567.72C152.187 568.083 153.53 569.683 155.166 571.274C160.133 576.106 165.735 579.359 165.707 577.395C165.689 576.147 163.808 573.381 161.705 571.512C158.011 568.228 152.156 565.896 152.182 567.72ZM348.505 594.811C347.241 596.259 346.329 599.938 347.243 599.906C347.547 599.895 349.409 596.422 349.964 594.832C350.4 593.582 349.588 593.571 348.505 594.811ZM-7.3042 621.358C-10.1957 622.478 -11.122 623.512 -11.0925 625.586C-11.0652 627.501 -10.0859 629.012 -8.25777 629.962C-7.17606 630.524 -6.9076 630.519 -5.13643 629.911C-4.071 629.544 -2.21732 628.955 -1.01784 628.6C1.46074 627.867 2.13022 626.986 1.7378 624.973C1.22322 622.332 -1.24733 620.403 -3.98041 620.509C-4.67046 620.535 -6.16638 620.918 -7.3042 621.358ZM150.587 619.76C149.895 621.149 149.774 626.512 150.415 627.353C151.234 628.425 151.868 627.616 152.234 625.031C152.798 621.047 151.699 617.528 150.587 619.76ZM529.093 631.305C528.3 632.097 527.714 633.459 526.907 636.389C526.3 638.59 525.536 640.8 525.209 641.299C524.131 642.946 522.535 643.54 519.877 643.285L517.481 643.055L517.246 644.651C516.838 647.416 518.37 657.153 519.722 660.387C520.81 662.99 521.29 662.953 523.872 660.067C526.468 657.167 527.859 656.5 529.312 657.46C530.811 658.451 531.322 659.584 532.802 665.203C536.142 677.882 540.547 688.582 542.414 688.553C543.12 688.542 543.009 684.013 542.203 679.989C541.852 678.241 541.198 674.342 540.748 671.326C540.298 668.309 539.296 663.483 538.52 660.6C537.621 657.257 536.637 651.977 535.802 646.015C534.393 635.947 533.771 633.188 532.559 631.632C531.395 630.135 530.36 630.037 529.093 631.305ZM390.722 638.096C390.192 639.617 390.305 641.714 390.947 642.252C391.812 642.977 392.429 641.352 392.093 639.232C391.759 637.129 391.217 636.679 390.722 638.096ZM451.163 648.149C450.036 649.1 449.845 650.815 450.825 651.19C452.162 651.701 453.893 649.363 453.175 648.014C452.688 647.097 452.384 647.117 451.163 648.149ZM336.091 651.241C335.985 651.543 335.619 653.807 335.277 656.271C334.668 660.67 334.671 660.778 335.426 662.167C336.34 663.848 338.413 665.019 340.575 665.075C342.766 665.132 343.114 664.63 342.515 662.277C341.825 659.566 338.968 653.167 337.846 651.819C336.797 650.558 336.38 650.42 336.091 651.241ZM141.667 658.886C136.14 661.715 134.822 663.894 133.974 671.61C133.145 679.147 131.429 683.623 128.594 685.641C127.377 686.507 126.477 686.76 123.718 687.006C121.781 687.179 120.072 687.541 119.721 687.854C119.384 688.154 118.645 689.42 118.08 690.666C117.117 692.786 117.044 693.355 116.937 699.509C116.832 705.615 116.753 706.232 115.844 708.124C115.188 709.49 114.138 710.749 112.663 711.941C110.2 713.932 106.063 717.545 104.57 719.009C103.351 720.205 102.381 722.419 100.361 728.617C99.4927 731.283 98.3908 734.596 97.9128 735.979C97.1593 738.162 97.1204 738.544 97.6198 738.857C98.3979 739.345 99.5151 739.013 103.432 737.13C107.211 735.314 108.849 735.076 109.174 736.296C109.291 736.736 109.161 738.307 108.886 739.788C108.272 743.084 108.283 746.344 108.908 746.976C109.164 747.235 109.836 747.44 110.401 747.431C111.568 747.413 111.758 747.065 113.899 741.001C115.372 736.831 116.269 733.078 116.251 731.165C116.231 729.12 118.278 725.35 121.644 721.234C125.304 716.756 125.549 716.307 126.825 711.71C127.404 709.621 128.8 706.369 130.44 703.286C134.269 696.084 139.039 685.273 140.536 680.4C144.289 668.188 146.162 660.076 145.619 658.38C145.285 657.34 144.486 657.443 141.667 658.886ZM356.207 657.598C353.417 661.739 352.943 666.223 355.008 668.959C356.458 670.879 360.509 673.501 361.761 673.329C362.583 673.217 362.74 672.967 362.825 671.644C363.011 668.766 360.08 658.302 358.638 656.69C357.697 655.638 357.471 655.722 356.207 657.598ZM150.386 675.961C148.383 678.644 146.073 687.818 145.421 695.682C145.146 699.006 145.828 702.113 147.254 704.022C152.893 711.571 152.969 711.863 153.692 728.829C154.208 740.945 154.687 745.244 155.582 745.802C156.444 746.338 158.419 743.051 160.158 738.185C161.121 735.491 162.823 730.94 163.94 728.073C166.61 721.225 166.698 720.063 164.84 716.239C163.599 713.684 163.347 712.701 163.015 709.127C162.76 706.375 162.301 704.114 161.651 702.405C160.424 699.175 158.78 693.548 157.996 689.886C157.349 686.869 154.214 679.021 152.822 676.937C151.879 675.526 150.98 675.166 150.386 675.961ZM45.568 684.377C42.8613 686.338 40.648 690.712 41.526 692.362C42.0436 693.335 42.2245 693.3 44.2844 691.832C47.3017 689.682 49.8917 685.625 49.2729 684.017C48.9336 683.136 47.0253 683.321 45.568 684.377ZM8.52442 686.987C8.52872 687.288 10.136 689.998 12.0963 693.009C14.0563 696.02 16.6881 700.619 17.9439 703.23C21.5348 710.695 23.9674 713.285 26.3038 712.131C27.8262 711.38 27.5066 709.862 25.3368 707.538C24.2286 706.351 22.5394 703.739 21.1886 701.123C18.5276 695.971 14.9579 691.236 11.6145 688.424C9.15421 686.354 8.51117 686.055 8.52442 686.987ZM-10.6296 693.32C-11.37 695.001 -11.4259 696.043 -10.7626 695.806C-10.1426 695.583 -9.25439 692.655 -9.67742 692.227C-9.85672 692.046 -10.2854 692.538 -10.6296 693.32ZM-46.1633 695.752C-46.5124 696.031 -47.2122 697.601 -47.7187 699.239C-48.2255 700.878 -49.0019 702.633 -49.4442 703.138C-49.8864 703.643 -51.3799 704.463 -52.7629 704.959C-55.8939 706.083 -55.9796 706.158 -56.7778 708.474C-57.1375 709.518 -58.0644 711.368 -58.8381 712.585C-60.5363 715.258 -60.7259 716.259 -60.3154 720.379C-60.0142 723.4 -60.1776 727.637 -60.6979 730.293C-60.8502 731.07 -62.2374 732.963 -64.562 735.567C-68.5605 740.046 -70.3394 742.77 -70.9571 745.359C-71.5537 747.862 -70.8997 748.957 -67.9551 750.385C-63.9228 752.341 -63.0568 753.625 -61.0161 760.672C-59.7284 765.12 -58.8814 767.061 -58.0837 767.392C-57.7397 767.534 -56.3365 767.867 -54.9653 768.13C-53.5941 768.394 -52.0029 768.789 -51.4291 769.01C-50.0876 769.525 -43.9947 775.238 -42.1591 777.702L-40.7467 779.599L-40.4223 787.691C-40.0836 796.143 -39.7635 798.102 -37.4157 806.103C-36.1361 810.463 -35.6198 811.211 -32.4803 813.243C-29.3053 815.299 -27.6269 816.985 -25.9236 819.832C-24.6016 822.04 -22.0977 824.354 -18.2459 826.925C-16.349 828.191 -15.255 829.91 -13.4717 834.426C-12.0551 838.013 -10.7703 839.917 -9.2547 840.677C-8.68297 840.963 -6.79205 841.377 -5.05269 841.598C0.294519 842.275 1.89063 843.665 3.00724 848.615C3.96216 852.847 5.0217 855.56 6.13183 856.614C7.06322 857.499 7.09039 857.5 11.9218 856.93C15.9769 856.451 17.1119 856.164 18.8135 855.184C19.9339 854.538 21.8955 853.739 23.173 853.408C26.1106 852.646 26.7166 852.039 27.6685 848.905C28.206 847.135 28.8407 845.989 29.7673 845.116L31.0956 843.864L35.3664 843.899L39.6377 843.934L42.0144 842.253C45.2512 839.964 46.4698 839.797 51.4341 840.963C59.6093 842.882 62.9841 845.64 64.4482 851.6C65.1365 854.402 65.8441 855.392 67.0386 855.224C68.719 854.988 69.4841 853.378 69.4385 850.176C69.3763 845.802 68.5777 844.415 64.2241 841.117C57.8385 836.281 55.7101 835.685 49.7058 837.052C45.636 837.979 44.0003 837.675 41.814 835.59C39.9787 833.84 40.195 832.884 43.2898 829.065C45.99 825.732 46.5478 823.992 45.4539 822.308C45.0855 821.74 44.4718 820.36 44.0902 819.242C43.4607 817.396 43.2797 817.198 42.1254 817.099C39.2553 816.851 36.6813 818.783 35.1703 822.321C34.2822 824.399 33.3651 824.812 28.6762 825.242C26.3566 825.454 23.8607 825.826 23.1293 826.068C19.6081 827.234 16.9123 826.332 12.9016 822.644C8.65793 818.743 6.55292 817.18 5.56166 817.195C4.86909 817.206 4.64309 817.426 4.65239 818.08C4.67913 819.958 6.41593 822.391 11.0598 827.056C15.1154 831.13 16.0871 832.345 17.1795 834.709C18.2838 837.097 18.4872 837.977 18.5368 840.577C18.5844 843.059 18.4498 843.844 17.8223 844.747C15.6851 847.826 12.8829 848.37 9.28839 846.405C6.49652 844.879 5.32423 843.113 4.01485 838.46C1.83967 830.731 -0.313186 827.715 -4.82139 826.081C-8.10114 824.893 -9.77881 823.148 -11.3818 819.258C-12.6643 816.147 -15.3291 811.773 -17.9425 808.492C-19.3859 806.68 -20.2711 806.455 -22.5028 807.335C-23.523 807.737 -24.0498 807.701 -25.5931 807.124C-28.1419 806.169 -30.0562 804.035 -31.2996 800.763C-35.9528 788.513 -37.7353 783.969 -38.4211 782.607C-39.1178 781.222 -39.2174 780.349 -39.2197 775.597C-39.2227 769.554 -39.8508 765.763 -41.4182 762.332C-42.5217 759.916 -43.5425 759.195 -45.3243 759.572C-47.7413 760.083 -51.1196 759.983 -52.3096 759.365C-54.0853 758.442 -56.551 755.376 -57.5295 752.873C-58.2854 750.94 -58.441 749.649 -58.6763 743.357C-58.9926 734.895 -58.8693 734.34 -56.2182 732.293C-54.1826 730.721 -53.6114 729.281 -53.6569 725.839C-53.6878 723.483 -52.856 719.655 -52.012 718.268C-51.3138 717.121 -49.1948 716.253 -47.9588 716.608C-47.4802 716.745 -45.9587 717.625 -44.5779 718.564C-43.197 719.502 -41.427 720.533 -40.644 720.856C-39.28 721.418 -39.1968 721.405 -38.6402 720.55C-37.9117 719.431 -37.9425 717.239 -38.7377 713.67C-39.0785 712.141 -39.7919 708.805 -40.3235 706.257C-41.3203 701.477 -42.786 697.667 -44.221 696.122C-45.1743 695.095 -45.3108 695.07 -46.1633 695.752ZM304.449 694.46C303.037 696.449 302.827 699.809 303.974 702.069C306.78 707.593 313.152 708.362 321.09 704.135C324.48 702.329 330.185 697.094 329.508 696.41C329.425 696.326 326.629 697.19 323.294 698.329C319.711 699.553 316.522 700.408 315.5 700.418C312.136 700.453 309.297 698.357 307.718 694.672C306.808 692.547 305.851 692.485 304.449 694.46ZM382.605 695.203C381.484 696.405 381.143 698.609 381.462 702.567C381.632 704.663 381.969 709.243 382.211 712.747C382.564 717.844 382.848 719.67 383.634 721.89C384.178 723.43 384.925 726.966 385.311 729.835C386.239 736.732 387.472 741.746 388.55 743.013C389.368 743.975 389.593 744.023 392.765 743.901C395.062 743.813 396.73 743.975 398.072 744.416C399.611 744.922 400.278 744.964 401.199 744.611C401.843 744.365 403.997 743.744 405.987 743.231C409.517 742.322 409.665 742.236 412.091 739.722C414.153 737.587 415.028 736.986 417.208 736.212L419.838 735.279L420.49 733.077C421.341 730.201 422.315 729.309 424.282 729.606C425.101 729.729 426.259 730.084 426.856 730.394C427.947 730.96 432.527 734.542 435.7 737.31C437.708 739.062 438.5 739.135 440.074 737.713C441.07 736.812 441.488 736.687 442.891 736.865C445.618 737.211 447.436 738.407 449.183 741.004C451.316 744.175 452.108 744.634 455.666 744.767C461.482 744.983 462.383 745.481 465.397 750.149C466.852 752.4 467.072 753.014 467.058 754.784C467.05 755.907 466.855 757.696 466.626 758.76C466.317 760.197 466.325 761.146 466.658 762.444C467.346 765.122 467.232 767.701 466.262 771.342C465.301 774.949 464.792 779.01 465.174 780.004C465.543 780.962 467.092 779.934 469.694 777.006C472.383 773.98 472.932 772.594 473.459 767.503C473.965 762.615 475.213 759.534 478.649 754.696C482.648 749.063 483.265 747.113 481.688 745.087C480.323 743.333 478.133 742.566 474.616 742.611C469.456 742.676 467.907 742 463.963 737.963C459.915 733.821 458.885 733.384 455.471 734.362C454.234 734.716 452.724 734.901 452.115 734.771C450.593 734.448 446.995 730.321 444.358 725.874C441.842 721.634 439.28 718.839 437.927 718.86C436.914 718.875 436.568 719.485 435.894 722.441C435.674 723.411 435.011 724.721 434.422 725.353C432.361 727.566 430.255 726.803 425.388 722.082C421.019 717.843 417 715.054 414.379 714.442C412.515 714.006 412.33 714.032 411.583 714.833C410.88 715.589 410.763 716.324 410.606 720.975C410.508 723.881 410.299 726.619 410.141 727.06C409.125 729.898 406.417 731.851 403.524 731.832C401.047 731.816 400.215 731.409 395.096 727.703C389.154 723.401 388.389 721.87 389.738 716.978C390.368 714.69 390.385 710.913 389.774 708.645C389.539 707.772 389.285 705.071 389.21 702.643C389.05 697.455 388.611 696.475 385.935 695.329C383.844 694.433 383.34 694.414 382.605 695.203ZM543.79 694.234C543.422 695.288 542.624 701.008 542.639 702.475C542.653 703.786 544.47 705.34 545.78 705.161C547.084 704.983 548.009 702.981 548.288 699.73C548.569 696.471 548.266 695.547 546.523 694.328C544.712 693.061 544.205 693.043 543.79 694.234ZM2.14197 711.213C-0.67158 711.981 -0.575824 712.662 2.711 715.262C4.14743 716.398 6.76279 718.718 8.5232 720.418C12.2992 724.064 13.0102 724.19 13.1521 721.233C13.2772 718.624 12.6918 716.787 11.0365 714.597C8.98078 711.877 5.10945 710.404 2.14197 711.213ZM58.781 719.663L57.9609 720.6L59.6702 722.824C60.8546 724.366 61.4661 725.594 61.6607 726.822C61.9881 728.886 63.2801 730.999 64.6363 731.688C66.616 732.693 69.0348 731.985 69.9536 730.131C70.7196 728.586 69.7276 727.872 65.127 726.661C64.2824 726.438 63.1113 725.804 62.525 725.25C61.6174 724.394 61.4543 723.925 61.4283 722.102C61.4115 720.923 61.2894 719.677 61.1567 719.333C60.8092 718.429 59.7296 718.579 58.781 719.663ZM35.1837 722.2C34.7443 722.586 33.4272 724.433 32.2562 726.305C30.5694 729.002 30.1808 729.918 30.3831 730.718C30.7576 732.197 32.045 733.429 34.5464 734.702C35.8075 735.343 38.2708 737.274 40.2579 739.178C43.3933 742.183 46.1278 744.007 47.5034 744.01C48.6204 744.013 48.2884 742.567 46.0709 737.775C44.7843 734.995 43.0293 730.771 42.1703 728.389C40.3954 723.465 38.8995 721.431 37.0847 721.474C36.4786 721.488 35.623 721.815 35.1837 722.2ZM548.916 714.057C547.936 714.857 547.585 716.36 546.856 722.887C546.15 729.213 545.297 732.562 543.173 737.359C541.284 741.624 541.433 743.347 544.017 747.109C546.76 751.104 547.178 752.253 547.702 757.227C548.182 761.787 548.985 763.879 550.325 764.063C550.739 764.12 552.868 763.214 555.059 762.051C559.463 759.711 561.076 759.425 563.134 760.621C565.201 761.823 565.784 763.464 565.855 768.291C565.905 771.693 566.055 772.704 566.658 773.701C567.664 775.363 568.864 775.635 569.632 774.375C570.161 773.505 570.163 772.3 569.651 762.951C569.04 751.824 568.735 749.964 567.279 748.492C566.157 747.357 565.402 747.345 562.61 748.416C559.614 749.565 558.59 749.499 556.958 748.05C555.241 746.526 554.907 745.906 554.391 743.286C553.911 740.843 554.43 736.747 556.147 729.424C557.452 723.864 557.536 720.248 556.419 717.748C555.482 715.65 554.631 714.862 552.489 714.112C550.47 713.405 549.729 713.393 548.916 714.057ZM139.089 722.855C139.113 724.57 139.765 725.041 140.238 723.685C140.655 722.489 140.36 721.464 139.602 721.475C139.25 721.481 139.076 721.948 139.089 722.855ZM13.6108 732.421C13.488 732.769 13.3975 733.742 13.4094 734.583C13.4366 736.49 13.7612 737.367 14.4362 737.357C15.788 737.336 16.7028 732.485 15.4452 732.004C14.4363 731.618 13.8461 731.752 13.6108 732.421ZM301.582 728.177C296.78 729.98 292.974 733.619 283.787 745.188C278.843 751.414 276.033 755.42 274.855 757.922C274.216 759.28 274.075 760.453 274.555 760.425C274.713 760.416 276.551 758.818 278.641 756.875C283.628 752.236 292.447 742.326 296.128 737.223C297.74 734.988 299.76 732.431 300.617 731.541C302.046 730.057 302.385 729.904 304.706 729.685C307.552 729.417 308.119 728.802 306.362 727.889C304.875 727.117 304.311 727.151 301.582 728.177ZM503.915 731.539C501.613 732.7 497.128 737.037 498.225 737.042C499.288 737.048 503.208 734.674 505.121 732.866C507.745 730.387 507.26 729.853 503.915 731.539ZM336.44 744.07C334.659 746.374 334.243 753.463 335.696 756.752C337.048 759.812 341.237 763.972 342.068 763.08C342.319 762.811 341.775 761.303 340.442 758.573C337.869 753.3 337.396 750.928 338.165 747.148C338.481 745.594 338.629 744.14 338.492 743.918C338.141 743.345 336.93 743.435 336.44 744.07ZM263.512 752.339C262.114 753.73 259.917 755.732 258.631 756.787C255.343 759.483 254.616 761.14 254.71 765.725C254.752 767.697 255.115 771.188 255.519 773.483C256.077 776.652 256.196 778.52 256.015 781.247C255.741 785.381 255.766 787.192 256.117 788.563C256.559 790.289 257.354 788.684 257.781 785.204C258.347 780.594 259.383 776.644 261.404 771.4C263.468 766.04 264.945 761.612 266.572 755.896C267.762 751.714 267.782 749.782 266.635 749.8C266.315 749.805 264.91 750.947 263.512 752.339ZM79.4273 753.619C76.0573 754.986 74.636 756.391 70.2303 762.712C68.5809 765.078 66.5168 767.548 65.6433 768.201C64.1906 769.287 63.6711 769.42 59.5452 769.754C54.8889 770.132 53.1226 770.603 51.3309 771.944C49.7065 773.16 49.411 774.144 49.1926 779.062C49.0116 783.14 48.8218 784.105 47.4775 787.78C46.6458 790.053 45.424 793.031 44.7618 794.397L43.5582 796.882L43.5657 805.633C43.5699 810.446 43.6694 814.749 43.7867 815.194C43.9043 815.639 44.5153 816.295 45.1447 816.651C45.9417 817.102 46.4236 817.79 46.7326 818.919C46.9767 819.811 47.5602 820.785 48.0296 821.086C48.5318 821.407 50.5371 821.717 52.9024 821.839C55.113 821.954 57.9583 822.31 59.2251 822.632C62.2476 823.399 66.79 823.302 68.9743 822.423C73.5159 820.595 77.1511 816.874 78.0714 813.11C78.816 810.064 77.7397 804.723 76.3852 804.744C76.0471 804.749 75.3742 806.033 74.6528 808.049C74.0038 809.863 73.1169 811.884 72.6817 812.541C71.6471 814.103 68.076 816.416 64.7254 817.694C60.5036 819.305 58.908 819.052 54.8174 816.127C52.0756 814.167 51.2448 812.873 51.2112 810.513C51.1681 807.485 53.2575 804.805 56.0838 804.262C58.4634 803.806 58.7543 803.042 58.6794 797.456C58.623 793.278 58.7254 792.407 59.4781 790.656C61.1394 786.79 64.4558 784.803 67.1202 786.077C67.8142 786.409 69.2792 787.486 70.3757 788.47C71.4723 789.455 72.5214 790.258 72.7077 790.255C74.0137 790.235 75.3768 788.367 75.3521 786.631C75.3455 786.173 74.7817 784.719 74.0985 783.4C72.5928 780.492 72.3696 778.03 73.4891 776.678C73.9028 776.179 75.0959 775.354 76.1406 774.845C78.5696 773.662 79.3091 772.761 81.1812 768.704C82.1819 766.535 83.3151 764.798 84.4646 763.672C87.7074 760.494 87.9496 760.204 88.1709 759.223C88.4926 757.798 87.4377 755.626 85.8191 754.378C84.148 753.091 81.5042 752.777 79.4273 753.619ZM402.711 766.257C401.253 767.822 402.661 771.741 405.661 774.468C408.179 776.758 412.039 777.788 413.733 776.623C414.435 776.139 414.179 775.677 410.73 771.199C406.651 765.904 404.357 764.49 402.711 766.257ZM428.584 765.897C428.318 766.013 427.108 767.497 425.896 769.195C424.685 770.892 422.913 773.092 421.959 774.084C421.005 775.076 420.228 776.09 420.231 776.338C420.239 776.869 421.889 777.688 422.916 777.672C424.034 777.655 425.862 775.762 426.348 774.119C426.59 773.301 427.432 771.235 428.22 769.529C429.983 765.713 430.028 765.266 428.584 765.897ZM373.825 782.361C371.112 784.143 369.082 788.041 368.404 792.768C367.648 798.041 368.556 797.358 373.298 789.091C375.386 785.45 377.092 782.268 377.088 782.02C377.078 781.316 375.103 781.522 373.825 782.361ZM327.598 785.561C325.434 786.792 322.848 789.194 318.63 793.887C316.453 796.311 313.6 798.961 311.652 800.371C307.684 803.243 306.173 805.324 306.156 807.939C306.134 811.342 308.907 812.792 312.959 811.497C316.12 810.486 316.668 809.834 317.241 806.398C317.513 804.77 317.962 803.07 318.24 802.62C318.518 802.17 320.172 800.7 321.916 799.354C325.63 796.489 327.565 793.701 329.323 788.683C330.816 784.42 330.526 783.895 327.598 785.561ZM457.336 789.878C454.24 791.524 451.518 794.193 449.374 797.686C447.44 800.836 447.434 800.869 448.011 806.376C448.28 808.944 448.192 809.86 447.376 812.951C445.779 818.999 445.363 825.545 446.575 825.526C446.786 825.523 447.594 825.079 448.371 824.539C450.223 823.251 451.948 822.883 453.599 823.423C455.354 823.996 456.269 825.233 457.334 828.47C458.995 833.52 459.916 834.735 460.755 832.979C461.951 830.475 461.438 826.521 459.293 821.713C456.843 816.222 456.018 809.548 457.175 804.592C457.479 803.293 458.467 800.073 459.37 797.438C461.259 791.931 461.613 788.89 460.381 788.752C459.959 788.705 458.589 789.212 457.336 789.878ZM73.784 836.937C72.8941 838.51 72.8339 840.356 73.6357 841.511C74.4339 842.661 81.5859 846.706 82.7894 846.687C84.2633 846.665 86.2062 844.554 86.0331 843.164C85.9161 842.226 85.6598 842.01 84.3605 841.75C79.7768 840.834 78.8371 840.247 77.0215 837.169C75.9294 835.318 74.7482 835.233 73.784 836.937ZM137.466 850.73C137.478 851.559 140.234 855.438 142.154 857.327C144.405 859.542 147.844 861.491 148.417 860.876C149.276 859.954 144.196 854.294 139.982 851.479C137.922 850.103 137.455 849.964 137.466 850.73ZM293.716 851.961C293.076 852.264 291.637 853.58 290.518 854.885C289.398 856.191 285.649 860.261 282.187 863.931C278.724 867.601 275.617 871.206 275.282 871.942C274.947 872.678 274.54 874.856 274.376 876.782C274.212 878.707 273.974 880.579 273.847 880.941C273.658 881.477 273.876 881.594 275.037 881.576C276.438 881.554 276.456 881.535 276.204 880.245C276.055 879.479 276.192 878.029 276.533 876.753C277.292 873.922 279.125 872.052 284.122 869.011C287.182 867.15 288.606 866.544 291.315 865.953C293.173 865.549 294.969 864.962 295.306 864.652C296.086 863.932 297.333 859.776 297.633 856.893C297.869 854.633 297.105 851.746 296.274 851.758C296.07 851.762 295.673 851.684 295.392 851.587C295.11 851.49 294.356 851.658 293.716 851.961ZM204.211 861.256C202.823 862.027 202.438 862.928 202.983 864.127C203.676 865.651 205.311 865.441 208.637 863.401C210.822 862.061 211.333 861.579 210.999 861.173C210.447 860.5 205.461 860.561 204.211 861.256ZM215.667 862.548C215.67 862.756 215.901 863.066 216.182 863.237C216.462 863.408 217.434 864.553 218.343 865.78C220.481 868.67 221.5 869.098 221.468 867.094C221.448 865.844 220.055 863.788 218.64 862.918C217.322 862.109 215.658 861.901 215.667 862.548ZM53.6429 867.151C51.9889 868.014 53.05 869.005 54.8361 868.266C55.3948 868.035 55.8483 867.572 55.8436 867.238C55.8337 866.541 54.8845 866.503 53.6429 867.151ZM252.706 878.2C252.111 878.461 252.113 879.592 252.711 880.906C253.157 881.887 253.271 881.912 256.932 881.856C259.001 881.824 260.692 881.634 260.69 881.435C260.682 880.887 258.332 878.995 256.929 878.408C255.707 877.897 253.631 877.794 252.706 878.2ZM242.492 879.454C241.865 879.755 240.942 880.48 240.44 881.064L239.528 882.125L242.456 882.079C245.258 882.036 245.393 881.992 245.609 881.035C246.088 878.911 244.886 878.3 242.492 879.454ZM296.239 880.262C295.602 881.086 295.936 881.335 297.443 881.159C298.639 881.018 298.666 880.98 298.014 880.325C297.176 879.482 296.85 879.471 296.239 880.262Z" fill="white"/>
</g>
<defs>
<clipPath id="clip0_1900_92">
<rect width="550" height="830" rx="25" fill="white"/>
</clipPath>
</defs>
</svg>
