<svg width="1920" height="1080" viewBox="0 0 1920 1080" fill="none" xmlns="http://www.w3.org/2000/svg">
<g clip-path="url(#clip0_1899_37)">
<path fill-rule="evenodd" clip-rule="evenodd" d="M-17.2696 1140.97C-15.7675 1140.66 -12.8657 1139.68 -10.8191 1138.79C-6.05059 1136.72 -7.04277 1135.66 -14.3888 1134.97L-20 1134.45V1138V1141.55L-17.2696 1140.97ZM-19.6018 899.456C-19.3825 899.456 -18.5844 898.259 -17.8274 896.796C-16.1615 893.574 -16.5563 887.195 -18.6046 884.273C-19.9437 882.36 -20 882.624 -20 890.867C-20 895.592 -19.8211 899.456 -19.6018 899.456ZM7.55561 105.376C10.0556 110.876 7.58126 110.746 13.936 111.839C20.2898 112.933 26.4236 114.439 27.5661 115.188C29.9739 116.767 31.2475 119.638 31.2475 123.492C31.2475 126.373 29.7286 128.132 21.8482 134.372C16.8991 138.291 16.1749 140.295 18.7272 143.011C21.1745 145.616 26.1581 147.077 41.329 149.638C65.1432 153.658 73.9922 153.887 77.309 150.571C78.5768 149.304 78.5709 148.892 77.2267 145.11C74.8651 138.458 75.1927 137.264 81.1744 130.745C84.7794 126.817 87.1536 123.315 88.3138 120.214C89.2707 117.658 90.6939 114.588 91.4777 113.392C92.8185 111.346 92.8185 111.155 91.4752 110.172C89.6193 108.815 74.209 107.797 65.8926 108.481C58.4978 109.09 51.5298 108.241 41.3173 105.485C34.8483 103.74 33.7595 103.124 28.6482 98.3234C22.1028 92.1762 23.5159 94.0489 13.936 91.5C10.0941 90.4776 8.55561 90.3763 8.55561 90.3763C8.05561 90.3763 7.55561 91.5 7.55561 91.5L7.05561 94.8763V98.8763V101.376L7.55561 105.376ZM-16.4295 44.6949C-12.3423 44.0413 -11.1678 43.1844 -11.8659 41.3639C-12.2851 40.2734 -18.1887 36.649 -19.5463 36.649C-19.7958 36.649 -20 38.588 -20 40.9572V45.2653L-16.4295 44.6949ZM24.0009 924.031C27.8402 924.034 34.1521 924.283 38.0267 924.585C43.8606 925.039 45.0048 924.931 44.6805 923.957C43.806 921.333 38.7703 919.452 32.6844 919.475C26.9875 919.498 18.5174 921.604 17.5 923.25C17.2211 923.701 19.9473 924.029 24.0009 924.031ZM15.6855 842.067C16.0619 842.299 18.5352 843.3 21.1816 844.29C25.0059 845.721 26.2434 845.882 27.2171 845.073C28.6352 843.896 28.841 839.017 27.5725 836.646C25.7099 833.167 15 836.024 15 840C15 840.904 15.3083 841.834 15.6855 842.067ZM8.26932 1137.49C15.4919 1139.54 36.563 1138.39 50.3982 1135.18C55.3448 1134.03 61.5214 1132.68 64.1233 1132.17C69.3337 1131.16 75.9329 1128.13 76.4244 1126.52C76.6176 1125.89 73.5562 1126.58 68.4852 1128.32C57.6879 1132.01 52.4304 1132.79 28.3903 1134.24C9.98989 1135.35 4.09727 1136.3 8.26932 1137.49ZM34.4812 650.359C36.7235 654.013 45.9001 662.411 59.8159 673.543C73.1924 684.244 92.895 698.966 97.8139 701.935C101.573 704.203 104.894 704.069 104.477 701.666C103.88 698.229 96.9629 689.434 87.204 679.707C79.143 671.672 74.3669 667.793 64.1712 661C49.3035 651.094 40.8283 646.595 36.5521 646.339C32.906 646.122 32.438 647.03 34.4812 650.359ZM57.0788 893.296C61.8642 895.296 69.5849 894.367 79.1346 890.646C91.6659 885.761 97.9147 882.1 105.255 875.341C109 871.892 114.606 867.426 117.713 865.417C120.821 863.406 123.902 861.112 124.562 860.317C125.365 859.35 125.96 855.515 126.363 848.71C126.694 843.121 127.217 835.907 127.524 832.682C128.042 827.246 127.979 826.903 126.667 827.991C125.889 828.637 123.791 831.655 122.004 834.697C118.494 840.673 114.568 844.777 108.396 848.923C104.424 851.59 103.896 852.539 101.789 860.81C99.9856 867.893 98.5095 869.832 89.8899 876.438C80.2755 883.809 77.0662 885.223 64.5786 887.59C59.6286 888.529 55.207 889.525 54.7542 889.805C53.1613 890.789 53.9628 891.994 57.0788 893.296ZM59.8941 1030.52C63.9578 1040.77 64.7584 1042.28 66.1421 1042.28C67.7745 1042.28 69.8932 1037.4 69.8932 1033.65C69.8932 1029.49 66.0816 1022.49 62.6715 1020.38C56.7932 1016.75 55.8312 1020.26 59.8941 1030.52ZM58.2676 467.002C58.9103 468.762 59.6656 469.313 61.4315 469.313C66.0236 469.313 68.2374 463.881 64.6651 461.379C62.0767 459.566 60.136 459.745 58.5995 461.939C57.12 464.051 57.1301 463.888 58.2676 467.002ZM61.6861 1062.72C62.527 1063.85 64.6047 1064.47 69.3883 1065C76.8511 1065.84 80.877 1067.83 86.5697 1073.5C93 1077.05 90 1073.5 94 1075.5C96.5 1077 105 1074.5 105 1074.5C105 1074.5 105.964 1074.27 107 1074C109.736 1073.29 111.433 1070.5 112 1069.5C120.899 1053.83 109.337 1069.58 96.1538 1061.86C93.0067 1060.01 90.8484 1059.5 84.2241 1059.04C74.8197 1058.39 72.6362 1057.45 69.0649 1052.51C67.6224 1050.52 65.9934 1049.04 65.4448 1049.22C62.3851 1050.24 59.6647 1060.01 61.6861 1062.72ZM80.036 446.096C82.1935 448.84 83.3352 448.918 83.3352 446.323C83.3352 444.264 80.4418 439.908 79.0733 439.908C77.6543 439.908 78.2659 443.847 80.036 446.096ZM82.0809 996.288C83.5595 1002.16 85.3397 1005.82 88.2088 1008.88C92.5942 1013.57 93.5377 1011.21 91.3164 1001.11C89.7454 993.968 89.7588 987.744 91.3626 979.287C92.9891 970.714 92.7438 966.371 90.6115 965.967C88.6389 965.592 85.3456 968.661 83.0983 972.967C80.8333 977.305 80.3116 989.267 82.0809 996.288ZM94.9903 954.84C95.6682 955.846 96.5949 955.679 100.803 953.79C106.729 951.13 107.173 951.104 115.064 952.95C123.904 955.018 124.816 954.506 128.804 945.243C133.305 934.786 133.239 934.363 126.63 931.271C123.465 929.79 120.538 928.939 119.614 929.232C118.743 929.508 115.8 931.466 113.075 933.583C110.349 935.7 105.63 938.886 102.588 940.662C99.5463 942.439 96.5697 944.481 95.974 945.198C94.5887 946.868 93.9351 953.275 94.9903 954.84ZM100.863 522.697C104.59 528.809 116.327 535.46 121.63 534.465C133.062 532.32 127.754 518.528 112.981 511.994C107.42 509.534 102.917 509.556 100.894 512.054C98.8548 514.572 98.8405 519.381 100.863 522.697ZM117.916 488.216C120.334 492.607 125.232 496.599 130.796 498.715C134.243 500.025 133.386 497.858 128.186 492.111C123.417 486.841 119.249 483.948 117.756 484.87C116.729 485.504 116.759 486.113 117.916 488.216ZM123.555 -54.9808C125.855 -53.7509 129.892 -53.8567 133.191 -55.2354C138.346 -57.3894 144.847 -67.0097 143.507 -70.5012C142.719 -72.5562 141.503 -71.8992 138.784 -67.9473C136.04 -63.96 133.572 -62.3411 126.644 -59.9879C122.074 -58.4354 120.84 -56.4342 123.555 -54.9808ZM130.592 565.622C134.429 571.363 140.359 575.168 145.469 575.168C150.113 575.168 151.999 573.594 153.077 568.817C154.098 564.29 152.855 561.91 148.456 559.965C144.42 558.179 132.619 556.477 129.654 557.254C127.06 557.932 127.384 560.822 130.592 565.622ZM130.938 795.911C131.808 798.065 133.707 796.856 134.586 793.588C135.596 789.838 135.02 785.242 133.254 782.933C132.243 781.613 131.986 781.58 131.251 782.679C130.396 783.956 130.16 793.981 130.938 795.911ZM139.565 876.773C140.368 880.789 141.832 883.281 143.746 883.889C144.628 884.169 148.142 884.711 151.552 885.093C154.964 885.476 159.026 886.447 160.58 887.25C165.125 889.601 178.905 903.432 179.996 906.741C182.077 913.046 179.17 917.591 169.438 923.25C159.927 928.779 159.641 930.436 167.584 934.009C171.583 935.807 173.186 935.988 185.83 936.06C202.487 936.155 205.574 937.077 215.235 944.832C218.7 947.614 225.541 951.949 230.438 954.466C239.866 959.312 241.588 960.679 241.138 962.966C239.812 969.709 217.487 971.884 187.041 968.236C168.294 965.99 160.408 966.9 168.959 970.321C175.897 973.097 190.544 975.37 224.476 978.937C234.747 980.017 239.784 981.839 258.744 991.335C269.238 996.589 281.037 1003.05 284.965 1005.7C292.362 1010.68 312.481 1020.86 319.83 1023.34C325.618 1025.3 331.626 1025.94 332.4 1024.69C333.41 1023.05 327.132 1017.88 317.678 1012.55C311.796 1009.24 306.833 1005.62 302.608 1001.55C297.232 996.376 295.444 995.204 290.426 993.563C279.095 989.855 275.634 987.113 271.853 978.848C269.732 974.21 266.482 960.357 266.482 955.952C266.482 951.595 268.675 948.234 272.671 946.466C277.984 944.116 316.605 942.535 325.156 944.318C341.011 947.624 361.653 960.393 364.044 968.373C365.449 973.064 363.688 975.297 355.726 978.926C346.617 983.077 346.218 984.322 352.854 987.901C360.031 991.772 371.55 995.386 376.965 995.465C381.488 995.532 382.795 995.113 389.542 991.435L397.072 987.331L408.438 986.812C421.01 986.238 422.536 985.742 429.046 980.108C434.367 975.503 437.311 974.118 442.848 973.616C448.219 973.129 454.483 974.519 464.728 978.469C476.361 982.955 482.394 988.88 482.394 995.817C482.394 1001.67 479.481 1006.28 468.335 1018.07C464.978 1021.62 462.231 1024.89 462.231 1025.33C462.231 1026.83 466.453 1027.2 473.533 1026.32C481.132 1025.38 486.146 1023.88 490.673 1021.21C495.358 1018.45 503.058 1011.34 504.516 1008.44C505.674 1006.14 507.068 998.882 509.005 985.091C509.498 981.574 507.009 978.035 501.892 974.982C486.479 965.785 489.131 954.952 509.276 944.824C521.109 938.875 541.755 933.413 549.69 934.133C559.075 934.984 570.718 943.321 575.179 952.384C576.43 954.925 578.237 957.844 579.195 958.87C581.469 961.308 586 962.76 589.354 962.126C593.037 961.43 597.491 958.577 597.491 956.915C597.491 956.158 594.372 952.349 590.56 948.45C586.59 944.391 582.007 938.602 579.833 934.901C574.156 925.237 573.669 925.071 551.75 925.356C542.071 925.482 529.997 926.132 524.919 926.802C511.724 928.543 506.648 928.416 503.931 926.279C501.343 924.244 501.273 923.747 503.055 919.994C504.83 916.252 510.304 912.911 520.751 909.191C541.864 901.673 559.653 893.77 568.064 888.171C577.801 881.688 580.101 880.63 590.35 877.911C594.748 876.744 603.359 873.269 610.933 869.604C625.792 862.414 640.226 858.241 655.459 856.732C673.446 854.95 693.822 860.447 698.081 868.233C701.2 873.935 701.162 876.342 697.784 887.026C693.555 900.4 694.471 901.329 708.385 897.777C712.002 896.853 718.693 895.781 723.252 895.396C728.568 894.946 732.313 894.191 733.688 893.29C736.494 891.451 738.393 887.927 737.333 886.527C736.892 885.946 734.403 882.264 731.801 878.345C720.787 861.753 720.705 858.422 731.042 847.761C739.639 838.895 741.111 833.957 737.725 825.346C735.416 819.473 734.295 818.366 728.673 816.404C726.064 815.494 721.966 813.894 719.566 812.849C715.697 811.165 714.819 811.064 711.833 811.959C707.221 813.34 704.229 816.059 698.329 824.232C689.552 836.391 685.974 838.623 673.177 839.918C668.746 840.367 660.962 841.705 655.88 842.891C649.888 844.29 643.062 845.2 636.469 845.477L626.3 845.906L623.867 842.856C622.212 840.782 620.749 839.807 619.289 839.807C615.668 839.807 609.383 844.553 597.743 856.076C586.427 867.279 580.13 871.732 575.604 871.732C574.299 871.732 570.799 871.167 567.825 870.479C559.88 868.635 557.734 869.566 545.189 880.292C542.068 882.961 537.961 885.937 536.063 886.905C532.464 888.741 516.384 892.714 512.498 892.728C511.266 892.732 507.763 891.412 504.715 889.795C501.666 888.177 498.516 886.858 497.714 886.863C495.069 886.877 487.901 890.799 485.248 893.683C483.815 895.24 481.439 898.663 479.969 901.288C477.201 906.231 469.803 913.661 465.362 915.957C463.558 916.889 461.174 917.181 457.189 916.956C452.276 916.679 450.952 916.217 446.739 913.316C442.528 910.415 441.31 909.99 437.161 909.975C432.807 909.959 432.383 910.123 432.128 911.928C431.909 913.474 433.401 915.381 439.059 920.79L446.269 927.683V931.987C446.269 938.446 444.295 940.227 428.38 948.135C418.305 953.142 413.38 955.111 409.442 955.707C403.726 956.574 397.246 955.775 393.422 953.734C392.223 953.094 388.783 951.23 385.78 949.594C381.909 947.485 377.627 946.085 371.078 944.786C357.201 942.034 354.574 940.326 350.074 931.125C347.03 924.899 345.516 924.303 335.814 925.508C323.201 927.074 318.707 926.667 308.736 923.05C303.748 921.24 295.937 918.054 291.378 915.969C281.639 911.514 273.11 909.724 268.644 911.198C265.492 912.238 265.204 912.785 264.38 919.29C263.464 926.531 259.088 931.594 251.407 934.304C238.922 938.71 229.418 929.727 232.313 916.259C232.891 913.568 232.552 912.799 228.327 907.22C221.441 898.127 221.209 894.225 227.044 885.628C230.903 879.943 231.797 877.248 230.39 875.552C229.842 874.892 226.68 873.333 223.365 872.087C216.045 869.338 213.554 867.262 213.554 863.911C213.554 861.843 215.233 859.783 223.533 851.666C232.539 842.859 234.51 841.382 243.748 836.507C257.342 829.333 258.078 828.412 258.089 818.529C258.096 812.192 258.449 810.077 260.078 806.622C262.445 801.604 264.43 799.679 271.085 795.945C273.848 794.396 276.684 792.099 277.386 790.842C278.559 788.744 278.525 788.297 276.984 785.408C275.632 782.875 274.757 782.207 272.503 781.99C269.565 781.709 269.518 781.749 257.392 794.861C255.682 796.709 252.208 799.316 249.671 800.654C247.135 801.992 239.388 806.603 232.457 810.9C221.08 817.954 218.917 818.967 210.194 821.329C204.88 822.767 200.189 824.284 199.769 824.7C199.311 825.153 199.597 827.967 200.48 831.723C203.25 843.485 199.897 849.545 187.511 855.159C184.507 856.52 179.214 858.978 175.749 860.621C168.185 864.208 162.928 864.539 157.5 861.77C155.56 860.78 152.819 859.97 151.41 859.97C148.13 859.97 141.618 863.018 140.018 865.302C138.735 867.135 138.553 871.716 139.565 876.773ZM140.289 105.305C141.829 107.683 148.369 108.995 158.526 108.961C168.674 108.927 189.508 110.326 215.326 112.774C228.045 113.98 230.797 113.979 246.411 112.763C269.454 110.968 273.427 109.753 268.666 105.958C265.629 103.536 257.686 100.882 248.525 99.2299C244.425 98.4905 237.998 96.9211 234.243 95.7433C225.819 93.1003 212.12 86.1835 209.146 83.0717C206.1 79.8842 204.461 73.5691 205.815 70.2389C208.727 63.076 208.706 63.2112 207.37 60.0885L206.076 57.0631L196.416 56.4861C191.104 56.1685 183.618 55.356 179.782 54.6814C167.555 52.529 152.209 53.454 151.074 56.4113C150.84 57.0212 151.815 59.2803 153.239 61.4319C155.489 64.8277 159.059 76.0575 161.998 88.9828C162.8 92.5121 159.976 94.8805 151.184 98.0503C143.101 100.966 139.172 103.58 140.289 105.305ZM142.16 1110.99C143.633 1114.28 147.34 1117.17 148.544 1115.97C149.215 1115.3 146.168 1110.4 143.545 1107.94C140.799 1105.36 140.214 1106.65 142.16 1110.99ZM158.557 1156.95C159.313 1158.6 159.652 1162.04 159.539 1166.9C159.379 1173.79 159.508 1174.44 161.35 1175.93C166.026 1179.72 169.868 1177.18 169.868 1170.31C169.868 1162.69 163.969 1153.17 159.244 1153.17C157.002 1153.17 156.952 1153.45 158.557 1156.95ZM180.79 -99.8711C181.252 -100.157 181.63 -100.557 181.63 -100.761C181.63 -100.965 181.252 -101.131 180.79 -101.131C180.327 -101.131 179.949 -100.731 179.949 -100.242C179.949 -99.7526 180.327 -99.5855 180.79 -99.8711ZM183.304 615.594C184.461 617.546 188.8 619.135 191.275 618.514C194.313 617.751 194.011 615.013 190.661 612.943C185.842 609.966 181.003 611.71 183.304 615.594ZM219.225 57.6101C236.103 59.4592 241.419 59.5718 248.478 58.231C259.181 56.1979 264.452 53.817 270.306 48.3696C273.176 45.7006 276.608 42.9618 277.934 42.283C283.952 39.2031 301.115 34.1866 309.665 33.0088C319.462 31.6587 322.964 30.0355 323.47 26.6078C324.038 22.7642 322.811 20.8328 317.939 17.9033C305.755 10.5783 296.349 9.57519 288.766 14.7924C283.001 18.7586 279.761 19.6961 266.901 21.1218C260.723 21.8065 254.74 22.7206 253.605 23.1525C252.469 23.5843 249.597 25.6636 247.222 27.7732C242.331 32.1158 237.77 34.5982 228.691 37.8579C219.707 41.0831 217.128 42.8844 215.973 46.738C215.437 48.5267 213.729 51.2209 212.177 52.7256C210.624 54.2302 209.354 55.7013 209.354 55.9945C209.354 56.2877 213.796 57.0153 219.225 57.6101ZM242.78 1050.1C246.066 1053.07 254.913 1055.25 256.651 1053.51C257.74 1052.42 255.31 1049.64 251.922 1048.11C248.346 1046.48 244.98 1046.08 242.608 1046.99C240.887 1047.65 240.93 1048.42 242.78 1050.1ZM261.026 579.865C262.222 580.165 263.409 580.202 263.665 579.946C264.487 579.124 263.073 577.689 261.441 577.689C258.933 577.689 258.632 579.265 261.026 579.865ZM265.432 147.32C272.399 146.848 279.331 145.031 282.039 142.966C284.721 140.921 282.156 139.814 276.144 140.422C266.178 141.429 258.921 143.955 258.921 146.415C258.921 147.572 259.835 147.699 265.432 147.32ZM262.313 505.438C262.792 505.438 266.479 504.174 270.505 502.628C274.53 501.083 281.321 498.961 285.595 497.913C289.869 496.865 293.366 495.654 293.366 495.22C293.366 493.248 278.688 489.06 274.783 489.918C271.8 490.573 267.17 494.431 263.817 499.053C261.425 502.352 260.698 505.438 262.313 505.438ZM264.869 882.023C267.32 886.232 275.642 881.306 289.273 867.581C299.113 857.673 301.908 853.95 300.535 852.576C300.234 852.276 296.136 853.99 291.426 856.385C286.717 858.781 280.45 861.696 277.5 862.864C270.732 865.541 266.632 868.649 265.133 872.236C263.768 875.503 263.648 879.927 264.869 882.023ZM283.779 -38.6302C284.506 -38.3505 287.064 -38.1219 289.463 -38.1219C293.091 -38.1219 294.349 -37.6885 296.955 -35.5403C298.677 -34.1205 300.087 -32.2185 300.087 -31.3129C300.087 -28.7496 297.696 -23.6475 295.345 -21.1926C292.196 -17.9061 293.017 -16.236 299.29 -13.162C309.911 -7.95742 322.876 -7.79181 332.835 -12.7343C336.754 -14.6791 338.153 -16.0797 342.247 -22.1597C347.778 -30.3744 357.184 -39.6636 362.652 -42.3108C367.911 -44.8572 378.787 -46.577 388.39 -46.3821C397.957 -46.1872 400.494 -47.271 401.366 -51.9227C402.51 -58.0195 398.255 -64.1834 390.67 -67.4187C383.491 -70.481 373.14 -73.4072 369.484 -73.4072C365.488 -73.4072 364.679 -72.7436 361.167 -66.5854C358.248 -61.4691 355.358 -60.2097 343.03 -58.6832C322.76 -56.1738 319.411 -55.2143 313.949 -50.3508C307.27 -44.4044 297.636 -40.6423 289.083 -40.6423C283.58 -40.6423 281.042 -39.6796 283.779 -38.6302ZM284.936 319.333C286.162 320.091 291.762 316.917 294.782 313.754C298.135 310.241 303.448 301.469 303.448 299.447C303.448 298.611 302.975 297.931 302.397 297.935C300.376 297.95 292.792 302.864 290.155 305.867C285.393 311.29 282.79 318.006 284.936 319.333ZM290.381 114.449C296.92 120.618 298.425 126.465 295.412 133.995C294.179 137.077 294.137 137.754 295.132 138.436C296.55 139.407 307.316 138.708 310.69 137.425C315.576 135.568 316.004 134.622 315.46 126.903C315.041 120.972 315.258 119.005 316.852 114.286L318.74 108.696L316.952 106.908C312.706 102.662 286.548 105.044 286.685 109.665C286.706 110.399 288.37 112.552 290.381 114.449ZM301.977 -94.9396C307.673 -93.4131 313.156 -95.1261 312.563 -98.2463C311.919 -101.635 300.087 -100.383 300.087 -96.9265C300.087 -96.1015 300.924 -95.2219 301.977 -94.9396ZM305.671 598.954C307.573 600.857 319.83 597.7 319.83 595.308C319.83 594.344 318.903 594.137 315.63 594.371C308.561 594.877 303.789 597.072 305.671 598.954ZM350.243 1143.56C351.43 1144.75 352.809 1144.92 358.434 1144.56C371.563 1143.74 400.322 1131.79 398.046 1128.11C396.081 1124.93 362.789 1129.29 353.723 1133.92C348.871 1136.39 347.334 1140.65 350.243 1143.56ZM369.52 429.249C369.838 429.567 371.137 429.827 372.408 429.827C374.504 429.827 374.804 429.432 375.629 425.585C376.737 420.417 376.802 416.963 375.778 417.596C375.361 417.853 373.754 420.239 372.208 422.896C368.663 428.991 368.841 428.57 369.52 429.249ZM374.347 26.3046C374.878 30.5497 375.576 34.2875 375.899 34.6093C377.063 35.7728 381.828 32.9306 384.198 29.6592C387.592 24.9738 387.372 22.4013 383.257 18.6837C381.082 16.7187 379.064 15.6459 377.544 15.6459C375.387 15.6459 373.034 17.0136 373.28 18.1243C373.337 18.3788 373.816 22.0594 374.347 26.3046ZM376.182 454.19C377.085 457.331 377.353 460.439 377.019 463.893C376.666 467.534 376.854 469.423 377.682 470.555C378.798 472.083 378.872 472.072 379.857 470.231C380.516 469.001 380.676 466.869 380.311 464.212C379.597 459.025 381.565 455.507 387.767 450.882C394.071 446.181 397.026 444.837 406.271 442.462C415.658 440.052 417.223 438.762 415.178 435.117C413.352 431.862 407.287 429.049 400.787 428.442C394.619 427.866 378.51 430.116 376.765 431.798C375.022 433.478 374.623 448.77 376.182 454.19ZM377.696 615.13C378.809 619.32 380.547 624.67 381.557 627.02C383.609 631.787 386.941 635.497 387.851 634.025C388.163 633.519 388.638 624.12 388.906 613.136C389.421 592.025 388.792 585.875 385.842 583.206C384.478 581.971 384.185 582 382.182 583.575C379.141 585.968 376.444 593.691 376.024 601.212C375.755 606.048 376.143 609.284 377.696 615.13ZM382.839 698.667C384.74 700.244 386.77 698.196 386.453 695.022C386.11 691.594 384.478 691.296 382.889 694.371C381.289 697.463 381.29 697.381 382.839 698.667ZM389.413 -86.2115C389.993 -85.1681 391.26 -83.7592 392.228 -83.0812C394.788 -81.2875 415.839 -75.7562 417.771 -76.3687C418.673 -76.6551 420.689 -78.8882 422.252 -81.3304C425.466 -86.3561 427.931 -88.3405 434.646 -91.3103C442.11 -94.6111 441.94 -95.1286 432.827 -96.845C418.834 -99.4821 399.333 -100.222 394.715 -98.2925C389.282 -96.0225 386.935 -90.6743 389.413 -86.2115ZM405.923 404.191C408.364 405.699 412.352 406.226 415.309 405.43C418.841 404.479 423.845 400.682 423.118 399.506C421.844 397.444 405.712 399.912 405.272 402.235C405.128 403 405.421 403.88 405.923 404.191ZM409.513 667.786C413.394 671.381 416.024 673.081 416.024 671.993C416.024 671.152 407.39 662.541 406.547 662.541C404.998 662.541 406.262 664.776 409.513 667.786ZM425.115 681.126C428.879 684.607 433.526 687.797 438.379 690.231C447.97 695.041 448.077 695.071 444.588 691.953C436.617 684.829 420.769 674.319 419.664 675.424C419.475 675.613 421.929 678.178 425.115 681.126ZM432.448 -120.742C433.684 -120.268 439.358 -120.562 452.633 -121.79C457.697 -122.258 459.747 -121.994 466.495 -120.008C475.929 -117.23 481.477 -117.015 493.316 -118.97C506.175 -121.094 507.798 -121.713 514.52 -127.056C523.111 -133.881 524.347 -134.599 530.588 -136.384C537.112 -138.25 544.287 -138.571 559.304 -137.672C572.271 -136.895 574.652 -137.618 578.98 -143.643C582.602 -148.688 586.48 -151.087 594.55 -153.274C606.794 -156.594 607.824 -157.63 610.469 -169.292C611.555 -174.083 613.105 -179.647 613.914 -181.656C615.155 -184.745 615.201 -185.426 614.208 -186.054C612.37 -187.219 595.092 -186.926 589.616 -185.637C582.766 -184.025 580.435 -182.085 579.542 -177.251C578.387 -171.005 575.636 -168.902 565.647 -166.638C561.032 -165.592 554.873 -163.562 551.96 -162.128C547.238 -159.803 546.423 -159.018 544.445 -154.899C540.862 -147.436 539.585 -146.663 527.667 -144.776C521.943 -143.869 512.155 -142.552 505.917 -141.848C488.34 -139.866 474.793 -136.202 467.329 -131.413C460.787 -127.214 457.273 -126.18 447.12 -125.462C437.079 -124.752 431.146 -123.492 431.146 -122.069C431.146 -121.614 431.732 -121.017 432.448 -120.742ZM436.185 735.5C439.525 746.381 440.577 748.381 442.134 746.823C443.715 745.243 444.642 739.196 443.847 735.658C442.436 729.375 437.129 722.19 433.9 722.19C432.339 722.19 432.644 723.967 436.185 735.5ZM435.832 1038.13C438.989 1040.75 448.923 1037.86 451.79 1033.48C453.894 1030.27 452.643 1029.38 446.858 1029.99C441.428 1030.56 437.508 1032.38 435.632 1035.23C434.615 1036.76 434.641 1037.14 435.832 1038.13ZM449.3 429.558C450.843 430.15 458.569 427.906 460.928 426.182C463.516 424.289 462.01 422.266 458.015 422.266C454.074 422.266 450.069 424.074 448.814 426.42C447.657 428.581 447.714 428.95 449.3 429.558ZM454.023 63.3229C454.989 65.3442 457.536 65.8525 458.542 64.2244C458.878 63.6808 459.373 60.9396 459.642 58.1335L460.131 53.0314L469.294 50.7319C479.417 48.1914 482.023 46.6575 480.633 44.0598C479.165 41.3177 474.724 39.1761 470.497 39.1727C465.713 39.1685 463.449 41.4301 460.989 48.6653C459.997 51.5847 458.768 53.6372 457.835 53.9337C454.767 54.9074 452.578 60.2993 454.023 63.3229ZM488.1 1186.19C491.41 1189.42 493.316 1190.13 493.316 1188.14C493.316 1186.87 486.857 1180.06 485.655 1180.06C483.869 1180.06 485.175 1183.33 488.1 1186.19ZM509.955 1131.82C513.799 1141.27 514.789 1142.94 515.886 1141.83C517.039 1140.67 523.55 1123.7 523.555 1121.84C523.563 1119.53 518.028 1111.39 516.017 1110.75C513.926 1110.09 512.44 1111.16 509.138 1115.7C506.027 1119.99 506.154 1122.47 509.955 1131.82ZM521.227 1212.35C523.532 1213.97 525.573 1214.03 526.832 1212.51C528.979 1209.92 525.486 1207.12 521.399 1208.14C518.853 1208.78 518.777 1210.64 521.227 1212.35ZM532.018 447.924C533.611 448.909 534.004 447.473 532.541 446.009C531.232 444.7 531.121 444.697 531.121 445.98C531.121 446.744 531.524 447.62 532.018 447.924ZM563.551 1132.02C565.214 1133.39 570.187 1136.54 574.602 1139.01C579.016 1141.49 584.497 1145.21 586.782 1147.29L590.935 1151.08L591.766 1159.06C592.223 1163.44 593.036 1167.46 593.573 1167.98C598.205 1172.43 613.431 1171.11 614.104 1166.2C614.239 1165.21 612.427 1161.99 609.693 1158.37C604.487 1151.47 604.108 1149.57 606.476 1142.24C607.882 1137.88 607.877 1137.81 606.064 1136.34C600.718 1132.01 582.865 1126.55 571.395 1125.73C560.532 1124.96 557.719 1127.21 563.551 1132.02ZM568.774 302.968C570.539 302.968 574.036 302.363 576.545 301.624C581.614 300.13 602.913 288.885 607.697 285.176C611.812 281.985 615.446 276.054 617.587 269.036C619.063 264.197 620.226 262.322 624.682 257.598C627.612 254.491 631.2 249.569 632.653 246.66C635.2 241.564 636.125 236.599 634.528 236.599C632.679 236.599 626.39 245.268 622.57 253.082C620.284 257.758 617.582 262.351 616.564 263.288C615.546 264.226 611.311 266.991 607.152 269.432C601.849 272.546 597.459 276.048 592.45 281.161C587.382 286.335 583.114 289.729 577.748 292.851C570.43 297.11 565.566 300.876 565.566 302.285C565.566 302.661 567.01 302.968 568.774 302.968ZM578.126 -113.335C581.326 -111.68 587.458 -111.697 591.427 -113.37L594.55 -114.687L592.593 -116.29C590.612 -117.911 585.716 -119.601 582.972 -119.609C580.361 -119.617 575.648 -117.23 575.648 -115.898C575.648 -115.193 576.763 -114.04 578.126 -113.335ZM598.901 144.854C599.242 145.705 601.334 145.819 608.385 145.373C616.883 144.834 617.708 144.927 621.991 146.888C624.5 148.036 627.907 150.165 629.563 151.619C631.991 153.751 632.753 154.046 633.5 153.146C635.711 150.482 634.976 145.675 631.806 142.064C627.893 137.608 623.455 135.677 615.945 135.162C605.996 134.481 601.933 135.348 599.967 138.573C598.34 141.24 598.076 142.797 598.901 144.854ZM608.223 199.891C608.806 202.56 612.061 203.063 619.55 201.642C627.639 200.106 631.756 200.556 636.833 203.531C638.833 204.703 640.663 205.468 640.9 205.232C642.006 204.125 639.819 200.975 635.864 197.976C633.473 196.163 631.097 193.994 630.583 193.156C629.715 191.735 627.767 185.432 626.551 180.1C625.775 176.705 623.999 177.228 618.507 182.466C610.867 189.753 607.321 195.761 608.223 199.891ZM609.814 1264.28C610.188 1265.65 612.486 1265.75 642.919 1265.75H675.622V1262.79C675.622 1258.1 673.838 1257.72 658.186 1259.01C646.778 1259.95 642.934 1259.92 630.256 1258.78C613.416 1257.28 609.738 1257.62 609.542 1260.74C609.471 1261.88 609.593 1263.47 609.814 1264.28ZM629.122 -186.225C637.38 -183.609 640.463 -183.206 644.314 -184.243C648.15 -185.276 652.657 -189.732 655.497 -195.3L657.288 -198.81L655.507 -200.589C653.879 -202.213 652.809 -202.365 643.041 -202.355C634.32 -202.346 631.771 -202.056 629.176 -200.776C625.395 -198.91 624.649 -197.693 623.92 -192.202L623.369 -188.048L629.122 -186.225ZM636.942 87.6176C638.244 93.0842 643.612 100.256 644.826 98.1511C645.479 97.0195 646.333 71.5066 645.767 70.0439C644.288 66.2205 639.298 70.0977 637.345 76.5876C636.042 80.9168 635.949 83.4489 636.942 87.6176ZM656.638 182.411C658.237 186.033 660.961 188.151 664.022 188.151C669.506 188.151 674.245 178.431 672.293 171.184C671.25 167.312 669.506 166.028 665.29 166.028C658.185 166.028 653.403 175.082 656.638 182.411ZM673.27 142.337C674.707 143.773 676.187 143.583 676.872 141.875C677.872 139.376 679.701 132.022 679.397 131.717C678.537 130.857 675.292 132.925 673.888 135.228C672.036 138.265 671.809 140.876 673.27 142.337ZM689.539 206.375C690.724 206.825 692.331 207.195 693.11 207.196C697.099 207.2 711.196 211.377 714.046 213.399C715.785 214.633 718.493 216.577 720.063 217.719C723.333 220.098 725.923 220.329 729.366 218.548C732.313 217.024 735.491 212.74 735.117 210.797C734.806 209.178 732.131 208.241 727.473 208.118C723.22 208.006 718.895 206.105 717.279 203.64C716.553 202.531 715.721 199.884 715.428 197.757C714.978 194.47 715.364 192.804 718.004 186.66C720.355 181.186 721.109 178.285 721.109 174.721C721.109 167.872 720.084 167.477 715.287 172.481C710.454 177.522 706.536 179.062 700.495 178.296C691.517 177.156 691.986 177.043 692.171 180.31C692.88 192.879 692.847 193.175 690.075 198.558C688.595 201.433 687.384 204.184 687.384 204.67C687.384 205.158 688.354 205.924 689.539 206.375ZM704.521 780.426C705.629 781.453 709.27 783.174 712.612 784.25C716.782 785.593 719.789 787.222 722.2 789.444C728.18 794.956 732.185 795.666 739.111 792.44C744.267 790.039 748.028 785.69 749.865 780.002C751.465 775.05 751.568 772.749 750.337 769.502C748.12 763.648 743.404 761.762 739.22 765.054C735.464 768.009 730.091 769.449 720.569 770.053C710.749 770.676 705.154 772.581 703.374 775.906C702.185 778.127 702.23 778.303 704.521 780.426ZM705.928 1113.15C707.545 1115.21 708.14 1115.37 714.261 1115.37C717.886 1115.37 721.471 1115.13 722.227 1114.84C723.944 1114.18 732.751 1102.38 732.751 1100.73C732.751 1098.77 728.701 1096.16 722.885 1094.36C710.057 1090.4 704.187 1094.05 704.187 1105.99C704.187 1109.73 704.613 1111.48 705.928 1113.15ZM751.864 734.952C755.488 738.333 757.432 738.996 763.57 738.945C769.601 738.895 774.835 737.553 775.368 735.92C775.793 734.618 766.847 728.285 762.922 727.11C758.849 725.889 754.079 726.829 751.56 729.349C749.021 731.887 749.046 732.324 751.864 734.952ZM806.472 830.523C815.54 836.07 816.865 837.968 818.732 848.091L819.761 853.669L825.318 853.448C830.633 853.236 830.973 853.341 833.092 855.86C835.93 859.232 837.557 863.127 839.195 870.472C841.19 879.412 844.018 884.435 850.705 890.917C857.232 897.243 863.271 900.759 869.707 901.98C874.199 902.832 876.412 902.422 876.412 900.737C876.412 900.155 872.853 897.331 868.503 894.463C859.186 888.319 851.09 880.224 848.575 874.537C845.634 867.887 845.483 858.444 848.166 849.088C850.551 840.774 850.824 838.508 849.533 837.71C849.074 837.426 845.593 839.105 841.797 841.441C838.002 843.777 833.935 845.686 832.761 845.684C830.698 845.68 823.686 838.65 813.134 826.009C809.805 822.021 807.45 821.245 804.106 823.034C801.064 824.662 802.064 827.827 806.472 830.523ZM805.715 860.742C808.038 861.986 810.519 861.882 813.342 860.421C816.01 859.042 817.398 856.61 815.517 856.61C814.055 856.61 804.888 858.964 804.382 859.47C804.182 859.67 804.781 860.242 805.715 860.742ZM810.82 221.955C813.147 225.453 818.363 229.526 823.692 232.007C828.212 234.111 832.726 234.731 832.726 233.247C832.726 232.789 830.797 230.285 828.438 227.681C819.975 218.336 819.745 213.417 827.521 208.08C831.009 205.685 830.829 203.334 826.961 200.733C817.388 194.296 810.487 199.076 809.553 212.788C809.165 218.482 809.337 219.725 810.82 221.955ZM826.647 1004.14C828.728 1007.25 835.534 1007.91 838.837 1005.31C840.012 1004.39 842.365 1001.08 844.066 997.96C845.766 994.841 848.323 991.071 849.747 989.58C851.997 987.227 852.216 986.606 851.418 984.855C850.913 983.746 849.376 982.447 848.002 981.968C844.891 980.883 843.272 981.663 835.341 988.071C828.018 993.988 824.371 1000.73 826.647 1004.14ZM842.177 924.373C845.176 927.189 851.628 931.632 853.939 932.473C856.362 933.355 855.743 929.648 852.889 926.187C848.99 921.456 839.447 917.571 839.447 920.715C839.447 921.317 840.676 922.964 842.177 924.373ZM852.931 1265.72C862.883 1265.68 863.272 1265.62 860.975 1264.37C858.039 1262.78 845.196 1263.02 843.521 1264.7C842.681 1265.54 844.563 1265.74 852.931 1265.72ZM891.201 963.095C892.048 964.973 893.719 964.214 896.583 960.65C898.128 958.728 902.916 953.426 907.224 948.867C911.533 944.309 915.058 940.035 915.058 939.37C915.058 937.184 912.074 936.302 908.077 937.309C899.595 939.444 891.761 948.79 891.075 957.59C890.883 960.041 890.94 962.517 891.201 963.095ZM892.077 816.546C892.395 816.864 894.103 817.124 895.875 817.124C899.591 817.124 900.442 814.973 897.061 814.125C893.475 813.225 890.298 814.768 892.077 816.546ZM916.846 1265.72C922.641 1265.69 922.904 1265.61 920.939 1264.49C918.159 1262.9 913.016 1262.9 911.697 1264.49C910.783 1265.59 911.433 1265.75 916.846 1265.72ZM916.228 1011.19C917.334 1011.19 921.02 1010.64 924.419 1009.96C927.818 1009.28 931.92 1008.62 933.534 1008.49C940.633 1007.92 935.048 1001.96 927.407 1001.95C922.652 1001.95 919.442 1003.43 916.418 1007.03C913.692 1010.27 913.65 1011.19 916.228 1011.19ZM955.763 887.375C957.461 888.026 958.744 887.058 958.744 885.124C958.744 883.415 958.081 883.156 955.873 884.004C954.207 884.643 954.139 886.752 955.763 887.375ZM969.305 905.255C972.565 909.129 976.069 910.654 981.848 910.715C987.985 910.778 993.469 908.423 993.878 905.547C994.025 904.507 993.961 903.657 993.735 903.657C993.509 903.657 988.488 902.694 982.576 901.518C976.664 900.342 970.871 899.491 969.704 899.627C966.787 899.969 966.637 902.083 969.305 905.255ZM973.189 1247.57C977.748 1251.94 989.304 1258.05 994.17 1258.66C996.951 1259.01 998.456 1258.71 1000.55 1257.4C1003.98 1255.25 1006.53 1250.32 1005.26 1248.27C1004.07 1246.35 986.449 1240.57 980.167 1240.04C974.198 1239.54 970.196 1240.52 969.8 1242.57C969.628 1243.46 970.968 1245.44 973.189 1247.57ZM990.632 1109.23C992.845 1112.86 995.028 1114.16 1005.59 1118.1C1024.53 1125.18 1026.35 1125.74 1028.6 1125.18C1033.8 1123.87 1031.68 1119.94 1023.58 1115.86C1020.5 1114.31 1014.78 1111.1 1010.88 1108.72C1004.34 1104.75 997.348 1101.93 994.064 1101.93C992.287 1101.93 988.988 1104.28 988.992 1105.54C988.994 1106.1 989.731 1107.75 990.632 1109.23ZM1038.81 1224.58C1041.53 1224.58 1050.42 1211.63 1053.3 1203.47C1055.54 1197.1 1054.25 1185.33 1050.62 1179.11C1048.57 1175.59 1042.29 1170.72 1040.64 1171.36C1038.94 1172.01 1039.08 1175.23 1041.17 1183.98C1043.36 1193.1 1042.98 1201.71 1039.84 1214.07C1037.4 1223.68 1037.31 1224.58 1038.81 1224.58ZM1053.68 1251.57C1054.78 1253.44 1061.47 1256.18 1067.67 1257.3C1079.04 1259.35 1089.24 1253.85 1097.36 1241.3C1102.81 1232.85 1103.22 1229.2 1100.73 1210.72C1100.17 1206.56 1099.17 1202.13 1098.52 1200.86C1097.04 1197.99 1093.61 1197.02 1090.7 1198.65C1087.6 1200.38 1087.5 1204.08 1090.38 1210.5C1093.78 1218.07 1093.54 1223.27 1089.38 1231.67C1084.15 1242.26 1077.05 1248.93 1068.26 1251.5C1065.22 1252.39 1064.1 1252.3 1059.48 1250.73C1052.41 1248.35 1051.85 1248.43 1053.68 1251.57ZM1061.8 961.065C1062.82 962.088 1070.95 961.645 1075.4 960.322C1082.01 958.36 1084.88 955.382 1085.4 949.959C1085.64 947.477 1085.37 944.151 1084.79 942.386C1083.84 939.505 1083.95 938.867 1086.04 934.852C1089.19 928.833 1089.65 924.063 1087.36 921.162C1083.53 916.309 1074.55 913.878 1068.97 916.189C1065.29 917.712 1065.55 919.761 1069.85 923.055C1076.2 927.92 1078.99 930.88 1081.06 934.924C1082.17 937.103 1083.08 939.049 1083.08 939.248C1083.08 939.447 1078.17 943.831 1072.16 948.991C1061.99 957.732 1060.36 959.626 1061.8 961.065ZM1085.9 -94.2279C1087.86 -87.2246 1097.13 -73.0132 1103.97 -66.5048C1111.98 -58.8941 1117.56 -56.2224 1124.2 -56.824C1133.21 -57.6414 1144.29 -65.4261 1140.11 -68.007C1139.6 -68.3254 1134.75 -68.8931 1129.35 -69.2687C1117.99 -70.0584 1112.5 -71.7959 1104.73 -77.05C1097.02 -82.2756 1096.09 -83.924 1096.19 -92.1681C1096.31 -100.758 1098.32 -110.163 1100.87 -113.974C1104.92 -120.016 1118.54 -134.615 1123.19 -137.888C1129.43 -142.28 1132.38 -145.419 1131.29 -146.51C1130.75 -147.057 1128.9 -146.574 1125.89 -145.098C1122.56 -143.468 1117.87 -139.404 1108.68 -130.185C1101.73 -123.216 1094.32 -116.112 1092.2 -114.399C1085.84 -109.255 1083.65 -102.253 1085.9 -94.2279ZM1102.2 910.356C1102.54 910.344 1104.53 907.651 1106.61 904.372C1109.21 900.26 1112.81 896.328 1118.19 891.695C1125.51 885.387 1129.06 881.027 1127.86 879.82C1126.78 878.743 1122.15 879.347 1118.71 881.013C1109.35 885.543 1101.57 896.83 1101.57 905.87C1101.57 908.349 1101.85 910.368 1102.2 910.356ZM1105.47 179.614C1107.7 180.597 1111.15 181.585 1113.15 181.81C1116.26 182.161 1117.12 181.893 1119.19 179.906C1120.52 178.633 1122.08 176.452 1122.66 175.058C1123.58 172.819 1123.52 172.382 1122.09 171.307C1119.96 169.709 1113.08 170.457 1106.72 172.978C1100.46 175.463 1100.13 177.249 1105.47 179.614ZM1131.6 89.7095C1138.95 95.8751 1154.29 100.24 1155.7 96.5665C1156.01 95.7516 1155.25 93.202 1153.89 90.5287C1150.73 84.2723 1147.63 82.613 1140.03 83.1036C1131.81 83.6338 1127.96 86.6523 1131.6 89.7095ZM1143.67 -184.671C1146.88 -183.01 1151.1 -183.624 1153.32 -186.076C1154.86 -187.777 1154.86 -187.841 1153.27 -189C1151.64 -190.195 1144.83 -190.617 1142.38 -189.674C1140.16 -188.823 1140.86 -186.128 1143.67 -184.671ZM1154.94 1060.77C1164.84 1064.03 1190.26 1062.58 1191.76 1058.66C1192.94 1055.6 1181.8 1052.81 1168.35 1052.79C1155.91 1052.78 1151.97 1053.88 1151.97 1057.4C1151.97 1059.39 1152.47 1059.95 1154.94 1060.77ZM1158.06 165.821C1161.01 168.57 1172.19 173.589 1175.38 173.589C1176.95 173.589 1179.64 173.17 1181.35 172.657C1183.9 171.894 1184.95 171.974 1187.12 173.099C1190.11 174.643 1201.71 188.24 1206.43 195.725C1212.14 204.796 1214.52 207.528 1217.78 208.77C1220.6 209.843 1221.11 209.83 1222.28 208.659C1224.03 206.909 1222.98 203.903 1217.53 195C1211.34 184.873 1206.72 174.696 1205.35 168.137C1203.41 158.869 1204.66 152.614 1210.59 141.754C1215.77 132.283 1226.3 119.425 1230.57 117.365C1232.13 116.609 1237.99 115.897 1246.49 115.432C1271.77 114.045 1276.43 115.693 1286.95 129.725C1294.39 139.662 1307.28 154.837 1309.53 156.31C1314.49 159.563 1315.48 156.556 1312.02 148.725C1307.89 139.388 1309.96 132.597 1316.67 133.497C1323.64 134.432 1336.15 145.444 1338.83 153.009C1339.65 155.317 1340.87 158.78 1341.54 160.704C1342.94 164.718 1346.01 166.516 1355.38 168.822C1366.74 171.617 1374.37 176.609 1376.32 182.51C1377.48 186.04 1376.97 188.453 1373.72 194.768C1372.36 197.406 1371.24 200.156 1371.24 200.877C1371.24 201.6 1372.74 203.812 1374.57 205.794C1381.94 213.794 1381.5 219.611 1372.65 230.939C1370.57 233.603 1368.02 237.523 1366.99 239.652C1365.44 242.86 1364.36 243.856 1360.68 245.482C1354.84 248.067 1342.44 256.925 1339.77 260.425C1338.61 261.953 1337.42 264.366 1337.14 265.788C1336.61 268.427 1337.98 273.997 1339.37 274.858C1339.8 275.12 1341.57 274.207 1343.3 272.828C1345.04 271.449 1348.81 269.539 1351.69 268.582C1364.21 264.412 1382.98 268.196 1387.4 275.782C1388.77 278.143 1388.83 279.037 1387.96 284.316C1386.78 291.456 1387.37 294.351 1390.22 295.436C1391.4 295.882 1396.04 296.487 1400.54 296.782C1410.51 297.435 1412.41 296.729 1412.41 292.382C1412.41 288.897 1413.3 287.003 1417.17 282.206C1420.43 278.172 1424.4 276.626 1428.49 277.799C1429.93 278.211 1433.31 280.654 1436.01 283.231C1438.71 285.807 1443.07 288.898 1445.69 290.099C1452.6 293.261 1453.91 292.576 1458.74 283.266C1460.88 279.131 1462.47 275.319 1462.27 274.794C1461.4 272.529 1455.35 270.859 1444.18 269.798C1431.89 268.63 1432.28 268.765 1420.5 261.539C1417.79 259.874 1411.95 257.307 1407.53 255.834C1397.94 252.639 1395.61 250.683 1395.61 245.823C1395.61 241.783 1396.55 239.692 1400.03 236.017C1402.27 233.643 1402.49 232.967 1401.95 230.136C1401.62 228.376 1401.03 225.236 1400.64 223.156C1399.45 216.769 1400.76 213.884 1407.81 207.393C1411.26 204.208 1414.09 201.002 1414.09 200.266C1414.09 199.531 1412.67 198.083 1410.94 197.047C1403.51 192.61 1400.97 187.985 1403.3 183.143C1404.86 179.897 1408.8 177.451 1416.71 174.817C1424.3 172.29 1428.12 169.599 1427.26 167.379C1425.81 163.579 1399.59 156.272 1383.38 155.145C1373.48 154.458 1371.99 153.989 1368.77 150.547C1367.04 148.698 1366.65 147.246 1366.25 141.306C1365.83 134.914 1365.53 133.959 1363.06 131.031C1361.56 129.255 1359.29 126.101 1358.02 124.022C1354.76 118.699 1354.92 112.143 1358.59 100.918C1363.83 84.8881 1368.37 79.5525 1381.42 74.1068C1401.07 65.9122 1406.53 62.933 1406.53 60.4152C1406.53 57.5142 1389.31 52.9231 1382.08 53.896C1375.98 54.7151 1373.35 56.8381 1369.92 63.7162C1365.32 72.9155 1363.65 74.6815 1354.15 80.338C1347.98 84.0161 1342.46 88.3056 1335.29 95.0123C1322.78 106.715 1318.8 108.9 1310.02 108.9C1304.88 108.9 1301.95 108.29 1294.01 105.565C1288.66 103.731 1281.27 101.321 1277.57 100.209C1273.87 99.0971 1267.64 96.8237 1263.71 95.1577C1255.23 91.562 1253.13 91.4184 1249.34 94.1765C1246.78 96.0407 1235.71 103.693 1230.26 107.371C1229.1 108.148 1224.92 109.795 1220.95 111.033C1216.98 112.269 1211.57 114.375 1208.92 115.711C1203.11 118.646 1199.82 118.758 1189.75 116.363C1181.97 114.515 1178.56 114.676 1177.69 116.93C1177.41 117.657 1177.94 121.706 1178.86 125.929C1180.84 134.989 1180.96 139.027 1179.37 142.841C1177.55 147.197 1175.17 148.385 1168.27 148.385C1164.47 148.385 1161.95 148.773 1161.41 149.436C1160.24 150.888 1156.17 161.257 1156.17 162.797C1156.17 163.489 1157.02 164.849 1158.06 165.821ZM1198.88 274.517C1200.83 276.706 1201.91 277.193 1204.97 277.261C1208.22 277.334 1208.71 277.108 1208.95 275.435C1209.32 272.835 1206.74 265.318 1204.81 263.393C1202.84 261.419 1199.96 262.499 1197.9 265.994C1195.91 269.357 1196.15 271.47 1198.88 274.517ZM1205.57 1147.29C1209.77 1147.29 1233.21 1133.39 1238.01 1128.07C1239.58 1126.31 1239.58 1126.29 1237.87 1126.29C1236.91 1126.29 1233.07 1127.46 1229.32 1128.89C1216 1133.97 1198.82 1147.29 1205.57 1147.29ZM1228.17 1232.78C1228.81 1234.49 1235.6 1233.99 1240.9 1231.84C1247.32 1229.23 1265.94 1217.4 1267.6 1214.88C1269.35 1212.19 1268.38 1210.91 1265.1 1211.6C1263.64 1211.9 1257.16 1214.42 1250.69 1217.2C1234.72 1224.05 1226.92 1229.45 1228.17 1232.78ZM1229.71 -59.7426C1232.49 -55.6596 1237.29 -53.2443 1242.62 -53.2443C1244.92 -53.2443 1247.04 -53.6164 1247.32 -54.0718C1247.6 -54.5271 1246.12 -56.1032 1244.04 -57.5742C1238.64 -61.3783 1237.34 -64.5851 1237.9 -72.7158C1238.45 -80.8003 1237.6 -81.1413 1231.66 -75.2075C1227.89 -71.4345 1227.58 -70.8154 1227.58 -67.0012C1227.58 -63.9701 1228.15 -62.0445 1229.71 -59.7426ZM1252.18 1184.24C1252.83 1185.51 1254.85 1186.94 1257.42 1187.95C1273.07 1194.06 1274.06 1194.61 1277.53 1199.27L1280.9 1203.78L1286.37 1203.38C1293.17 1202.89 1302.35 1198.65 1302.35 1196.01C1302.35 1193.39 1296.7 1189.93 1284.57 1185.14C1272.3 1180.29 1264.86 1178.41 1257.79 1178.39C1251.47 1178.37 1249.99 1179.91 1252.18 1184.24ZM1283.59 723.03C1284.35 723.03 1287.77 720.13 1291.18 716.586C1301.52 705.829 1308.56 693.626 1304.42 693.626C1301.79 693.626 1295.9 697.672 1291.89 702.231C1284.85 710.243 1279.74 723.03 1283.59 723.03ZM1347.09 292.684C1350.1 295.506 1357.83 297.624 1357.79 295.617C1357.78 294.948 1350.52 290.749 1347.18 289.482C1344.56 288.485 1344.51 290.269 1347.09 292.684ZM1389.59 1062.02C1391.85 1068.41 1394 1070.48 1398.38 1070.48C1402.41 1070.48 1405.63 1068.37 1407.69 1064.39C1408.91 1062.03 1408.91 1061.44 1407.69 1057.53C1406.95 1055.18 1405.77 1051.09 1405.06 1048.44C1403.59 1042.98 1401.76 1041.48 1397.5 1042.28C1391.92 1043.32 1387.77 1048.69 1387.9 1054.7C1387.94 1056.21 1388.69 1059.51 1389.59 1062.02ZM1393.24 728.159C1396.15 729.722 1407.45 730.156 1409.24 728.773C1411.53 727.009 1409.85 725.592 1404.41 724.707C1396.03 723.343 1388.57 725.648 1393.24 728.159ZM1429.91 -102.805C1431.55 -101.039 1434.41 -99.7098 1440.56 -97.8447C1445.18 -96.4434 1449.81 -94.6968 1450.85 -93.9625C1454.29 -91.543 1455.49 -88.0186 1454.86 -82.1898L1454.3 -76.9348L1457.66 -76.3678C1463.47 -75.3849 1484.05 -78.4463 1490.91 -81.3136C1496.43 -83.6223 1496.37 -84.6782 1490.37 -90.439C1484.34 -96.2308 1482.98 -99.3074 1485.05 -102.469C1487.19 -105.731 1489.6 -106.817 1501.49 -109.893C1528.33 -116.832 1551.03 -126.172 1551.03 -130.273C1551.03 -131.825 1541.48 -131.721 1532.97 -130.077C1529.27 -129.362 1521.03 -128.046 1514.66 -127.153C1508.28 -126.259 1498.08 -124.209 1491.97 -122.596C1484.9 -120.724 1473.73 -118.728 1461.14 -117.081C1439.87 -114.3 1434.03 -113.02 1430.71 -110.408C1427.52 -107.897 1427.28 -105.628 1429.91 -102.805ZM1439.72 201.315C1442.91 202.527 1447.33 202.344 1448.49 200.952C1450.05 199.074 1446.64 197.669 1442.16 198.34C1437.71 199.007 1436.75 200.185 1439.72 201.315ZM1462.88 68.8804C1464.85 71.3856 1468.46 71.8586 1469.28 69.7196C1470.4 66.7977 1465.53 62.923 1462.66 64.457C1460.71 65.4996 1460.75 66.1676 1462.88 68.8804ZM1465.65 321.714C1466.29 321.957 1471.05 322.832 1476.23 323.659C1485.48 325.134 1485.71 325.132 1488.66 323.517C1492.24 321.563 1494.77 317.044 1494.96 312.299C1495.15 307.489 1494.11 306.708 1489.13 307.95C1483.39 309.381 1469.8 315.455 1466.93 317.877C1464.23 320.142 1463.93 321.054 1465.65 321.714ZM1475.44 748.973C1481.22 761.202 1485.77 764.163 1502.01 766.268C1517.87 768.323 1527.26 772.233 1531.42 778.522C1533.2 781.221 1533.71 783.207 1534.13 789.275C1534.44 793.535 1535.14 797.3 1535.79 798.08C1536.41 798.829 1539.06 800.491 1541.67 801.772C1546.11 803.952 1547.3 804.131 1560.27 804.557C1573.14 804.981 1574.44 805.172 1578.4 807.228C1581.26 808.713 1583.88 811.057 1586.34 814.334C1590.46 819.806 1597.94 829.006 1600.98 832.33C1603.46 835.045 1608.1 837.245 1621.1 841.874C1626.69 843.865 1633.64 846.389 1636.54 847.482C1641.12 849.205 1641.92 849.302 1642.6 848.215C1643.65 846.522 1642.99 844.057 1639.14 835.396C1635.44 827.04 1634.99 823.434 1637.57 822.759C1638.5 822.516 1641.81 822.849 1644.93 823.5C1651.85 824.951 1658.73 825.03 1660.08 823.677C1660.63 823.122 1661.09 821.653 1661.09 820.412C1661.09 817.847 1660.36 817.42 1647.65 812.527C1638.9 809.162 1631.02 807.074 1626.99 807.055C1622.68 807.034 1614.79 802.42 1606.23 794.9C1596.91 786.72 1595.97 786.169 1586.32 783.223C1581.93 781.885 1575.12 778.718 1568.67 775.02C1553.62 766.385 1530.98 755.571 1520.76 752.129C1495.13 743.505 1478.09 739.138 1474.5 740.278C1472.3 740.978 1472.49 742.736 1475.44 748.973ZM1479.71 277.732C1488.35 283.99 1497.79 285.169 1503.62 280.72C1507.72 277.595 1513.38 268.78 1513.05 266.025C1512.84 264.217 1512.32 263.863 1509.54 263.635C1503.47 263.138 1481.32 269.247 1477.87 272.365C1475.63 274.399 1475.8 274.897 1479.71 277.732ZM1511.72 730.357C1517.31 734.84 1536.58 740.2 1553.13 741.878C1560.13 742.587 1566.7 741.185 1570.77 738.114C1586.87 725.964 1587.49 725.807 1623.28 724.749C1648.84 723.994 1657.92 723.077 1659.12 721.129C1660.28 719.252 1653.42 714.811 1643.22 710.84C1637.57 708.64 1628.03 704.759 1622.02 702.216C1607.67 696.139 1605.22 695.909 1597.1 699.87C1591.67 702.516 1589.6 703.039 1582.05 703.656C1576.24 704.13 1571.46 705.067 1567.83 706.441C1560.98 709.037 1549.07 712.471 1541.32 714.079C1534.94 715.405 1518.29 722.046 1513.86 725.038C1510.85 727.064 1510.06 729.027 1511.72 730.357ZM1526.05 960.836C1530.09 966.842 1539.24 971.839 1542.75 969.963C1544.82 968.856 1544.75 968.458 1541.72 963.888C1537.29 957.194 1528.82 951.378 1525.41 952.687C1523.54 953.405 1523.87 957.602 1526.05 960.836ZM1530.34 1042.28C1530.98 1042.28 1536.74 1038.83 1543.16 1034.62C1549.57 1030.41 1559.35 1024.77 1564.89 1022.1C1580.75 1014.44 1586.29 1009.18 1583.93 1004.01C1582.4 1000.65 1579.19 1001.3 1574.22 1005.99C1571.68 1008.39 1566.12 1012.02 1560.56 1014.9C1549.61 1020.59 1539.51 1028.28 1533.47 1035.54C1529.03 1040.87 1528.38 1042.28 1530.34 1042.28ZM1543.07 1084.54C1546.59 1086.22 1548.79 1086.38 1548.31 1084.91C1547.86 1083.54 1541.71 1081.5 1540.8 1082.42C1540.41 1082.81 1541.43 1083.76 1543.07 1084.54ZM1555.73 392.561C1559.88 395.725 1566.96 396.291 1571.76 393.842C1583.5 387.853 1585.33 373.881 1576.67 356.316C1572.98 348.813 1562.13 336.119 1560.66 337.585C1560.48 337.764 1562.21 343.933 1564.51 351.293C1566.97 359.201 1568.67 366.231 1568.66 368.477C1568.62 375.867 1564.11 382.036 1556.29 385.388C1551.78 387.321 1551.62 389.42 1555.73 392.561ZM1559.85 220.928C1562.34 223.427 1566.98 224.247 1575.33 223.668C1579.76 223.361 1589.43 222.764 1596.82 222.342C1607.58 221.726 1611.43 221.159 1616.14 219.503C1619.4 218.355 1626.88 216.826 1632.94 216.068C1647.51 214.244 1658.12 211.695 1660.83 209.366C1662.89 207.598 1662.99 207.107 1662.84 200.136C1662.73 195.089 1663.12 191.43 1664.1 188.496C1665.22 185.132 1665.33 183.667 1664.61 181.634C1664.11 180.213 1662.87 175.461 1661.86 171.075C1660.06 163.294 1659.88 162.965 1654.66 157.558C1650.23 152.963 1648.99 151.022 1647.43 146.21L1645.55 140.404L1640.92 138.904C1634.89 136.945 1633.04 134.777 1633.73 130.466C1634.02 128.673 1634.8 126.141 1635.48 124.839C1636.71 122.46 1644.41 112.512 1650.34 105.631C1654.1 101.275 1654.28 99.5381 1651.34 96.0365C1649.47 93.8194 1649.22 92.8978 1649.64 89.8221C1650.46 83.843 1653.04 79.8892 1658.57 76.1322C1665.32 71.546 1666.32 69.8221 1666.71 62.0123C1667.36 49.2433 1668.44 47.2799 1678.38 40.8059C1683.17 37.6823 1684.47 37.2186 1688.2 37.3035C1690.57 37.3572 1694.34 37.8404 1696.57 38.3772C1699.59 39.1005 1701.59 39.1122 1704.34 38.4208C1710.01 36.9934 1715.44 37.3261 1723.09 39.5692C1730.66 41.7922 1739.2 43.039 1741.31 42.2291C1743.34 41.4503 1741.23 38.0159 1735.14 32.2081C1728.84 26.208 1725.94 24.9595 1715.23 23.6431C1704.94 22.3795 1698.48 19.5407 1688.39 11.8444C1676.65 2.8836 1672.56 1.46806 1668.24 4.86804C1664.5 7.811 1662.81 12.598 1662.79 20.3237C1662.76 31.6578 1661.28 35.0402 1652.64 43.5767C1643.78 52.3375 1642.82 54.5857 1644.77 62.114C1645.48 64.8427 1645.82 68.1654 1645.53 69.4969C1644.8 72.8306 1635.98 80.6043 1626.52 86.2574C1617.5 91.6494 1611.52 97.1892 1611.52 100.162C1611.52 102.389 1612.79 103.167 1619 104.739C1621.04 105.254 1623.78 106.75 1625.09 108.063C1629.69 112.66 1628.02 117.261 1617.91 127.802C1608.83 137.266 1602.82 146.006 1601.44 151.743C1600.46 155.824 1600.51 156.231 1602.17 157.896C1603.74 159.465 1605.29 159.745 1615.09 160.235C1621.21 160.54 1626.98 161.086 1627.9 161.446C1633.85 163.766 1637.88 169.774 1637.75 176.128C1637.63 181.568 1636.75 183.382 1628.77 194.509C1619.51 207.426 1616.25 209.058 1605.98 205.943C1601.18 204.486 1593.22 204.333 1588.42 205.603C1586.57 206.092 1580.87 206.565 1575.75 206.654C1564.8 206.844 1562.72 207.777 1560.22 213.619C1558.26 218.182 1558.21 219.29 1559.85 220.928ZM1563.05 -133.117C1565.26 -132.277 1577.29 -130.345 1580.39 -130.333C1583.15 -130.323 1586.49 -134.264 1586.15 -137.147C1585.82 -140.017 1581.63 -142.111 1574.79 -142.826C1567.92 -143.543 1565.97 -142.908 1563.34 -139.117C1560.61 -135.179 1560.56 -134.066 1563.05 -133.117ZM1581.21 1057.05C1582.74 1063.26 1584.17 1063.07 1589.76 1055.93C1592.2 1052.81 1597.18 1047.14 1600.82 1043.32C1608.63 1035.15 1608.92 1033.59 1602.69 1033.18C1597.19 1032.83 1593.3 1034.06 1588.63 1037.62C1582.83 1042.05 1579.6 1050.51 1581.21 1057.05ZM1600.87 932.918L1602.82 934.749L1607.56 931.064C1610.85 928.511 1613.46 927.206 1616.05 926.817C1620.41 926.163 1624.91 923.391 1626.41 920.434C1628.59 916.117 1627.18 910.783 1623.3 908.707C1620.07 906.976 1618.53 909.133 1615.83 919.199C1615.33 921.047 1613.95 923.6 1612.77 924.87C1610.93 926.837 1609.94 927.18 1606.09 927.18C1603.61 927.18 1600.98 927.409 1600.25 927.69C1598.33 928.425 1598.61 930.801 1600.87 932.918ZM1605.45 984.825C1606.25 985.802 1610.1 988.753 1614.01 991.383C1619.64 995.172 1621.56 996.054 1623.25 995.635C1626.38 994.859 1629.02 992.07 1631.78 986.616C1633.17 983.866 1637.33 978.516 1641.41 974.211C1647.84 967.419 1651.78 961.47 1651.83 958.449C1651.87 955.996 1648.81 956.679 1638.64 961.4C1632.73 964.139 1623.77 967.861 1618.72 969.674C1608.28 973.418 1603.95 976.64 1603.98 980.627C1603.99 981.959 1604.65 983.848 1605.45 984.825ZM1605.01 -143.756C1606.66 -141.578 1609.82 -140.761 1623.56 -138.956C1636.87 -137.207 1643.9 -135.23 1653.95 -130.415C1662.88 -126.132 1666.51 -126.406 1674.53 -131.963C1683.04 -137.862 1685.48 -138.746 1695.98 -139.741C1705.61 -140.653 1710.04 -142.351 1710.48 -145.289C1710.61 -146.195 1708.77 -150.901 1706.39 -155.749C1701.6 -165.494 1701.05 -169.046 1703.64 -173.528C1706.24 -178.032 1709.72 -179.259 1719.9 -179.264C1727.07 -179.268 1729.2 -179.566 1731.33 -180.861C1734.86 -183.017 1735.48 -185.645 1732.84 -187.37C1731.03 -188.56 1728.49 -188.602 1708.76 -187.768C1685.28 -186.774 1681.35 -186.163 1678.2 -183.012C1675.77 -180.584 1675.72 -178.926 1677.89 -172.76C1680.22 -166.143 1680.04 -163.897 1676.93 -160.357C1673.67 -156.633 1672.35 -155.919 1666.81 -154.869C1661.64 -153.889 1653.02 -155.157 1637.64 -159.159C1625.96 -162.197 1618.34 -162.495 1613.03 -160.12C1608.58 -158.129 1606.89 -156.283 1605.24 -151.602C1603.68 -147.189 1603.64 -145.564 1605.01 -143.756ZM1610.21 756.635C1613.83 756.635 1614.84 755.218 1612 754.137C1609.49 753.184 1607.32 753.8 1607.32 755.465C1607.32 756.238 1608.3 756.635 1610.21 756.635ZM1626.29 1032.53C1627.02 1032.81 1629.07 1033.04 1630.84 1033.04C1634.86 1033.04 1636.72 1032.35 1636.72 1030.87C1636.72 1027.9 1626.53 1025.74 1625.47 1028.48C1624.63 1030.69 1624.89 1031.99 1626.29 1032.53ZM1626.72 399.914C1630.37 410.515 1637.91 418.988 1662.01 439.529C1674.97 450.581 1683.32 456.879 1688.56 459.543C1691.4 460.989 1693.87 461.335 1693.83 460.281C1693.81 459.934 1690.5 455.846 1686.48 451.196C1676.86 440.097 1656.25 420.418 1645.62 412.174C1640.96 408.563 1635.63 404.047 1633.78 402.137C1630.7 398.953 1630.39 398.203 1630 393.099C1629.53 386.84 1628.25 385.575 1626.27 389.406C1624.6 392.646 1624.65 393.886 1626.72 399.914ZM1640.4 -44.3734C1642.77 -39.2806 1651.77 -29.2949 1651.82 -31.7035C1651.86 -34.0382 1646.98 -42.7233 1643.24 -46.9802C1638.1 -52.8208 1636.95 -51.7724 1640.4 -44.3734ZM1661.36 323.85C1666.16 327.834 1681.09 328.968 1688.07 325.879C1694.57 323.005 1703.48 313.935 1701.62 312.082C1701.06 311.523 1697.87 312.671 1692.07 315.513C1680.87 320.999 1675.85 321.963 1667.91 320.156C1664.64 319.414 1661.58 319.045 1661.11 319.338C1659.89 320.091 1660.04 322.753 1661.36 323.85ZM1676.42 484.283C1679.31 487.396 1683.46 492.283 1685.64 495.142C1691.21 502.448 1694.68 504.096 1704.35 504.032C1708.51 504.003 1715.88 503.313 1720.74 502.498C1727.43 501.373 1731.38 501.169 1737.12 501.652C1745.83 502.383 1749.65 502.384 1752.55 501.657C1756.2 500.739 1752.84 498.942 1745.52 497.896C1735.82 496.51 1727.53 494.111 1716.54 489.508C1705.3 484.806 1696.02 481.426 1684.02 477.674C1675.24 474.929 1671.17 474.825 1671.17 477.344C1671.17 478.046 1673.53 481.168 1676.42 484.283ZM1673.12 888.634C1675.9 896.078 1678.81 899.244 1691.99 909.117C1696.93 912.814 1702.07 917.425 1703.42 919.364C1705.66 922.588 1705.92 923.733 1706.49 932.806C1707.14 943.044 1708.07 946.938 1710.84 950.915C1713.35 954.521 1715.42 955.201 1725.78 955.834C1734.37 956.359 1736.4 956.806 1744.1 959.874C1748.87 961.771 1755.1 964.548 1757.96 966.045L1763.16 968.766L1781.61 969.023C1791.76 969.164 1800.83 969.08 1801.77 968.837C1802.72 968.592 1804.12 967.271 1804.89 965.9C1805.87 964.163 1807.33 963.127 1809.72 962.483C1811.61 961.975 1813.69 960.724 1814.33 959.702C1815.03 958.609 1815.75 954.214 1816.08 949.023C1816.39 944.172 1817.24 937.934 1817.96 935.161C1819.67 928.547 1819.62 918.567 1817.83 913.742C1814.13 903.71 1806.4 895.61 1798.5 893.471C1792.1 891.74 1780.81 893.937 1780.81 896.913C1780.81 897.656 1783.49 899.174 1787.72 900.821C1791.52 902.303 1795.75 904.315 1797.12 905.291C1800.38 907.612 1805.14 915.528 1807.73 922.927C1810.98 932.249 1810.4 935.746 1804.1 944.639C1799.88 950.599 1797.12 952.384 1792.15 952.384C1785.76 952.384 1780.18 947.711 1779.13 941.487C1778.24 936.246 1776.64 935.583 1764.87 935.573C1756.06 935.566 1754.22 935.314 1750.55 933.606C1742.46 929.837 1738.38 922.491 1741.15 916.679C1741.87 915.165 1744.19 911.981 1746.3 909.603C1748.41 907.226 1750.14 904.946 1750.14 904.537C1750.14 901.668 1746.25 898.616 1742.59 898.616C1741.62 898.616 1738.54 899.809 1735.74 901.268C1729.55 904.484 1724.36 904.898 1721.54 902.396C1720.5 901.472 1718.8 898.826 1717.76 896.516C1715.35 891.144 1713.48 889.491 1704.98 885.253C1700.44 882.987 1696.82 880.444 1694.48 877.884C1687.89 870.663 1687.28 870.121 1685.22 869.605C1682.23 868.854 1677.62 871.103 1674.93 874.619C1672.16 878.249 1671.42 884.046 1673.12 888.634ZM1710.29 178.99C1713.55 182.241 1721.85 179.271 1727.7 172.768C1732.61 167.308 1734.91 158.862 1732.51 155.106C1731.51 153.549 1730.53 154.097 1720.98 161.532C1709.68 170.324 1706.62 175.319 1710.29 178.99ZM1710.38 122.153C1710.61 122.742 1713.7 125.444 1717.24 128.159C1720.78 130.873 1725.36 134.833 1727.42 136.96C1729.48 139.085 1731.6 140.824 1732.12 140.824C1733.24 140.824 1735.02 137.226 1735.02 134.969C1735.02 132.514 1731.09 128.44 1727.64 127.322C1725.92 126.765 1721.59 124.849 1718.02 123.065C1710.04 119.074 1709.09 118.962 1710.38 122.153ZM1743.3 242.935C1746.97 248.95 1755.12 253.532 1765.07 255.168C1776.16 256.992 1774.75 254.978 1757.48 244.305C1749.87 239.604 1743.22 235.758 1742.69 235.758C1741.21 235.758 1741.58 240.104 1743.3 242.935ZM1748.55 344.567C1751.07 349.357 1756.05 355.113 1765.81 364.522C1770.84 369.382 1776.34 375.73 1779.25 380.051C1785.17 388.857 1789.51 392.241 1795.02 392.36C1802.2 392.514 1805.34 386.47 1802.75 377.53C1800.72 370.554 1799.36 369.33 1792.14 367.964C1788.71 367.318 1785.14 366.277 1784.2 365.653C1783.26 365.029 1780.22 361.349 1777.44 357.477C1771.52 349.231 1765.7 344.893 1755.18 340.875C1746.24 337.462 1745.13 338.084 1748.55 344.567ZM1761.87 59.7524C1765.24 66.6045 1770.78 72.6669 1778.07 77.485C1784.65 81.8318 1784.72 81.8443 1796.35 80.7496C1801.77 80.2397 1803.7 80.4624 1810.19 82.351C1822.89 86.0458 1836.67 87.1656 1836.67 84.5024C1836.67 84.0387 1835.76 82.2501 1834.65 80.5278C1832 76.4188 1831.28 72.6198 1832.47 69.0098C1833.73 65.1729 1836.37 63.202 1843.23 60.9647C1853.93 57.4748 1856.52 55.4888 1852.85 53.5918C1847.61 50.8866 1839.26 51.8896 1829.05 56.4498C1817.39 61.6586 1803.3 63.2633 1792.89 60.5665C1790.16 59.8591 1783.4 57.589 1777.87 55.5215C1766.33 51.2016 1759.93 50.3295 1759.6 53.0314C1759.48 53.9555 1760.51 56.98 1761.87 59.7524ZM1848.59 903.632C1851.88 905.636 1855.77 905.826 1858.23 904.101C1860.68 902.384 1869.44 886.802 1869.44 884.158C1869.44 880.92 1865.05 876.587 1862.12 876.924C1860.13 877.152 1859.67 877.708 1859.08 880.553C1857 890.592 1855.73 892.638 1849.18 896.529C1845.25 898.87 1845.03 901.461 1848.59 903.632ZM1879.74 764.196C1881.49 764.196 1889.76 758.264 1893.8 754.106C1898.55 749.232 1902.77 741.74 1901.49 740.462C1899.57 738.546 1887.47 749.528 1881.4 758.695C1878.43 763.175 1878.13 764.196 1879.74 764.196ZM1887.42 421.058C1888.04 422.472 1890.77 425.675 1893.49 428.174C1896.2 430.674 1904.66 439.035 1912.28 446.755C1919.91 454.474 1927.41 461.41 1928.95 462.169C1930.49 462.928 1935.07 463.891 1939.12 464.311C1943.18 464.731 1947.11 465.312 1947.87 465.603C1949 466.035 1949.25 465.559 1949.25 463.008C1949.25 459.93 1949.21 459.892 1946.48 460.404C1944.86 460.707 1941.81 460.362 1939.13 459.572C1933.19 457.817 1929.3 453.734 1923.06 442.662C1919.23 435.884 1918 432.737 1916.84 426.768C1916.05 422.675 1914.87 418.712 1914.23 417.963C1912.74 416.227 1904.02 413.359 1897.95 412.609C1893.19 412.02 1887.08 413.608 1887.08 415.433C1887.08 415.881 1886.91 416.751 1886.69 417.366C1886.48 417.982 1886.81 419.643 1887.42 421.058ZM1904.11 617.932C1905.69 621.005 1907.57 621.878 1910.12 620.717C1913.35 619.244 1912.96 615.645 1908.77 608.277C1906.02 603.438 1905.02 602.3 1904.15 603.019C1902.71 604.211 1902.68 615.164 1904.11 617.932ZM1907.2 592.811C1907.64 592.811 1908.3 592.312 1908.67 591.702C1909.04 591.092 1911.49 588.992 1914.1 587.035C1920.26 582.428 1921.2 580.205 1916.97 580.212C1914.34 580.217 1909.96 583.211 1908.08 586.292C1906.33 589.162 1905.84 592.811 1907.2 592.811ZM1911.63 948.813C1913.39 952.473 1915.52 950.173 1914.02 946.227C1913.55 944.993 1912.59 943.983 1911.89 943.983C1910.42 943.983 1910.3 946.066 1911.63 948.813ZM1941.41 511.949C1941.94 513.264 1944.32 513.296 1947.11 512.024C1949.19 511.075 1949.25 510.826 1949.25 502.782C1949.25 498.237 1948.91 494.516 1948.48 494.516C1947.33 494.516 1943.26 499.619 1941.98 502.681C1940.86 505.348 1940.58 509.905 1941.41 511.949ZM1943.72 534.422C1944.33 535.809 1945.83 537.859 1947.04 538.979L1949.25 541.016V534.584C1949.25 528.427 1949.16 528.131 1947.15 527.627C1942.69 526.507 1941.36 529.128 1943.72 534.422ZM1947.17 416.402C1948.89 417.827 1949.42 417.1 1949.1 413.786C1948.84 411.153 1948.76 411.094 1947.36 412.505C1945.56 414.319 1945.52 415.034 1947.17 416.402Z" fill="#F92535"/>
<path d="M1845.5 1071.5C1850 1062 1860.43 1061.74 1870.9 1059.45C1879.86 1057.48 1885.61 1055.24 1887.87 1052.83C1889.76 1050.82 1889.77 1050.76 1888.72 1040.13C1887.85 1031.21 1887.28 1028.7 1885.27 1024.94C1883.94 1022.46 1882.32 1018.12 1881.66 1015.31C1880.15 1008.83 1878.89 1007.48 1872.32 1005.29C1868.6 1004.06 1866.21 1002.63 1864.4 1000.56L1861.8 997.607L1862.02 988.228L1862.23 978.848L1858.76 973.575C1854.04 966.395 1853.73 963.713 1856.35 952.846C1860.66 934.95 1866.59 927.625 1879.2 924.595C1885.13 923.171 1887.24 921.648 1886.92 919.019C1886.48 915.321 1883.11 913.59 1876.36 913.59C1867.13 913.59 1864.18 915.301 1857.09 924.76C1846.69 938.634 1845.36 943.29 1848.05 956.52C1849.87 965.487 1849.18 969.07 1844.71 973.807C1840.96 977.783 1838.95 977.278 1831 970.362C1824.06 964.327 1820.41 963.048 1816.83 965.397C1815.62 966.189 1812.69 967.494 1810.32 968.297C1806.41 969.622 1805.98 970.013 1805.74 972.545C1805.12 978.841 1809.11 984.555 1816.52 987.984C1820.87 990 1821.71 992.027 1822.46 1002.34C1822.84 1007.44 1823.54 1012.93 1824.03 1014.55C1826.37 1022.32 1824.38 1028.21 1816.48 1036.9C1808.11 1046.1 1804.75 1050.68 1804.75 1052.85C1804.75 1054.38 1805.2 1054.88 1806.58 1054.88C1810.54 1054.88 1815.73 1051.14 1825.72 1041.09C1834.44 1032.31 1837.03 1030.21 1842.05 1027.88C1847.12 1025.53 1848.98 1025.12 1854.46 1025.09C1859.7 1025.06 1861.35 1025.38 1863.23 1026.79C1869.65 1031.58 1870.71 1037.75 1866.45 1045.58C1863.14 1051.67 1859.38 1054.19 1849.53 1056.92C1840.45 1056.92 1842.59 1057.15 1839 1067V1069L1839.5 1070L1842 1071L1845.5 1071.5Z" fill="#F92535"/>
<path d="M1052.85 14.1411C1053.08 14.7936 1053.32 15.4515 1053.58 16.0946C1055.87 21.9141 1056.31 22.4585 1061.98 26.3037C1069.12 31.1537 1069.35 32.2048 1064.6 38.5209C1062.75 40.9808 1061.24 43.5094 1061.24 44.1395C1061.24 46.1239 1064.53 47.2246 1068.69 46.6315C1075.21 45.6989 1091.15 41.2966 1099.74 38.0554C1109.56 34.3488 1114.51 33.8028 1121.6 35.6451C1125.29 36.6054 1129.81 36.9784 1136.31 36.8591C1142.71 36.7415 1148.13 37.1792 1153.36 38.2361C1160.6 39.6996 1161.14 39.7054 1163.21 38.3528C1166.12 36.4432 1168.15 33.2204 1168.15 30.4917C1168.15 28.877 1167.02 27.2808 1164.05 24.6848C1160.58 21.6503 1160.09 20.8716 1160.87 19.5728L1145.81 9.56604L1124.2 16.0946C1113.53 15.0145 1087.5 12.8542 1068.69 12.8542C1058.95 12.8542 1054.49 13.433 1052.85 14.1411Z" fill="#F92535"/>
<path d="M1219.6 18.9435C1235.91 22.5711 1241.49 23.5095 1251.54 24.316C1257.56 24.7983 1265.69 25.7578 1269.61 26.4467C1278.56 28.0219 1286.45 28.0504 1290.12 26.5205C1291.96 25.7501 1294.15 23.5641 1296.4 20.2482L1281.5 12.8542L1251.54 16.0946L1219.6 18.9435Z" fill="#F92535"/>
<path d="M945.112 1063.41C936.795 1063.01 924.697 1061.89 918.228 1060.93C909.751 1059.67 902.982 1059.22 893.992 1059.32L881.519 1059.47L874.812 1055.99C871.123 1054.07 867.36 1052.5 866.451 1052.5C863.625 1052.5 859.593 1055.02 855.215 1059.52C852.902 1061.9 849.656 1064.85 848.002 1066.08C856.04 1070.43 864.717 1072.19 868.05 1072.52L879.05 1073.7L900.55 1072.52L932.083 1070.02L947.62 1068.52L958.05 1066.62V1064.23C955.29 1063.93 951.274 1063.7 945.112 1063.41Z" fill="#F92535"/>
</g>
<defs>
<clipPath id="clip0_1899_37">
<rect width="1920" height="1080" fill="white"/>
</clipPath>
</defs>
</svg>
