<svg width="291" height="171" viewBox="0 0 291 171" fill="none" xmlns="http://www.w3.org/2000/svg">
<g clip-path="url(#clip0_1888_285)">
<path d="M21.4211 47.5647L25.8222 57.4459L26.8952 58.0705L28.0448 57.9632L28.315 56.1985L27.2267 49.1972L24.7092 34.6466L23.0193 27.4115L21.1053 19.3277L20.1224 18.1148L18.0664 16.2772L17.2771 14.0316L17.0088 11.1575L17.7734 8.47695L19.9117 6.53792L22.1305 5.46112L24.8609 5.20632L27.5281 5.82715L29.5572 7.37727L30.6608 9.88349L30.4979 12.7978C30.282 13.5911 29.5896 15.4918 28.5473 16.7487C27.5049 18.0056 27.5228 18.1973 27.6621 18.1359L30.5476 22.6502L38.3017 35.8424L46.3931 47.9884L51.348 54.4839L55.3832 58.8909L59.4413 61.9912L62.2426 64.049L67.0021 65.3444L71.9417 65.4632L75.5707 63.9649L79.1289 60.1539L82.1122 56.3965L84.4671 52.118L88.1576 43.5111L94.4923 25.96L97.6577 16.3874L95.4754 16.3012L93.4731 15.0385L91.5437 11.4497L91.7161 7.08487L92.4673 4.2606L94.1745 2.3618L96.6673 1.11448L99.9725 0.80603L103.515 1.49011L106.119 2.98658L107.236 5.63651L107.545 8.94172L106.937 11.7526L105.688 13.8986L105.768 14.7608L108.752 21.8752L111.721 28.8458L116.146 37.4203L120.031 44.8853L123.796 51.057L127.126 55.6747C128.184 57.1705 130.836 60.6339 132.984 62.5209C135.131 64.4078 136.994 65.6256 137.657 65.9986L141.163 67.8457L145.779 69.1544L149.883 69.6412L153.539 68.4303L159.864 63.2014L165.223 58.4975L170.947 53.0349L177.254 46.0682L183.405 38.9712L187.678 33.4989L191.924 27.7393L194.202 24.1927L194.971 23.1063L193.974 21.7497C193.707 20.9533 193.147 19.1017 193.051 18.067C192.954 17.0324 193.224 15.7799 193.371 15.283L194.593 12.8496L195.91 11.4222L197.971 10.2151L200.675 9.67287L202.911 10.3339L205.371 11.8438L206.641 13.0299L207.588 15.4058L207.829 17.9925C207.675 18.925 207.243 21.0333 206.754 22.0066C206.265 22.98 205.413 23.6781 205.047 23.9054L203.259 24.942L201.315 25.8483L200.69 26.9213L200.42 28.686L200.65 37.3619L201.307 44.4034L202.579 51.8224L203.305 54.9437L205.202 61.2897L207.359 67.3215L209.814 71.876L211.492 74.3286L214.728 77.9404L217.503 79.7109L220.996 81.4143L223.78 81.7343L226.744 80.8779L233.598 78.2089L239.011 74.0799L245.165 68.577L251.617 61.5969L256.501 54.9079L261.726 48.767L265.715 44.9158L269.166 39.9551L268.952 37.6559L269.455 35.2895L270.471 33.7452L271.774 32.1741L273.849 31.1107L276.148 30.8961L278.815 31.5169L281.159 33.3276L281.764 35.1556L282.006 37.7422L281.241 40.4228L279.417 42.6224L277.355 43.8295L275.527 44.435L274.09 44.5691L271.151 50.3517C270.28 52.414 268.065 58.2934 266.169 65.3123C264.273 72.3312 263.955 73.6848 264.033 73.4843C263.526 74.7878 262.101 78.8829 260.453 84.835C258.805 90.787 259.958 87.2971 260.741 84.8082L264.676 80.3821L271.074 72.8271L274.996 68.2574L277.926 63.9252L279.513 60.7331L279.311 58.5775C279.074 57.585 278.81 55.3773 279.654 54.4867C280.499 53.5961 280.971 53.0592 281.101 52.9021L283.293 51.5379L285.736 51.3099L288.286 52.2316L289.674 53.1168L290.67 54.4734L291.262 56.1576L291.112 59.2157L289.98 61.0608L288.807 62.4749L286.575 63.408L283.508 64.7089L282.362 66.4104L276.732 72.8789L271.758 80.1561C269.64 83.3495 264.561 91.2646 261.189 97.3775C257.816 103.49 257.731 104.851 258.11 104.768L252.005 120.123L253.369 122.315L256.004 125.693L256.245 128.28L255.785 132.671L254.63 135.823L252.307 137.345L250.129 138.852L249.391 141.82L248.552 151.466L251.564 154.229L252.815 158.316L252.395 163.139L249.786 164.687L245.595 166.382L238.477 167.771L229.441 170.354L213.921 171.803L198.738 172.205L179.801 171.218L161.493 170.752L140.702 170.083L121.12 166.837L104.533 164.616L93.1226 163.506L82.705 162.159L62.9255 158.352L50.3485 155.612L37.5071 151.592L28.3656 148.386L23.3149 145.523L21.3759 143.385C20.9991 142.454 20.2052 140.16 20.0443 138.436C19.8833 136.711 20.3196 135.173 20.5578 134.619L21.443 133.232L25.1487 131.002L28.1896 129.413L28.2549 113.027L26.5132 111.45L24.6642 108.723L24.3156 104.987L25.6952 102.684L27.115 100.812L29.7649 99.6951L28.8128 89.492L28.3031 84.0313L26.5577 80.8601L25.0631 78.8253L23.0667 74.5179C22.8112 73.3338 21.9416 69.6074 20.5069 64.175C19.0722 58.7426 18.4709 57.8903 18.3495 58.1432L16.537 54.2536C16.1065 52.7476 15.0348 49.0304 14.1918 46.2099C14.0125 45.5309 12.5587 42.6901 11.8543 41.3546L10.1586 37.1641L6.48552 36.6372L4.02531 35.1273L2.253 31.6688L1.99819 28.9384L3.19385 26.2176L5.27856 23.7037L7.79819 22.7438L11.0267 23.1673L13.828 25.2252L15.5064 27.6778L15.7612 30.4082L15.2707 32.9182L15.378 34.0678L21.4211 47.5647Z" fill="#FFF21D"/>
</g>
<defs>
<clipPath id="clip0_1888_285">
<rect width="291" height="171" fill="white"/>
</clipPath>
</defs>
</svg>
