<svg width="512" height="213" viewBox="0 0 512 213" fill="none" xmlns="http://www.w3.org/2000/svg">
<g clip-path="url(#clip0_1888_329)">
<rect width="512" height="213" fill="white"/>
<rect x="1" y="1.4707" width="510.408" height="210.915" fill="white" stroke="black" stroke-width="2"/>
<rect x="1.16965" y="1.16965" width="509.661" height="37.6607" fill="#FFF21D" stroke="black" stroke-width="2.3393"/>
<path d="M51.1621 58.3232C63.6209 58.3235 73.6484 68.0588 73.6484 79.9805C73.6482 91.902 63.6208 101.636 51.1621 101.637C38.7032 101.637 28.675 91.9021 28.6748 79.9805C28.6748 68.0586 38.7031 58.3232 51.1621 58.3232Z" fill="#F92535" stroke="black" stroke-width="2.3393"/>
<path d="M62.7088 89.1044L58.8278 92.3098L50.2705 84.9677L40.7489 92.8316L36.9287 89.5539L46.4503 81.69L37.893 74.3479L41.7741 71.1425L50.3313 78.4846L59.025 71.3045L62.8452 74.5822L54.1516 81.7623L62.7088 89.1044Z" fill="white"/>
<rect x="460.203" y="7.36106" width="30.1944" height="26.0537" fill="#FDABCA" stroke="black" stroke-width="2.3393"/>
<path d="M484.537 25.9728L481.647 28.3597L475.275 22.8924L468.184 28.7483L465.34 26.3075L472.43 20.4516L466.058 14.9843L468.948 12.5974L475.32 18.0647L481.794 12.718L484.638 15.1588L478.165 20.5055L484.537 25.9728Z" fill="white"/>
</g>
<defs>
<clipPath id="clip0_1888_329">
<rect width="512" height="213" fill="white"/>
</clipPath>
</defs>
</svg>
