<svg width="354" height="175" viewBox="0 0 354 175" fill="none" xmlns="http://www.w3.org/2000/svg">
<rect x="1" y="1.05859" width="352.443" height="172.957" fill="white" stroke="black" stroke-width="2"/>
<rect x="1" y="1.05859" width="352.443" height="30.8398" fill="#70D6D8" stroke="black" stroke-width="2"/>
<path d="M35.3896 49.1836C44.7215 49.1836 52.2256 56.4746 52.2256 65.3936C52.2254 74.3123 44.7214 81.6025 35.3896 81.6025C26.0581 81.6023 18.5549 74.3122 18.5547 65.3936C18.5547 56.4747 26.058 49.1838 35.3896 49.1836Z" fill="#F92535" stroke="black" stroke-width="2"/>
<path d="M44.7668 71.9751L41.8143 74.8718L35.3256 68.2582L28.0821 75.3649L25.1853 72.4125L32.4288 65.3057L25.94 58.6921L28.8925 55.7954L35.3813 62.409L41.9949 55.9202L44.8916 58.8727L38.278 65.3615L44.7668 71.9751Z" fill="white"/>
<rect x="317.508" y="6.71875" width="22.5279" height="19.4062" fill="#FDABCA" stroke="black" stroke-width="2"/>
<path d="M335.662 21.5436L333.463 23.7007L328.631 18.7758L323.237 24.0679L321.08 21.8693L326.474 16.5773L321.642 11.6524L323.841 9.49536L328.673 14.4202L333.598 9.58833L335.755 11.7869L330.83 16.6188L335.662 21.5436Z" fill="white"/>
</svg>
