<svg width="347" height="171" viewBox="0 0 347 171" fill="none" xmlns="http://www.w3.org/2000/svg">
<g clip-path="url(#clip0_1530_89)">
<rect width="347" height="171" fill="black"/>
<rect x="1" y="0.859375" width="344.63" height="169.102" fill="white" stroke="black" stroke-width="2"/>
<rect x="1" y="0.859375" width="344.63" height="30.1162" fill="#F92535" stroke="black" stroke-width="2"/>
<path d="M34.6064 47.9258C43.7212 47.9258 51.0487 55.0465 51.0488 63.7559C51.0488 72.4653 43.7212 79.5869 34.6064 79.5869C25.4916 79.5869 18.1641 72.4653 18.1641 63.7559C18.1642 55.0465 25.4917 47.9258 34.6064 47.9258Z" fill="#F92535" stroke="black" stroke-width="2"/>
<path d="M43.7435 70.2305L40.8561 73.0634L34.5103 66.5955L27.4265 73.5457L24.5936 70.6582L31.6774 63.708L25.3317 57.2401L28.2191 54.4072L34.5648 60.8751L41.0327 54.5293L43.8656 57.4167L37.3978 63.7626L43.7435 70.2305Z" fill="white"/>
<rect x="310.539" y="6.39453" width="21.9874" height="18.9344" fill="#70D6D8" stroke="black" stroke-width="2"/>
<path d="M328.418 20.7259L326.268 22.8355L321.543 18.0192L316.268 23.1946L314.158 21.0445L319.433 15.869L314.708 11.0527L316.858 8.94311L321.584 13.7594L326.4 9.03403L328.509 11.1842L323.693 15.9096L328.418 20.7259Z" fill="white"/>
</g>
<defs>
<clipPath id="clip0_1530_89">
<rect width="347" height="171" fill="white"/>
</clipPath>
</defs>
</svg>
